<?xml version="1.0" encoding="UTF-8" standalone="no"?><!DOCTYPE svg PUBLIC "-//W3C//DTD SVG 1.1//EN" "http://www.w3.org/Graphics/SVG/1.1/DTD/svg11.dtd"><svg width="100%" height="100%" viewBox="0 0 2467 859" version="1.1" xmlns="http://www.w3.org/2000/svg" xmlns:xlink="http://www.w3.org/1999/xlink" xml:space="preserve" xmlns:serif="http://www.serif.com/" style="fill-rule:evenodd;clip-rule:evenodd;stroke-linejoin:round;stroke-miterlimit:2;"><path d="M2465.83,370.321l-64.529,-0l-0,12.442l23.854,-0l0,81.762l16.325,0l0,-81.762l24.342,-0l-0,-12.442l0.008,-0Zm-87.083,38.971l-34.696,-0l-0,-26.521l40.6,-0l-0,-12.442l-56.925,0l-0,94.204l56.925,0l-0,-12.462l-40.6,-0l-0,-30.321l34.696,0l-0,-12.462l-0,0.004Zm-140.442,-38.971l-20.629,-0l-0,94.204l16.325,0l-0,-62.183l0.487,-0.075l20.3,62.254l11.075,-0l20.209,-61.854l0.496,0.075l-0,61.779l16.416,-0l0,-94.204l-20.541,-0l-21.917,74.071l-0.479,-0l-21.75,-74.071l0.008,-0l0,0.004Zm-77.054,22.966l0.479,0l11.892,37.521l-24.184,0l11.817,-37.521l-0.004,0Zm23.037,71.238l17.142,-0l-31.375,-94.204l-16.896,-0l-31.546,94.204l17.221,-0l6.717,-21.271l31.946,0l6.791,21.271Zm-83.037,-55.229l-34.688,-0l0,-26.521l40.6,0l0,-12.442l-56.925,0l0,94.205l56.925,-0l0,-12.463l-40.6,0l0,-30.321l34.688,0l-0,-12.462l-0,0.004Zm-70.021,-38.971l-64.521,0l0,12.442l23.846,-0l0,81.762l16.342,0l-0,-81.762l24.333,-0l0,-12.442Zm-128.479,12.442l15.125,-0c4.733,-0 8.296,1.441 10.675,4.296c2.367,2.854 3.554,6.7 3.554,11.554c0,4.9 -1.179,8.683 -3.517,11.321c-2.337,2.637 -5.912,3.958 -10.712,3.958l-15.125,0.008l-0,-31.137Zm16.492,43.583c4.312,-0 7.633,1.375 9.954,4.125c2.312,2.742 3.479,6.596 3.479,11.562l-0,8.484c-0,2.796 0.067,5.546 0.196,8.241c0.141,2.705 0.487,4.605 1.008,5.746l16.913,0.009l-0,-1.375c-0.713,-1.142 -1.18,-2.909 -1.421,-5.342c-0.242,-2.413 -0.354,-4.825 -0.354,-7.196l-0,-8.654c-0,-5.65 -1.121,-10.421 -3.388,-14.275c-2.262,-3.854 -5.942,-6.558 -11,-8.129c4.529,-2.096 7.971,-4.975 10.354,-8.654c2.367,-3.659 3.554,-7.988 3.554,-13.013c0,-8.683 -2.72,-15.446 -8.137,-20.3c-5.408,-4.854 -12.921,-7.279 -22.517,-7.279l-31.45,-0l0,94.204l16.325,0l0,-38.166l16.492,-0l-0.008,0.008l-0,0.004Zm-70.667,0.787c-0,8.234 -1.629,14.68 -4.892,19.317c-3.266,4.658 -7.754,6.979 -13.471,6.979c-5.875,0 -10.441,-2.329 -13.704,-6.979c-3.254,-4.65 -4.883,-11.087 -4.883,-19.317l-0.008,-19.691c-0,-8.063 1.616,-14.409 4.854,-19.029c3.237,-4.63 7.762,-6.95 13.583,-6.95c5.754,-0 10.279,2.32 13.583,6.95c3.284,4.62 4.93,10.975 4.93,19.029l-0,19.691l0.008,0Zm16.325,-19.55c-0,-11.479 -3.238,-20.775 -9.7,-27.895c-6.475,-7.109 -14.854,-10.675 -25.138,-10.675c-10.354,-0 -18.737,3.554 -25.154,10.675c-6.416,7.12 -9.625,16.416 -9.625,27.895l0,19.655c0,11.591 3.229,20.925 9.663,28.008c6.446,7.092 14.866,10.637 25.266,10.637c10.3,0 18.655,-3.545 25.071,-10.637c6.409,-7.071 9.617,-16.417 9.617,-28.008l-0.008,-19.655l0.008,0Zm-104.775,19.55c-0,8.234 -1.629,14.68 -4.892,19.317c-3.275,4.658 -7.746,6.979 -13.462,6.979c-5.875,0 -10.442,-2.329 -13.704,-6.979c-3.275,-4.65 -4.9,-11.087 -4.9,-19.317l-0,-19.691c-0,-8.063 1.616,-14.409 4.854,-19.029c3.237,-4.63 7.762,-6.95 13.583,-6.95c5.771,-0 10.3,2.32 13.583,6.95c3.284,4.62 4.938,10.975 4.938,19.029l-0,19.691Zm16.325,-19.55c-0,-11.479 -3.238,-20.775 -9.7,-27.895c-6.475,-7.109 -14.854,-10.675 -25.154,-10.675c-10.346,-0 -18.729,3.554 -25.138,10.675c-6.416,7.12 -9.625,16.416 -9.625,27.895l0,19.655c0,11.591 3.229,20.925 9.663,28.008c6.446,7.092 14.866,10.637 25.266,10.637c10.3,0 18.655,-3.545 25.063,-10.637c6.417,-7.071 9.625,-16.417 9.625,-28.008l-0,-19.655Zm-92.184,-60.804l-16.325,0l0,87.179l-0.495,0.159l-44.634,-87.338l-16.4,0l0,117.742l16.4,-0l0,-87.4l0.496,-0.167l44.633,87.571l16.325,0l0,-117.746Zm-174.72,46.504l0.479,0l11.891,37.521l-24.183,0l11.817,-37.521l-0.004,0Zm23.037,71.238l17.142,-0l-31.375,-94.204l-16.896,-0l-31.546,94.204l17.221,-0l6.717,-21.271l31.945,0l6.792,21.271Zm-95.087,-29.158c-0,5.5 -1.159,9.887 -3.517,13.162c-2.338,3.283 -5.313,4.929 -8.925,4.929c-4.2,0 -7.542,-1.383 -9.983,-4.125c-2.459,-2.741 -3.696,-6.896 -3.696,-12.441l-15.754,-0l-0.167,0.487c-0.271,9.325 2.275,16.417 7.642,21.271c5.358,4.854 12.683,7.267 21.954,7.267c8.408,-0 15.304,-2.742 20.704,-8.242c5.379,-5.5 8.083,-12.892 8.083,-22.163l0,-65.166l-16.341,-0l-0,65.033l-0,-0.017l-0,0.005Zm-95.325,-27.196l-36.071,-0l-0,12.441l36.071,0l-0,-12.441Zm-72.442,41.487c-2.75,2.525 -6.821,3.788 -12.217,3.788c-5.004,-0 -9.121,-1.321 -12.329,-3.929c-3.208,-2.63 -4.808,-6.913 -4.808,-12.855l-15.688,0l-0.241,0.488c-0.271,9.662 2.666,16.867 8.812,21.621c6.146,4.762 14.229,7.129 24.258,7.129c9.971,-0 17.913,-2.329 23.817,-6.971c5.904,-4.658 8.85,-11.05 8.85,-19.158c0,-7.904 -2.337,-13.95 -7.025,-18.113c-4.696,-4.162 -11.967,-7.679 -21.842,-10.554c-7.325,-2.237 -12.162,-4.492 -14.508,-6.754c-2.337,-2.283 -3.517,-5.408 -3.517,-9.4c0,-3.892 1.209,-7.121 3.613,-9.654c2.396,-2.534 6.071,-3.809 11.037,-3.809c4.9,0 8.609,1.517 11.113,4.555c2.508,3.029 3.762,7.033 3.762,12.029l15.68,-0l0.166,-0.488c0.204,-8.954 -2.412,-15.95 -7.887,-21c-5.471,-5.033 -13.079,-7.558 -22.834,-7.558c-9.495,-0 -17.025,2.396 -22.6,7.183c-5.575,4.8 -8.37,11.104 -8.37,18.904c-0,8.017 2.329,14.059 6.995,18.1c4.659,4.034 12.113,7.475 22.359,10.338c6.671,2.2 11.283,4.5 13.779,6.883c2.508,2.396 3.762,5.521 3.762,9.392c0,4.033 -1.375,7.304 -4.125,9.833l0,-0.008l-0.012,0.008Zm-81.179,-79.337l-0,61.65c-0,6.791 -1.654,12.058 -4.967,15.821c-3.312,3.77 -7.821,5.65 -13.546,5.65c-5.65,-0 -10.158,-1.892 -13.508,-5.65c-3.342,-3.763 -5.004,-9.03 -5.004,-15.821l-0,-61.65l-16.342,-0l0,61.779c0,10.617 3.208,18.904 9.625,24.867c6.417,5.958 14.829,8.925 25.229,8.925c10.404,-0 18.813,-2.975 25.229,-8.925c6.417,-5.967 9.625,-14.238 9.625,-24.867l0,-61.779l-16.341,-0Zm-108.825,12.441c5.296,0 9.671,2.496 13.179,7.467c3.508,4.988 5.25,11.179 5.25,18.588l-0,17.025c-0,7.579 -1.75,13.845 -5.25,18.804c-3.508,4.937 -7.896,7.408 -13.179,7.408l-13.584,0l0,-69.3l13.584,0l-0,0.008Zm-0,81.763c9.925,-0 18.187,-3.6 24.816,-10.796c6.625,-7.204 9.955,-16.454 9.955,-27.775l-0,-16.987c-0,-11.321 -3.33,-20.58 -9.955,-27.813c-6.633,-7.221 -14.904,-10.825 -24.816,-10.825l-29.917,-0.008l0,94.204l29.917,-0Zm-54.342,-94.204l-16.325,-0l0,94.204l16.325,-0l0,-94.204Zm-85.942,12.441l15.125,0c4.734,0 8.288,1.442 10.675,4.296c2.367,2.854 3.555,6.7 3.555,11.554c-0,4.9 -1.18,8.684 -3.517,11.321c-2.338,2.638 -5.913,3.959 -10.713,3.959l-15.125,0.008l0,-31.138Zm16.492,43.584c4.304,-0 7.633,1.375 9.946,4.125c2.321,2.741 3.471,6.596 3.471,11.562l-0,8.484c-0,2.795 0.075,5.545 0.204,8.241c0.129,2.704 0.479,4.604 1.008,5.746l16.904,0.008l0,-1.375c-0.7,-1.141 -1.17,-2.908 -1.412,-5.341c-0.242,-2.413 -0.354,-4.825 -0.354,-7.196l-0,-8.654c-0,-5.65 -1.142,-10.421 -3.404,-14.275c-2.263,-3.854 -5.921,-6.559 -10.992,-8.129c4.529,-2.096 7.979,-4.975 10.346,-8.655c2.387,-3.658 3.554,-7.987 3.554,-13.012c-0,-8.683 -2.704,-15.446 -8.129,-20.3c-5.409,-4.854 -12.921,-7.279 -22.517,-7.279l-31.458,-0l-0,94.204l16.341,-0l0,-38.167l16.492,0l0,0.013Zm-88.133,-33.071l0.479,-0l11.892,37.521l-24.184,-0l11.817,-37.521l-0.004,-0Zm23.037,71.237l17.142,0l-31.375,-94.204l-16.896,0l-31.546,94.204l17.221,0l6.717,-21.27l31.946,-0l6.791,21.27Zm-79.971,-117.741l-16.341,-0l-0,53.296l-45.109,-0l0,-53.296l-16.416,-0l-0,117.741l16.416,0l0,-51.995l45.109,-0l-0,51.995l16.341,0l0,-117.741Z" style="fill:#003087;fill-rule:nonzero;"/><g><path d="M293.358,123.95c-7.67,-6.017 -12.666,-8.821 -21.787,-12.263c-10.263,-3.883 -17.483,-5.304 -27.596,-5.304c-12.262,0 -22.462,1.384 -36.521,4.184c-19.254,3.825 -29.271,10.329 -47.941,15.333c-18.767,5.063 -29.909,8.325 -49.33,7.25c-10.233,-0.562 -16.041,-1.496 -25.912,-4.183c-4.454,9.391 -7.504,14.5 -13.658,22.862c-7.467,10.121 -12.984,14.8 -22.021,23.554c-8.992,8.709 -15.642,11.955 -24.117,21.18c-7.775,8.458 -13.154,13.004 -17.7,23.554c-2.554,5.912 -4.612,9.45 -4.462,15.883c0.12,4.629 0.504,7.521 2.779,11.563c2.808,4.966 5.716,7.529 11.021,9.616c4.566,1.788 7.941,2.675 12.537,0.984c5.125,-1.917 7.904,-5.175 9.338,-10.459c0.841,-3.096 1.208,-5.237 -0,-8.221c-0.813,-2.02 -1.646,-3.104 -3.35,-4.462c4.462,1.158 6.933,2.208 10.87,4.592c5.005,3.041 7.242,5.695 11.15,10.058c5.409,6.004 7.505,10.217 11.442,17.271c10.45,18.737 13.958,31.125 16.725,52.396c1.742,13.433 1.104,21.179 0.563,34.716c-0.938,22.742 -2.705,35.679 -7.95,57.834c-3.405,14.379 -5.175,22.666 -11.021,36.241c-12.217,28.392 -23.65,43.742 -47.384,63.567l-6.416,25.35c4.65,20.796 8.512,32.425 17.287,51.846c7.813,17.316 12.434,27.296 23.967,42.366c11.45,14.967 19.029,23.005 34.321,34.013c20.45,14.725 34.941,19.046 59.187,25.912c19.654,5.575 31.929,6.275 51.984,11.713c15.37,4.171 24.395,5.987 39.029,11.992c14.05,5.745 21.6,10.179 34.004,18.954c8.654,6.1 13.312,9.946 20.962,17.287c7.655,-7.333 12.292,-11.179 20.946,-17.287c12.404,-8.775 19.963,-13.209 34.004,-18.954c14.65,-6.005 23.659,-7.821 39.03,-11.992c20.058,-5.433 32.329,-6.129 51.983,-11.713c24.246,-6.866 38.737,-11.187 59.187,-25.912c15.305,-11.013 22.884,-19.038 34.321,-34.013c11.546,-15.07 16.175,-25.062 23.967,-42.366c8.775,-19.421 12.637,-31.05 17.287,-51.846l-6.408,-25.35c-23.742,-19.821 -35.167,-35.154 -47.4,-63.567c-5.817,-13.554 -0.129,-1.112 -10.992,-36.241c-4.087,-13.171 -7.025,-35.092 -7.941,-57.834c-0.563,-13.537 -1.188,-21.283 0.55,-34.716c2.758,-21.271 6.258,-33.659 16.716,-52.396c3.946,-7.054 6.042,-11.271 11.442,-17.271c3.908,-4.358 6.146,-7.017 11.142,-10.058c3.937,-2.388 6.416,-3.434 10.87,-4.592c-1.691,1.358 -2.508,2.442 -3.341,4.462c-1.196,2.975 -0.825,5.125 -0,8.221c1.45,5.296 4.221,8.55 9.346,10.459c4.604,1.691 7.971,0.804 12.545,-0.984c5.305,-2.087 8.213,-4.65 11.013,-9.616c2.262,-4.042 2.675,-6.934 2.779,-11.563c0.159,-6.446 -1.917,-9.971 -4.454,-15.883c-4.546,-10.554 -9.933,-15.1 -17.708,-23.554c-8.467,-9.225 -15.117,-12.48 -24.109,-21.18c-9.029,-8.754 -14.566,-13.441 -22.021,-23.554c-6.166,-8.362 -9.225,-13.471 -13.666,-22.862c-9.879,2.675 -15.696,3.621 -25.921,4.183c-19.421,1.075 -30.542,-2.187 -49.346,-7.25c-18.662,-5.004 -28.683,-11.496 -47.933,-15.333c-14.05,-2.796 -24.246,-4.184 -36.513,-4.184c-10.121,0 -17.346,1.421 -27.596,5.305c-9.129,3.441 -14.116,6.25 -21.787,12.262l0.008,0Z" style="fill:#fff;"/><path d="M238.5,558.417c0.067,3.179 -0.225,6.445 -0.85,9.579c-2.458,-0.638 -4.817,-0.638 -7.333,-0.638c-2.471,0 -4.921,0.038 -7.334,0.638c-0.737,-3.675 -0.887,-7.258 -0.85,-10.946l3.313,3.946c0.308,-0.675 1.721,-4.221 2.496,-4.396l0.179,-0.075c0.925,0.496 1.179,0.442 2.225,0.442c1.067,-0 1.321,0.054 2.312,-0.496c0.871,0.366 1.396,2.125 1.759,2.862c0.291,0.6 0.55,1.234 0.75,1.667l3.341,-3.946l0,1.375l0,-0.008l-0.008,-0.004Z" style="fill:#003087;fill-rule:nonzero;"/><path d="M348.85,509.921c-5.696,1.083 -9.008,1.358 -14.808,1.358c-9.871,-0.029 -15.117,-4.716 -24.95,-4.125c-5.575,0.354 -8.98,0.309 -14.013,2.667c-5.658,2.675 -9.429,5.012 -12.004,10.767c-2.358,5.304 -2.508,9.429 -0.467,14.875c1.992,5.237 5.621,8.037 9.796,10.591c6.175,3.809 10.504,3.659 17.738,4.259c10.196,0.775 15.771,-1.359 25.596,-3.592c8.429,-1.9 12.92,-3.938 21.187,-6.342c8.917,-2.6 13.967,-4.004 22.937,-6.4c3.592,-3.5 5.784,-5.35 9.85,-8.308c4.238,-3.042 6.809,-4.604 11.488,-6.942l-0.392,-2.9c-8.766,1.721 -13.666,2.9 -22.3,5.25c-10.72,2.967 -16.483,5.679 -27.158,8.85c-9.496,2.796 -14.771,4.863 -24.521,6.613c-5.5,0.97 -8.608,2.112 -14.192,1.787c-4.854,-0.271 -8.52,0.504 -12.237,-2.667c-1.871,-1.6 -3.246,-2.666 -3.688,-5.07c-0.308,-1.655 -0.441,-2.871 0.505,-4.23c0.85,-1.245 1.9,-1.825 3.404,-1.87c1.908,-0.038 3.441,0.916 4.079,2.733c0.504,1.646 0.092,3.133 -1.217,4.221c2.05,0.196 3.267,0.179 5.267,-0.158c2.404,-0.392 4.079,-0.242 5.867,-1.871c1.654,-1.459 2.433,-2.871 2.458,-5.079c0.029,-2.592 -1.083,-4.359 -3.192,-5.809c-1.396,-0.954 -2.404,-1.262 -4.087,-1.321c2.458,-0.812 4.296,-0.683 6.612,0.496c1.209,0.638 1.871,1.142 2.713,2.238c1.321,1.721 1.729,3.254 1.441,5.446c4.313,-0.405 6.809,-1.009 10.767,-2.675c4.042,-1.742 5.988,-3.413 9.533,-6.005c3.284,-2.42 5.063,-3.92 8.009,-6.754l-0.029,-0.016l0.008,-0.017Z" style="fill:#003087;"/><path d="M230.379,571.579c-2.9,0 -5.033,0 -7.166,1.954c-0.58,0.496 -0.955,0.813 -1.321,1.488c-0.767,1.404 -0.625,2.675 0.029,4.133c1.383,2.983 5.125,0.992 8.466,0.992c3.313,-0 7.034,1.991 8.446,-0.992c0.646,-1.458 0.767,-2.733 0,-4.133c-0.375,-0.675 -0.737,-0.992 -1.291,-1.488c-2.171,-1.954 -4.296,-1.954 -7.146,-1.954l-0.017,0Z" style="fill:#003087;"/><path d="M385.304,588.146c-1.75,1.825 -3.246,2.721 -3.975,5.125c-0.504,1.637 -0.233,4.367 -0.233,4.367l0.329,3.35c0.142,1.458 0.067,2.329 -0.346,3.725c-0.337,1.27 -0.533,2.05 -1.421,3.004l-6.408,6.808c0.804,-1.404 1.113,-2.312 1.346,-3.908c0.233,-1.579 0.412,-2.592 -0.179,-4.088l-2.113,-5.35c-0.354,-0.871 -0.083,-1.487 0.054,-2.404c0.105,-0.767 0.18,-1.029 0.467,-1.983l-3.592,3.846c-0.879,0.962 -1.358,1.591 -1.766,2.862c-0.429,1.375 -0.609,2.321 -0.15,3.675l2.225,6.588c0.391,1.12 0.179,1.862 -0.105,3.041c-0.42,1.629 -1.037,2.442 -2.187,3.667l-6.388,6.762c0.813,-1.366 1.096,-2.275 1.338,-3.862c0.242,-1.592 0.421,-2.621 -0.196,-4.125l-2.087,-5.033c-0.367,-0.909 -0.075,-1.496 0.054,-2.442c0.112,-0.775 0.179,-1.046 0.479,-1.954l-3.6,3.712c-0.887,0.954 -1.358,1.638 -1.758,2.854c-0.45,1.359 -0.609,2.367 -0.159,3.725l2.225,6.538c0.375,1.142 0.159,1.9 -0.12,3.042c-0.413,1.629 -1.021,2.495 -2.188,3.712l-6.388,6.783c0.588,-1.104 0.842,-1.729 1.046,-2.966c0.254,-1.488 0.254,-2.459 -0.166,-3.892l-1.555,-5.596c-1.283,1.554 -2.095,2.404 -3.612,3.763c-2,1.766 -3.246,2.675 -5.558,4.033c-0.242,2.133 -0.7,3.404 -1.863,5.267c-1.442,2.283 -2.75,3.366 -5.1,4.641c-2.917,1.592 -5.1,1.992 -8.392,1.63c0.85,-1.592 1.084,-2.759 0.925,-4.584c-0.141,-1.591 -0.329,-2.712 -1.404,-3.908c-0.937,-1.029 -1.779,-1.488 -3.179,-1.683c0.292,0.737 0.429,1.141 0.7,1.87c0.338,0.9 0.504,1.442 0.842,2.359c-1.479,2.225 -2.471,3.358 -4.417,5.125c-1.929,1.766 -3.133,2.629 -5.408,3.854c-1.713,-0.038 -2.713,-0.083 -4.434,-0.129c-1.32,-0.084 -2.095,-0.367 -3.404,-0.196c-1.554,0.233 -2.366,0.683 -3.725,1.554c-1.766,1.083 -2.696,1.992 -3.808,3.817c-0.683,-2.225 -0.871,-3.546 -0.775,-5.867c0.179,-3.958 0.812,-6.587 3.404,-9.525c1.542,-1.767 2.713,-2.629 4.9,-3.546c-3.725,0.488 -5.987,1.721 -8.483,4.575c-1.767,2.05 -2.496,3.592 -3.042,6.267c-2,0.542 -3.133,0.992 -4.9,2.037c-2.321,1.321 -3.546,2.263 -5.267,4.221c-1.233,-2.133 -1.479,-3.854 -0.85,-6.258c0.405,-1.683 0.917,-2.675 2.188,-3.9c0.804,-0.775 1.346,-1.096 2.396,-1.554c0.908,-1.992 1.579,-3.088 3.041,-4.725c2.35,-2.675 4.163,-3.984 7.492,-5.25c-2.404,-0.329 -3.908,-0.092 -6.129,0.812c-2.179,0.946 -3.229,1.954 -4.763,3.771c-1.404,1.675 -2.037,2.817 -2.675,4.9c-2.095,0.6 -3.275,1.083 -5.125,2.225c-1.862,1.083 -2.862,1.854 -4.395,3.442c-0.917,-1.488 -1.142,-2.571 -1.009,-4.304c0.142,-1.955 0.871,-3.088 2.134,-4.584c1.32,-1.542 2.404,-2.225 4.304,-2.908c0.45,-3.229 1.233,-5.125 3.229,-7.754c1.954,-2.554 3.508,-3.817 6.446,-5.125c2.283,-1.009 3.725,-1.284 6.191,-1.367c3.705,-0.142 5.65,1.321 9.234,2.171c3.179,0.721 4.891,1.991 8.166,1.916c3.613,-0.083 5.905,-0.72 8.821,-2.908c2.734,-1.992 4.034,-3.762 5.175,-6.95c1.384,-0.533 2.134,-0.946 3.313,-1.854c1.358,-1.046 2.058,-1.825 3.041,-3.237c-2.387,1.095 -3.845,1.6 -6.445,2.058c-2.884,0.496 -4.605,0.496 -7.505,0.129c0.617,-0.775 0.971,-1.179 1.555,-1.992c3.087,-4.358 2.77,-7.941 5.604,-12.433c2.433,-3.817 3.816,-6.117 7.325,-8.979c5.071,-4.183 9.25,-4.733 15.604,-6.454c4.096,-1.121 6.662,-0.684 10.712,-2.038c2.096,-0.721 3.696,-0.579 5.238,-2.216c1.083,-1.096 1.667,-1.946 1.871,-3.509c0.158,-1.171 0.066,-1.891 -0.392,-2.937c2.667,-1.554 4.334,-2.134 7.325,-2.675c3.658,-0.638 5.921,-0.542 9.542,0.366c2.2,0.542 3.562,0.85 5.416,2.134c1.892,1.308 3.005,2.321 3.909,4.387c1.142,2.638 1.142,4.734 -0,7.354c-2.758,1.646 -4.221,2.779 -6.446,5.088l-0.017,0.008l-0.004,-0.008Z" style="fill:#003087;"/><g><path d="M474.121,613.833c-0.271,-1.862 -0.496,-3.004 -1.629,-4.454c-1.171,-1.487 -2.771,-2.133 -4.021,-2.721c-1.209,-0.541 -3.675,-0.871 -4.996,-0.871l-1.542,0c-1.421,0 -2.262,0.038 -3.629,-0.354c-1.337,-0.366 -2.216,-0.541 -3.171,-1.495l-4.641,-4.951c0.645,0.317 1.112,0.421 1.854,0.542c0.646,0.083 1.008,0.142 1.646,0.142l6.65,-0c1.458,-0 2.291,0.179 3.712,0.525c1.046,0.233 1.6,0.421 2.609,0.833l-3.555,-5.671c-0.841,-1.337 -1.337,-2.133 -2.62,-3.05c-1.292,-0.908 -2.238,-1.358 -3.855,-1.358l-8.308,0c-1.358,0 -2.246,0.083 -3.462,-0.542c-1.171,-0.587 -1.563,-1.32 -2.396,-2.32l-3.621,-4.584c0.812,0.45 1.346,0.6 2.237,0.813c0.767,0.129 1.188,0.233 1.955,0.233l7.287,0c1.767,0 2.796,0.271 4.479,0.767c1.246,0.421 1.938,0.691 3.096,1.321l-6.754,-8.851c-0.713,-0.908 -1.158,-1.404 -2.163,-1.945c-1.141,-0.675 -1.929,-0.909 -3.237,-0.909l-6.425,-0.008c-1.263,0 -2.029,-0.037 -3.171,-0.542c-1.158,-0.541 -1.871,-0.945 -2.496,-2.037l-5.35,-8.979c4.35,-0.054 6.934,-0.542 10.975,-2.225c4.696,-1.954 7.617,-3.442 10.571,-7.567c2.975,-4.183 3.929,-7.504 3.742,-12.629c-0.18,-4.304 -1.046,-6.896 -3.388,-10.517c-2.216,-3.433 -4.192,-4.929 -7.604,-7.129c-3.413,-2.237 -5.904,-2.471 -9.663,-4.079c-4.283,-1.871 -8.745,-0.738 -10.962,-4.863c-1.021,-1.916 -1.767,-3.404 -1.113,-5.491c0.646,-1.954 1.767,-3.088 3.705,-3.779c-4.584,-1.63 -8.038,-1.534 -12.525,0.42c-3.105,1.367 -5.125,2.459 -6.83,5.409c-1.854,3.216 -2.141,5.929 -1.02,9.466c-4.367,2.225 -6.725,3.725 -10.675,6.642c-5.446,4.033 -8.288,6.7 -12.667,11.871c4.221,-1.029 6.65,-1.488 10.962,-2.029c3.884,-0.504 6.109,-0.646 10.03,-0.684c-0.18,-2.225 0.112,-3.62 1.179,-5.604c1.916,-3.554 4.825,-5.358 8.866,-5.425c-1.766,0.675 -2.712,1.45 -3.825,2.992c-1.458,2.087 -2.458,3.996 -1.479,6.362c0.863,2.03 2.359,3.246 4.584,3.35c1.216,0.092 2.02,-0.141 3.066,-0.825c-0.329,-1.358 -0.3,-2.216 0.038,-3.575c0.925,-3.629 4.058,-5.866 7.8,-5.595c-1.171,0.562 -1.75,1.045 -2.592,2.05c-2.533,2.966 -2.825,6.837 -0.512,9.983c1.945,2.629 4.591,3.658 7.8,3.079c-0.496,-0.842 -0.655,-1.421 -0.684,-2.404c-0.016,-2.854 2.909,-4.575 5.8,-4.575c3.079,0.046 5.659,2.275 5.809,5.35c0.3,6.221 -5.025,5.754 -9.363,6.296c-2.817,0.412 -4.417,-0.579 -7.196,-1.121c-4.05,-0.775 -6.241,-1.646 -10.3,-2.367c-8.896,-1.654 -14.079,-2.496 -23.108,-2.029c-7.071,0.346 -11,1.542 -17.963,2.871c-11.254,2.162 -17.308,4.696 -28.541,6.971c-12.517,2.487 -19.638,4.762 -32.396,4.891c-13.658,0.18 -21.583,-0.908 -34.679,-4.704c1.412,2.496 1.954,4.125 2.404,6.934c0.242,1.591 0.225,2.508 0.225,4.087c-1.329,-3.229 -2.313,-4.958 -4.258,-7.8c-2.592,-3.862 -5.446,-5.004 -7.813,-9.017c-0.542,-0.97 -1.029,-1.466 -1.358,-2.545c-0.329,-1.142 -0.413,-1.88 -0.142,-3.042c0.196,-0.917 0.442,-1.458 1.008,-2.225c0,0.85 0.13,1.358 0.496,2.087c0.292,0.496 0.459,0.775 0.871,1.15l8.167,8.15c0.916,-5.62 0.729,-9.129 -0.813,-14.612c-1.179,-4.088 -2.216,-6.342 -4.629,-9.85c1.346,-3.65 1.767,-5.913 1.871,-9.85c0.067,-2.983 -0.104,-4.704 -0.804,-7.617c-1.788,1.067 -2.771,1.721 -4.454,2.946c-1.121,0.863 -1.984,1.142 -2.834,2.263c-0.991,1.291 -1.358,2.283 -1.591,3.908c-0.18,1.496 -0.092,2.404 0.354,3.817c-1.667,-1 -2.534,-1.963 -3.404,-3.725c-0.813,-1.684 -1.359,-2.9 -0.863,-4.725c0.392,-1.359 0.983,-2.038 2.05,-2.946c1.667,-1.45 3.313,-0.888 5.396,-1.579c1.954,-0.655 3.042,-1.075 4.937,-1.863c-0.083,-0.392 -0.179,-0.6 -0.329,-0.962c-0.179,-0.309 -0.308,-0.513 -0.525,-0.813c-2.816,-0.721 -4.546,-0.871 -7.483,-0.617c-1.6,0.142 -2.508,0.3 -4.042,0.713c-2.096,-2.35 -3.8,-3.45 -6.808,-4.396c-1.863,-0.6 -3.004,-0.721 -4.9,-0.683c-2.458,-2.134 -4.192,-3.079 -7.304,-3.946c-2.834,-0.767 -4.584,-0.429 -7.475,-0.429c-2.954,-0 -4.688,-0.338 -7.521,0.429c-3.104,0.871 -4.875,1.817 -7.288,3.946c-1.945,-0.038 -3.079,0.083 -4.937,0.683c-3.004,0.946 -4.725,2.05 -6.783,4.396c-1.58,-0.413 -2.488,-0.571 -4.059,-0.713c-2.937,-0.241 -4.658,-0.104 -7.491,0.617c-0.18,0.271 -0.271,0.45 -0.45,0.767c-0.18,0.404 -0.271,0.6 -0.405,1.008c1.9,0.788 2.992,1.208 4.938,1.863c2.087,0.691 3.725,0.129 5.396,1.579c1.096,0.908 1.666,1.591 2.037,2.946c0.504,1.825 -0.054,3.041 -0.871,4.725c-0.87,1.758 -1.691,2.72 -3.404,3.725c0.488,-1.413 0.55,-2.321 0.367,-3.817c-0.225,-1.629 -0.6,-2.608 -1.592,-3.908c-0.862,-1.121 -1.691,-1.405 -2.808,-2.263c-1.683,-1.233 -2.675,-1.9 -4.454,-3.042c-0.675,2.946 -0.85,4.696 -0.813,7.709c0.084,3.929 0.542,6.191 1.917,9.85c-2.458,3.508 -3.508,5.754 -4.688,9.85c-1.541,5.483 -1.72,8.991 -0.766,14.612l8.129,-8.15c0.404,-0.375 0.579,-0.654 0.85,-1.15c0.367,-0.721 0.504,-1.233 0.504,-2.087c0.579,0.766 0.813,1.3 1.021,2.225c0.242,1.171 0.15,1.9 -0.158,3.041c-0.338,1.075 -0.805,1.571 -1.375,2.546c-2.35,4.013 -5.213,5.154 -7.8,9.017c-1.955,2.846 -2.909,4.612 -4.267,7.8c-0.504,-1.104 -0.663,-1.825 -0.692,-3.042c0,-1.179 0.142,-1.862 0.571,-2.908c-4.333,-2.488 -6.746,-4.079 -10.721,-7.129c-3.808,-2.9 -6.221,-4.367 -9.337,-7.971c-3.725,-4.275 -8.084,-6.792 -7.484,-12.396c0.33,-2.908 2.03,-4.087 3.125,-6.8c1.359,-3.35 3.171,-5.175 3.005,-8.804c-0.167,-3.908 -1.375,-6.438 -4.23,-9.046c0.205,-2.246 -0.083,-3.712 -1.216,-5.754c-1.496,-2.771 -3.359,-4.163 -6.454,-4.9c1.045,1.75 1.345,3.042 1.208,5.079c-0.104,1.817 -0.513,2.908 -1.517,4.417c1.067,1.441 1.413,2.629 1.359,4.425c-0.084,2.096 -0.775,3.508 -2.405,4.921c0.505,-2.863 0.18,-4.763 -1.179,-7.296c-1.404,-2.592 -2.862,-3.959 -5.575,-5.1c-0.812,-3.621 -3.771,-5.979 -7.491,-5.942c-2.225,0.029 -3.675,0.638 -5.25,2.2c1.975,0.263 3.275,1.046 4.387,2.696c0.638,0.962 0.917,1.629 1.046,2.733c-0.775,0.504 -1.142,0.871 -1.721,1.554c-0.683,0.863 -0.992,1.45 -1.346,2.534c2.884,0.129 4.754,1.029 6.596,3.216c1.963,2.263 2.583,4.359 2.238,7.296c-0.588,-1.729 -1.142,-2.712 -2.367,-4.079c-3.042,-3.312 -6.671,-4.396 -11.05,-3.367c-1.75,-1.862 -3.563,-2.562 -6.1,-2.395c-2.667,0.179 -4.454,1.179 -5.942,3.404c1.721,0.075 2.771,0.404 4.221,1.358c1.142,0.692 1.683,1.246 2.442,2.321c-0.721,0.85 -1.084,1.396 -1.571,2.433c-1.046,2.188 -1.358,3.688 -1.188,6.1c0.18,2.675 0.646,4.425 2.367,6.446c1.863,2.188 3.621,3.546 6.463,3.404c0.916,-0.046 1.479,-0.216 2.387,-0.504c1,-0.308 1.496,-1.075 2.533,-0.971c2.534,0.3 3.413,3.704 0,4.875c-0.908,0.317 -1.45,-0.308 -2.387,-0.504c-1.171,-0.271 -1.75,-0.812 -2.917,-0.675c-1.554,0.129 -2.458,0.842 -3.441,2.029c-1.046,1.246 -1.405,2.284 -1.442,3.909c-1.15,0.345 -1.929,0.345 -3.067,-0c-0.85,-0.271 -1.358,-0.571 -2.037,-1.188c-0.579,2.188 -0.254,3.921 1.046,5.792c1.32,1.854 2.816,2.696 5.07,2.846c1.467,3.041 3.096,4.65 6.138,6.079c1.467,0.721 2.404,1.233 4.033,1.187c2.038,-0.054 2.946,-1.187 4.771,-2.05c1.217,-0.541 1.721,-1.358 3.067,-1.496c1.421,-0.179 2.366,0.055 3.546,0.813c1.683,1.142 2.433,2.592 2.366,4.583c-0.046,2.6 -1.946,3.959 -4.304,5.1c-1.767,0.804 -3.079,0.984 -4.996,0.579l4.221,3.946c1.458,1.321 2.358,2.029 4.125,2.863c1.863,0.85 3.088,1.262 5.125,1.262l0.804,-0.008c2.021,-0 3.171,-0 5.1,0.504c2.096,0.496 3.509,0.692 4.996,2.179l4.367,4.275c-1.096,-0.421 -1.779,-0.55 -2.954,-0.729c-0.963,-0.196 -1.496,-0.279 -2.459,-0.279l-1.029,-0c-2.225,-0 -3.5,-0.225 -5.687,-0.713c-1.667,-0.375 -2.571,-0.645 -4.163,-1.187l6.896,6.537c1.404,1.359 2.312,2.038 4.087,2.871c1.9,0.842 3.08,1.263 5.125,1.263l0.813,-0.009c1.992,0 3.171,0 5.137,0.505c2.03,0.495 3.442,0.72 4.975,2.17l4.455,4.275c-1.084,-0.412 -1.767,-0.55 -2.946,-0.72c-0.963,-0.18 -1.496,-0.234 -2.442,-0.234l-1.375,0c-2.217,0 -3.5,-0.271 -5.671,-0.712c-1.683,-0.413 -2.583,-0.646 -4.183,-1.246l7.979,7.129c1.008,0.917 1.592,1.45 2.817,2c1.321,0.588 2.133,0.908 3.546,0.908l9.487,0c-8.037,4.442 -10.167,6.755 -17.212,10.355c-7.68,3.929 -11.75,9.212 -20.375,8.654c-3.33,-0.225 -5.034,-1.359 -8.296,-2.05c-2.134,-0.45 -3.313,-0.992 -5.446,-1.029c-2.863,-0 -4.696,0.225 -7.121,1.72c-1.862,1.142 -2.796,2.038 -3.908,3.909c2.171,-0.775 3.621,-0.917 5.929,-0.504c2.533,0.412 4.012,1.141 5.958,2.862c-1.916,-0.412 -3.004,-0.55 -4.958,-0.504c-3.825,0.092 -6.333,0.421 -9.488,2.554c-3.079,2.133 -4.95,3.983 -5.8,7.663c-0.466,2.05 -0.466,3.366 0,5.408c-0.962,0.712 -1.45,1.233 -2.187,2.179c-1.233,1.554 -2.179,2.496 -2.225,4.454c-0.038,1.992 0.542,3.35 2.037,4.642c0.721,-2.133 1.767,-3.367 3.725,-4.454c1.321,-0.721 2.217,-0.992 3.763,-1.046c0.542,0.45 0.85,0.692 1.496,1.046c0.812,0.45 1.3,0.637 2.216,0.862l1.871,-2.216c-0.329,-3.6 0.413,-6.042 2.713,-8.859c2.712,-3.254 5.754,-4.612 10.029,-4.387c-3.958,1.083 -6.313,3.171 -7.813,6.933c-0.945,2.313 -1.083,3.854 -0.675,6.312c-1.766,0.909 -2.675,1.855 -3.545,3.621c-1.321,2.817 -1.142,5.35 0.645,7.896c1.121,-1.983 2.067,-2.991 3.9,-4.396c2.088,-1.541 3.538,-2.225 6.08,-2.721c1.32,0.405 2.087,0.542 3.45,0.692c2.029,0.217 3.229,0.167 5.229,-0.196c-0.825,-1.487 -1.096,-2.487 -1.196,-4.221c-0.179,-4.183 1.6,-7.662 5.446,-9.174c1.637,-0.617 2.704,-0.767 4.404,-0.488c-1.767,0.458 -2.771,1.046 -4.033,2.367c-2.013,1.991 -3.238,3.854 -2.734,6.625c0.367,2.125 1.234,3.441 3.042,4.575c1.179,0.721 2,1 3.404,1.046c-0.008,1.083 -0.083,1.666 -0.354,2.712c-0.271,1.271 -0.542,1.946 -1.179,3.133c2.712,-0.308 4.358,-1 6.446,-2.733c1.487,-1.233 2.2,-2.125 3.079,-3.808c1.404,-0.354 2.225,-0.775 3.387,-1.729c2.404,-1.946 3.809,-4.125 3.321,-7.205c-0.271,-1.908 -0.887,-3.041 -2.3,-4.312c-0.292,-2.675 1.9,-5.079 4.583,-5.125c2.825,-0 4.996,2.862 4.575,5.671c-0.141,0.954 -0.354,1.487 -0.937,2.275l8.25,-0.104c1.262,-0.038 2.029,-0.225 3.171,-0.813c1.321,-0.637 2.037,-1.179 2.771,-2.404l3.312,-5.492c0.6,-1.008 1.046,-1.541 2.05,-2.225c0.908,-0.683 1.488,-1.179 2.629,-1.141l5.95,0.045c-0.683,0.405 -1.046,0.675 -1.616,1.271c-0.459,0.504 -0.767,0.767 -1.113,1.404l-2.675,4.492c-0.825,1.404 -1.542,2.038 -2.712,3.133c-0.842,0.813 -1.375,1.217 -2.321,1.9l9.85,-0.179c1.321,0 2.087,-0.179 3.229,-0.766c1.262,-0.625 2,-1.225 2.771,-2.459l6.987,-10.9c-1.516,-1.321 -6.446,-3.712 -7.896,-7.8c-0.645,-1.721 -0.87,-2.817 -0.775,-4.667c0.046,-1.541 0.317,-2.404 0.871,-3.908c0.488,-1.45 1.225,-2.029 1.675,-3.479c0.367,-1.142 0.542,-1.767 0.588,-2.967c-0,-0.887 -0.038,-1.45 -0.271,-2.35l3.612,1.992c0.842,0.467 1.292,0.871 1.796,1.721c0.496,0.917 0.609,1.554 0.542,2.554c-0.054,1.046 -0.504,1.533 -0.813,2.533c-0.57,1.63 -1.283,2.405 -1.458,4.125c-0.167,1.675 -0.129,2.817 0.6,4.396c0.871,2 2.263,2.6 3.983,4.013c2.188,1.758 3.63,2.571 6.221,3.658l0,-15.596l5.754,0l0,14.409c0,1.329 0.142,2.133 0.825,3.237c0.542,0.983 1.038,1.525 2.03,2.029l4.591,2.225c1.629,0.767 2.796,0.767 4.575,0.675c1.45,-0.075 2.263,-0.308 3.592,-0.85l8.271,-3.591c-1.046,0.129 -1.684,0.091 -2.734,-0.18c-1.141,-0.27 -1.645,-0.833 -2.695,-1.412l-10.7,-5.708c1.283,-1.046 1.862,-2.188 2.35,-3.863c0.466,-1.412 0.466,-2.321 0.383,-3.808c-0.142,-1.459 -0.55,-2.188 -0.871,-3.584c-0.204,-0.87 -0.496,-1.329 -0.496,-2.187c-0.054,-0.908 0,-1.404 0.309,-2.225c0.3,-0.675 0.45,-1.142 1.083,-1.533l4.575,-3.042c-0.129,0.775 -0.179,1.217 -0.179,2.037c-0,1 0.141,1.542 0.337,2.534c0.254,1.225 0.713,1.816 1.021,3.041c0.329,1.321 0.504,2.096 0.504,3.413c0.054,2.571 -0.391,4.125 -1.525,6.437l11.05,6.13c1.096,0.579 1.788,0.954 3.05,1.045c1.217,0.13 1.946,0.084 3.079,-0.366l10.167,-3.996c-1.075,0.179 -1.742,0.129 -2.733,-0.142c-1.179,-0.308 -1.684,-0.812 -2.713,-1.412l-10.525,-5.754c-0.646,-0.355 -1.046,-0.45 -1.691,-0.675c-0.721,-0.271 -1.121,-0.467 -1.9,-0.692c0.504,-0.775 0.6,-1.225 0.87,-2.038c0.405,-1.179 0.638,-1.862 0.85,-3.079c0.505,-2.779 0.18,-4.5 -0.354,-7.266c-0.496,-2.9 -1.854,-4.221 -2.321,-7.121c-0.27,-0.813 -0.354,-1.321 -0.308,-2.171c0.017,-0.871 -0.142,-1.554 0.496,-2.088l5.546,-4.641c-0.142,0.825 -0.196,1.321 -0.142,2.187c0,0.675 0.017,1.046 0.142,1.721c0.271,1.3 0.85,1.946 1.358,3.217c0.542,1.321 0.85,2.087 1.358,3.441c0.909,-0.862 1.396,-1.395 2.2,-2.441c1.384,-1.721 2.2,-2.771 2.871,-4.892c0.6,-1.729 0.775,-2.817 0.7,-4.65c-0.141,-1.892 -0.291,-3.079 -1.321,-4.658l-2.741,-4.05c-0.654,-0.992 -0.888,-1.759 -0.983,-2.938c-0.142,-1.6 0.329,-2.496 0.983,-3.996l2.741,-6.312c-0.354,1.142 -0.458,1.9 -0.316,3.087c0.112,0.863 0.233,1.413 0.625,2.179l2.187,4.125l2.809,3.676l2.771,6.399c0.404,2.313 0.404,3.713 -0,6.025c-0.563,2.863 -1.496,4.313 -3.005,6.859c-2.441,4.125 -6.845,7.579 -8.345,9.075c-0,-0 0.158,1.187 0.141,1.954c-0.046,1.9 -0.412,2.983 -1.179,4.771l14.229,7.604c1.142,0.608 1.825,0.954 3.067,1.096c1.208,0.091 2.029,0.179 3.125,-0.413l6.942,-3.712c-1.009,0.346 -1.78,0.308 -2.721,-0.179c-1.075,-0.505 -1.45,-1.284 -1.863,-2.367c-0.992,-2.675 1.038,-5.304 3.379,-6.446c9.513,-4.583 19.45,-8.037 31.584,-13.704c13.637,-6.408 20.441,-11.929 34.462,-17.467c7.567,-2.954 11.638,-6.587 19.784,-6.587c5.05,-0 8.429,-0.084 12.733,2.629c2.087,1.337 3.283,2.187 4.642,4.229c1.216,1.817 1.562,3.042 2.037,5.125c1.179,5.033 -2.237,7.979 -1.712,13.067c0.637,5.754 1.741,9.354 5.445,13.75c3.088,3.666 5.921,4.666 10.142,6.979c2.833,1.496 5.267,1.083 7.521,3.404c1.058,1.046 1.787,1.721 2.2,3.217c0.337,1.179 0.337,2.012 -0,3.229c2.35,0.037 3.733,-0.179 5.929,-1.046c3.313,-1.262 5.138,-2.667 7.129,-5.575l9.15,-0.008c0.888,1.541 1.171,2.583 1.196,4.358c0.029,1.992 0,3.5 -1.358,4.975c-1.413,1.496 -2.954,1.358 -4.967,1.683c-2.817,0.45 -4.454,-0.766 -7.304,-0.691c-3.192,0.141 -5.275,-0.038 -8.1,1.554c-3.154,1.767 -4.704,3.712 -5.95,7.129c-0.775,2.254 -0.946,3.713 -0.675,6.071c-1.292,0.871 -1.954,1.554 -2.713,2.908c-1.479,2.675 -1.479,5.125 0,7.8c1.45,-1.666 2.405,-2.554 4.259,-3.712c1.487,-0.992 2.404,-1.458 4.058,-2.038c0.204,-4.9 2.638,-8.391 7.129,-10.346c2.629,-1.141 4.509,-1.32 7.304,-0.675c-3.275,0.675 -5.2,1.759 -7.466,4.221c-2.909,3.171 -3.984,6.079 -3.742,10.375c-0.925,1.263 -1.225,2.313 -1.142,3.863c0.121,1.721 0.609,2.771 1.817,3.946c2.313,-3.817 4.854,-5.717 9.175,-6.8c2.188,-0.542 3.538,-0.638 5.783,-0.367c-0.983,-3.638 -0.354,-6.538 2.021,-9.488c2.509,-3.087 5.446,-4.312 9.384,-3.908c-2.33,0.675 -3.688,1.592 -5.146,3.546c-1.338,1.862 -2.059,3.312 -1.854,5.633c0.225,2.534 1.245,4.221 3.404,5.575c-0.092,1.263 0.029,2.088 0.487,3.217c0.534,1.271 1.046,1.954 2.096,2.771c0.367,-1.767 0.908,-2.817 2.179,-4.125c0.888,-0.917 1.534,-1.321 2.684,-1.863c1.916,-0.812 3.245,-0.271 5.295,-0.691c3.405,-0.617 5.892,-0.217 8.475,-2.534c1.9,-1.683 2.9,-3.133 3.255,-5.679c0.487,-3.267 -0.459,-5.708 -2.917,-7.896c0.512,-3.35 0.637,-5.25 0.512,-8.662c-0.129,-3.538 -0.412,-5.529 -1.254,-8.979l1.075,0.008c1.075,-0 1.321,0.142 2.742,0.504c1.029,0.217 2.246,1.358 2.975,2.771c0.512,-1.917 0.579,-3.133 0.271,-5.079l0.008,0.029l0.021,0.008Zm-219.425,-91.07c-0.104,1.495 -0.6,2.675 -1.729,3.945c-1.217,1.359 -2.225,2.134 -3.854,2.134l-4.034,-0c1.046,1.029 1.909,1.833 1.909,3.5c-0,2.133 -1.721,3.854 -3.855,3.854c-2.133,-0 -3.854,-1.721 -3.854,-3.854c0,-1.104 0.45,-2.067 1.179,-2.771l0.721,-0.721l-4.396,0c-1,0 -1.591,0.542 -2.358,1.321l0,-1.084c0,-0.683 -0.046,-1.254 0,-1.804c0.092,-1.141 1.142,-2.433 2.358,-2.433l12.884,-0c1.766,-0 3.762,-0.813 5.041,-2.088l-0.012,0Zm-13.921,-15.604c0.7,0 1.113,0.179 1.713,0.525c0.608,0.338 0.908,0.609 1.358,1.196l4.183,5.396c0.309,0.404 0.367,0.721 0.675,1.046c0.459,0.404 0.796,0.55 1.367,0.675l-3.388,-0c-1.02,-0 -1.637,-0.179 -2.562,-0.675c-0.863,-0.525 -1.233,-1.046 -1.854,-1.863l-3.379,-4.454c-0.292,-0.404 -0.442,-0.637 -0.805,-1c-0.45,-0.412 -0.737,-0.579 -1.245,-0.85l3.937,-0.008l0,0.012Zm-13.629,-2.058c0.983,-0 1.592,0.329 2.442,0.879c0.729,0.442 1.12,0.804 1.629,1.542l4.95,7.121c0.329,0.412 0.504,0.637 0.871,0.991c0.6,0.579 0.991,0.871 1.72,1.217l-4.529,0.008c-1.046,0 -1.75,-0.225 -2.583,-0.862c-0.663,-0.496 -0.842,-0.992 -1.271,-1.721l-4.087,-6.267c-0.405,-0.637 -0.638,-0.991 -1.188,-1.541c-0.767,-0.684 -1.3,-1.021 -2.275,-1.367l4.333,-0.008l-0.008,0.008l-0.004,-0Zm-11.254,2.058c0.683,0 1.083,0.179 1.666,0.525c0.638,0.338 0.963,0.609 1.375,1.196l4.221,5.396c0.271,0.404 0.329,0.721 0.675,1.046c0.421,0.404 0.775,0.55 1.346,0.675l-3.379,-0c-1.046,-0 -1.684,-0.179 -2.534,-0.675c-0.916,-0.525 -1.283,-1.046 -1.879,-1.863l-3.341,-4.454c-0.309,-0.404 -0.505,-0.637 -0.871,-1c-0.429,-0.412 -0.721,-0.579 -1.234,-0.85l3.959,-0.008l-0,0.008l-0.004,0.004Zm-4.825,17.692l12.845,-0c0.775,-0 1.234,0.367 1.825,1.075c0.788,0.917 0.542,2.037 0.542,3.154l-0.112,0.971c-0.663,-0.654 -1.209,-1.196 -2.255,-1.196l-4.395,0c1.104,1.029 1.916,1.833 1.916,3.5c0,2.133 -1.729,3.854 -3.845,3.854c-2.105,0 -3.825,-1.721 -3.825,-3.854c-0,-1.104 0.404,-2.067 1.141,-2.771l0.767,-0.721l-4.042,0c-1.675,0 -2.621,-0.775 -3.854,-2.133c-1.142,-1.271 -1.683,-2.442 -1.729,-3.946c1.233,1.271 3.237,2.088 5.033,2.088l-0.008,-0.017l-0.004,-0.004Zm-5.342,70.292l-1.542,4.454c-0.45,1.254 -0.504,2.087 -0.737,3.387c-0.413,2.817 -0.496,4.396 -0.292,7.213c-0.841,-0.675 -1.291,-1.142 -2.021,-1.946c-0.775,-0.871 -1.083,-1.396 -1.72,-2.3c-1.405,-2.188 -2,-3.546 -2.855,-5.904l-0.179,-0.775c-2.508,-0.775 -6.408,-1.046 -8.533,-3.713c-1.963,-2.458 -2.142,-4.5 -2.592,-7.596c-0.412,-2.57 -0.412,-4.125 0,-6.716l2.404,-7.063l2.434,-4.133l1.916,-4.538c0.355,-0.908 0.45,-1.495 0.542,-2.458c0.129,-1.3 0.067,-2.133 -0.271,-3.404l3.359,5.125c0.812,1.283 0.862,2.283 0.862,3.725c0.029,1.592 -0.092,2.6 -0.862,4.004l-3.359,6.35c-0.962,1.817 -1.046,3.088 -1.141,5.175c-0.092,1.992 -0.309,3.321 0.562,5.125c1.346,2.809 3.471,4.221 6.558,4.454c0.038,-1.32 0.092,-2.087 0.338,-3.358c0.254,-1.45 0.75,-2.188 0.983,-3.637c0.084,-0.638 0.129,-0.992 0.179,-1.667c0,-0.871 -0.046,-1.358 -0.179,-2.225l5.575,7.979c0.6,0.825 0.625,1.45 0.684,2.404c0.083,0.813 0.083,1.308 -0.142,2.038l0.029,0.008l0,-0.008Zm55.333,-55.538c-1.066,1.909 -1.983,2.9 -3.741,4.229c-1.863,1.421 -3.275,1.629 -5.417,2.554c-0.487,0.217 -0.804,0.167 -1.208,0.525c-0.45,0.405 -0.45,0.909 -0.684,1.488c-0.329,1.008 -0.179,1.592 -0.504,2.592c-0.404,1.233 -0.675,2.012 -1.517,3.041c-1.158,1.367 -2.162,2 -3.92,2.404c-0.03,2.496 -0.142,3.959 -0.45,6.455c-0.367,2.983 -0.738,4.658 -1.525,7.604c0.479,0.916 0.7,1.496 1.02,2.496c0.505,1.629 0.663,2.583 0.6,4.304c-0.083,2.366 -0.233,3.946 -1.675,5.808c-2.808,3.629 -7.108,1.225 -11.654,1.225c-4.591,0 -8.904,2.404 -11.712,-1.225c-1.45,-1.862 -1.592,-3.442 -1.684,-5.808c-0.045,-1.721 0.105,-2.675 0.58,-4.304c0.329,-1 0.55,-1.58 1.045,-2.496c-0.812,-2.946 -1.12,-4.613 -1.533,-7.604c-0.329,-2.496 -0.421,-3.959 -0.45,-6.455c-1.767,-0.404 -2.771,-1.037 -3.908,-2.404c-0.85,-1.029 -1.142,-1.816 -1.534,-3.041c-0.308,-0.992 -0.179,-1.571 -0.495,-2.592c-0.234,-0.579 -0.196,-1.083 -0.684,-1.488c-0.366,-0.354 -0.729,-0.308 -1.187,-0.524c-2.179,-0.917 -3.575,-1.121 -5.434,-2.555c-1.766,-1.337 -2.675,-2.329 -3.725,-4.229c-1.216,-2.171 -1.908,-3.65 -1.72,-6.117c0.129,-1.412 0.179,-1.72 0.541,-3.087c0.204,-0.721 0.625,-1.533 0.954,-2.188c0.392,-0.729 0.767,-1.075 1.359,-1.666c0.637,-0.638 1.083,-0.963 1.862,-1.359l0,7.025c0,2.609 0.496,4.275 2.029,6.371c1.413,1.938 2.75,2.713 4.959,3.763c2.125,0.983 3.537,1.3 5.941,1.358c-0.179,1.629 -0.083,2.621 0.33,4.221c0.45,1.629 0.6,2.808 1.862,3.892c1.271,1.104 2.421,1.141 4.079,1.187c1.592,0.083 2.554,-0.083 4.004,-0.775c1.121,-0.542 2.405,-0.683 2.638,-1.9c0.075,-0.542 -0,-0.871 -0.196,-1.358c-0.329,-1.084 -1.217,-1.338 -1.817,-2.284c-0.495,-0.812 -0.812,-1.3 -1.083,-2.225c-0.292,-0.87 -0.504,-1.404 -0.367,-2.262c0.075,-0.683 -0.045,-1.617 0.638,-1.617l9.392,-0.008c0.675,-0 0.541,0.937 0.654,1.617c0.158,0.85 -0.113,1.395 -0.392,2.262c-0.271,0.917 -0.571,1.404 -1.083,2.225c-0.6,0.946 -1.496,1.188 -1.825,2.283c-0.159,0.488 -0.271,0.813 -0.179,1.359c0.233,1.216 1.495,1.358 2.637,1.9c1.45,0.683 2.396,0.871 3.983,0.775c1.675,-0.054 2.817,-0.092 4.088,-1.188c1.262,-1.083 1.421,-2.262 1.862,-3.9c0.45,-1.591 0.496,-2.583 0.367,-4.221c2.35,-0.045 3.763,-0.375 5.913,-1.358c2.216,-1.046 3.516,-1.825 4.929,-3.762c1.541,-2.096 2.037,-3.75 2.037,-6.363l0,-7.025c0.775,0.404 1.217,0.721 1.863,1.358c0.608,0.6 0.991,0.946 1.358,1.667c0.317,0.654 0.767,1.458 0.954,2.188c0.404,1.375 0.429,1.683 0.542,3.095c0.188,2.48 -0.504,3.946 -1.704,6.117l-0.013,0Z" style="fill:#003087;"/></g><path d="M238.5,387.542c0.067,3.229 -0.225,6.483 -0.85,9.625c-2.458,-0.675 -4.817,-0.646 -7.333,-0.675c-2.471,-0.009 -4.921,0.075 -7.334,0.616c-0.737,-3.62 -0.887,-7.212 -0.85,-10.925l3.313,3.946c0.308,-0.637 1.721,-4.183 2.496,-4.416l0.179,-0.038c0.925,0.504 1.179,0.45 2.225,0.45c1.067,0 1.321,0 2.312,-0.487c0.871,0.354 1.396,2.087 1.759,2.825c0.291,0.608 0.55,1.216 0.75,1.683l3.341,-3.975l0,1.367l-0.008,0.004Z" style="fill:#003087;fill-rule:nonzero;"/><path d="M348.85,339.083c-5.696,1.075 -9.008,1.384 -14.808,1.367c-9.871,-0.029 -15.117,-4.733 -24.95,-4.117c-5.575,0.338 -8.98,0.3 -14.013,2.667c-5.658,2.675 -9.429,4.996 -12.004,10.738c-2.358,5.304 -2.508,9.458 -0.467,14.904c1.992,5.221 5.621,8.025 9.796,10.571c6.175,3.808 10.504,3.658 17.738,4.22c10.196,0.805 15.771,-1.345 25.596,-3.546c8.429,-1.899 12.92,-3.945 21.187,-6.349c8.917,-2.592 13.967,-4.005 22.937,-6.388c3.592,-3.517 5.784,-5.371 9.85,-8.308c4.238,-3.067 6.809,-4.613 11.488,-6.959l-0.392,-2.883c-8.766,1.729 -13.666,2.883 -22.3,5.25c-10.72,2.975 -16.483,5.658 -27.158,8.829c-9.496,2.796 -14.771,4.875 -24.521,6.596c-5.5,1 -8.608,2.133 -14.192,1.825c-4.854,-0.271 -8.52,0.496 -12.237,-2.675c-1.871,-1.592 -3.246,-2.675 -3.688,-5.071c-0.308,-1.637 -0.441,-2.883 0.505,-4.258c0.85,-1.217 1.9,-1.804 3.404,-1.863c1.908,-0.037 3.441,0.917 4.079,2.734c0.504,1.629 0.092,3.116 -1.217,4.237c2.05,0.196 3.267,0.158 5.267,-0.179c2.404,-0.375 4.079,-0.242 5.867,-1.863c1.654,-1.466 2.433,-2.87 2.458,-5.087c0.029,-2.6 -1.083,-4.35 -3.192,-5.817c-1.396,-0.946 -2.404,-1.262 -4.087,-1.321c2.458,-0.812 4.296,-0.654 6.612,0.513c1.209,0.617 1.871,1.112 2.713,2.217c1.321,1.729 1.729,3.266 1.441,5.416c4.313,-0.354 6.809,-0.983 10.767,-2.658c4.042,-1.729 5.988,-3.413 9.533,-5.996c3.284,-2.421 5.063,-3.929 8.009,-6.754l-0.029,0.008l0.008,0Z" style="fill:#003087;"/><path d="M230.379,400.75c-2.9,0 -5.033,0 -7.166,1.954c-0.58,0.488 -0.955,0.813 -1.321,1.488c-0.767,1.404 -0.625,2.666 0.029,4.133c1.383,2.983 5.125,0.992 8.466,0.992c3.313,-0 7.034,1.991 8.446,-0.992c0.646,-1.479 0.767,-2.733 0,-4.133c-0.375,-0.675 -0.737,-1 -1.291,-1.488c-2.171,-1.954 -4.296,-1.954 -7.146,-1.954l-0.017,0Z" style="fill:#003087;"/><path d="M385.304,417.308c-1.75,1.825 -3.246,2.705 -3.975,5.125c-0.504,1.63 -0.233,4.359 -0.233,4.359l0.329,3.341c0.142,1.459 0.067,2.313 -0.346,3.725c-0.337,1.234 -0.533,2.038 -1.421,3.005l-6.408,6.762c0.804,-1.383 1.113,-2.283 1.346,-3.883c0.233,-1.579 0.412,-2.609 -0.179,-4.117l-2.113,-5.304c-0.354,-0.871 -0.083,-1.496 0.054,-2.442c0.105,-0.766 0.18,-1.029 0.467,-1.937l-3.592,3.825c-0.879,0.971 -1.358,1.591 -1.766,2.846c-0.429,1.383 -0.609,2.329 -0.15,3.704l2.225,6.537c0.391,1.113 0.179,1.879 -0.105,3.067c-0.42,1.6 -1.037,2.442 -2.187,3.658l-6.388,6.754c0.813,-1.358 1.096,-2.262 1.338,-3.845c0.242,-1.592 0.421,-2.63 -0.196,-4.125l-2.087,-5.071c-0.367,-0.871 -0.075,-1.479 0.054,-2.404c0.112,-0.775 0.179,-1.046 0.479,-1.946l-3.6,3.712c-0.887,0.963 -1.358,1.579 -1.758,2.846c-0.45,1.358 -0.609,2.321 -0.159,3.704l2.225,6.55c0.375,1.121 0.159,1.9 -0.12,3.042c-0.413,1.629 -1.021,2.496 -2.188,3.675l-6.388,6.808c0.588,-1.083 0.842,-1.766 1.046,-2.946c0.254,-1.495 0.254,-2.45 -0.166,-3.945l-1.555,-5.596c-1.283,1.591 -2.095,2.441 -3.612,3.816c-2,1.78 -3.246,2.667 -5.558,4.013c-0.242,2.162 -0.7,3.433 -1.863,5.237c-1.442,2.3 -2.75,3.359 -5.1,4.63c-2.917,1.616 -5.1,2.037 -8.392,1.683c0.85,-1.646 1.084,-2.771 0.925,-4.583c-0.141,-1.646 -0.329,-2.721 -1.404,-3.909c-0.937,-1.046 -1.779,-1.496 -3.179,-1.729c0.292,0.738 0.429,1.171 0.7,1.9c0.338,0.917 0.504,1.45 0.842,2.367c-1.479,2.187 -2.471,3.366 -4.417,5.137c-1.929,1.767 -3.133,2.629 -5.408,3.854c-1.713,-0.054 -2.713,-0.091 -4.434,-0.158c-1.32,-0.075 -2.095,-0.392 -3.404,-0.158c-1.554,0.225 -2.366,0.675 -3.725,1.487c-1.766,1.142 -2.696,2.05 -3.808,3.863c-0.683,-2.238 -0.871,-3.592 -0.775,-5.884c0.179,-3.92 0.812,-6.558 3.404,-9.504c1.542,-1.766 2.713,-2.629 4.9,-3.583c-3.725,0.487 -5.987,1.767 -8.483,4.575c-1.767,2.096 -2.496,3.637 -3.042,6.312c-2,0.542 -3.133,1 -4.9,2.038c-2.321,1.292 -3.546,2.262 -5.267,4.221c-1.233,-2.134 -1.479,-3.854 -0.85,-6.267c0.405,-1.692 0.917,-2.712 2.188,-3.908c0.804,-0.775 1.346,-1.142 2.396,-1.542c0.908,-2 1.579,-3.079 3.041,-4.771c2.35,-2.675 4.163,-3.929 7.492,-5.25c-2.404,-0.271 -3.908,-0.091 -6.129,0.85c-2.179,0.946 -3.229,1.963 -4.763,3.725c-1.404,1.713 -2.037,2.863 -2.675,4.95c-2.095,0.588 -3.275,1.096 -5.125,2.209c-1.862,1.112 -2.862,1.87 -4.395,3.412c-0.917,-1.45 -1.142,-2.533 -1.009,-4.258c0.142,-2 0.871,-3.088 2.134,-4.592c1.32,-1.542 2.404,-2.262 4.304,-2.9c0.45,-3.229 1.233,-5.137 3.229,-7.762c1.954,-2.534 3.508,-3.838 6.446,-5.109c2.283,-0.991 3.725,-1.262 6.191,-1.358c3.705,-0.142 5.65,1.308 9.234,2.162c3.179,0.738 4.891,1.992 8.166,1.917c3.613,-0.112 5.905,-0.75 8.821,-2.908c2.734,-1.992 4.034,-3.75 5.175,-6.921c1.384,-0.542 2.134,-1.008 3.313,-1.863c1.358,-1.066 2.058,-1.816 3.041,-3.237c-2.387,1.096 -3.845,1.592 -6.445,2.029c-2.884,0.504 -4.605,0.525 -7.505,0.167c0.617,-0.775 0.971,-1.234 1.555,-2.05c3.087,-4.296 2.77,-7.888 5.604,-12.367c2.433,-3.817 3.816,-6.117 7.325,-8.979c5.071,-4.183 9.25,-4.725 15.604,-6.454c4.096,-1.121 6.662,-0.675 10.712,-2.029c2.096,-0.738 3.696,-0.617 5.238,-2.225c1.083,-1.105 1.667,-1.955 1.871,-3.5c0.158,-1.18 0.066,-1.9 -0.392,-3.005c2.667,-1.495 4.334,-2.087 7.325,-2.629c3.658,-0.637 5.921,-0.571 9.542,0.367c2.2,0.542 3.562,0.842 5.416,2.133c1.892,1.309 3.005,2.263 3.909,4.396c1.142,2.6 1.142,4.696 -0,7.325c-2.758,1.629 -4.221,2.808 -6.446,5.117l-0.017,0.016l-0.004,0Z" style="fill:#003087;"/><g><path d="M474.121,442.942c-0.271,-1.842 -0.496,-2.992 -1.629,-4.463c-1.171,-1.45 -2.771,-2.087 -4.021,-2.666c-1.209,-0.542 -3.675,-0.888 -4.996,-0.888l-1.542,0c-1.421,0 -2.262,0.067 -3.629,-0.337c-1.337,-0.367 -2.216,-0.542 -3.171,-1.555l-4.641,-4.875c0.645,0.279 1.112,0.346 1.854,0.488c0.646,0.129 1.008,0.167 1.646,0.167l6.65,0.008c1.458,-0 2.291,0.179 3.712,0.504c1.046,0.271 1.6,0.45 2.609,0.863l-3.555,-5.65c-0.841,-1.321 -1.337,-2.171 -2.62,-3.042c-1.292,-0.909 -2.238,-1.358 -3.855,-1.358l-8.308,-0c-1.358,-0 -2.246,0.091 -3.462,-0.542c-1.171,-0.6 -1.563,-1.321 -2.396,-2.321l-3.621,-4.575c0.812,0.45 1.346,0.579 2.237,0.767c0.767,0.179 1.188,0.27 1.955,0.27l7.287,0c1.767,0 2.796,0.271 4.479,0.776c1.246,0.404 1.938,0.675 3.096,1.329l-6.754,-8.85c-0.713,-0.909 -1.158,-1.413 -2.163,-1.992c-1.141,-0.637 -1.929,-0.871 -3.237,-0.871l-6.425,-0.008c-1.263,-0 -2.029,-0.046 -3.171,-0.542c-1.158,-0.541 -1.871,-0.962 -2.496,-2.037l-5.35,-9.009c4.35,-0.029 6.934,-0.533 10.975,-2.216c4.696,-1.938 7.617,-3.45 10.571,-7.579c2.975,-4.184 3.929,-7.484 3.742,-12.6c-0.18,-4.305 -1.046,-6.896 -3.388,-10.542c-2.216,-3.413 -4.192,-4.921 -7.604,-7.121c-3.413,-2.246 -5.904,-2.458 -9.663,-4.088c-4.283,-1.854 -8.745,-0.712 -10.962,-4.837c-1.021,-1.929 -1.767,-3.413 -1.113,-5.5c0.646,-1.954 1.767,-3.104 3.705,-3.742c-4.584,-1.666 -8.038,-1.579 -12.525,0.375c-3.105,1.346 -5.125,2.459 -6.83,5.396c-1.854,3.217 -2.141,5.95 -1.02,9.496c-4.367,2.225 -6.725,3.704 -10.675,6.625c-5.446,4.033 -8.288,6.717 -12.667,11.892c4.221,-1.067 6.65,-1.488 10.962,-2.038c3.884,-0.496 6.109,-0.637 10.03,-0.675c-0.18,-2.225 0.112,-3.629 1.179,-5.604c1.916,-3.575 4.825,-5.35 8.866,-5.446c-1.766,0.713 -2.712,1.479 -3.825,3.029c-1.458,2.05 -2.458,3.984 -1.479,6.305c0.863,2.066 2.359,3.283 4.584,3.379c1.216,0.075 2.02,-0.129 3.066,-0.813c-0.329,-1.358 -0.3,-2.216 0.038,-3.575c0.925,-3.621 4.058,-5.883 7.8,-5.604c-1.171,0.571 -1.75,1.046 -2.592,2.029c-2.533,2.975 -2.825,6.867 -0.512,10.021c1.945,2.629 4.591,3.658 7.8,3.05c-0.496,-0.842 -0.655,-1.421 -0.684,-2.387c-0.016,-2.855 2.909,-4.575 5.8,-4.575c3.079,0.037 5.659,2.262 5.809,5.349c0.3,6.184 -5.025,5.734 -9.363,6.296c-2.817,0.392 -4.417,-0.579 -7.196,-1.12c-4.05,-0.776 -6.241,-1.646 -10.3,-2.367c-8.896,-1.654 -14.079,-2.496 -23.108,-2.038c-7.071,0.354 -11,1.555 -17.963,2.884c-11.254,2.162 -17.308,4.695 -28.541,6.958c-12.517,2.496 -19.638,4.779 -32.396,4.9c-13.658,0.179 -21.583,-0.908 -34.679,-4.704c1.412,2.487 1.954,4.079 2.404,6.933c0.242,1.592 0.225,2.496 0.225,4.088c-1.329,-3.238 -2.313,-4.959 -4.258,-7.813c-2.592,-3.854 -5.446,-5.025 -7.813,-9.029c-0.542,-0.946 -1.029,-1.45 -1.358,-2.533c-0.329,-1.142 -0.413,-1.863 -0.142,-3.042c0.196,-0.925 0.442,-1.458 1.008,-2.217c0,0.863 0.13,1.359 0.496,2.067c0.292,0.504 0.459,0.775 0.871,1.142l8.167,8.166c0.916,-5.612 0.729,-9.121 -0.813,-14.604c-1.179,-4.071 -2.216,-6.342 -4.629,-9.833c1.346,-3.675 1.767,-5.959 1.871,-9.85c0.067,-3.004 -0.104,-4.704 -0.804,-7.654c-1.788,1.075 -2.771,1.72 -4.454,2.975c-1.121,0.825 -1.984,1.141 -2.834,2.237c-0.991,1.292 -1.358,2.292 -1.591,3.908c-0.18,1.488 -0.092,2.405 0.354,3.825c-1.667,-1.02 -2.534,-1.962 -3.404,-3.741c-0.813,-1.675 -1.359,-2.909 -0.863,-4.717c0.392,-1.337 0.983,-2.05 2.05,-2.967c1.667,-1.412 3.313,-0.87 5.396,-1.57c1.954,-0.675 3.042,-1.075 4.937,-1.863c-0.083,-0.375 -0.179,-0.6 -0.329,-0.925c-0.179,-0.346 -0.308,-0.562 -0.525,-0.842c-2.816,-0.712 -4.546,-0.87 -7.483,-0.608c-1.6,0.129 -2.508,0.3 -4.042,0.721c-2.096,-2.367 -3.8,-3.479 -6.808,-4.425c-1.863,-0.571 -3.004,-0.721 -4.9,-0.654c-2.458,-2.15 -4.192,-3.104 -7.304,-3.959c-2.834,-0.766 -4.584,-0.441 -7.475,-0.441c-2.954,-0 -4.688,-0.329 -7.521,0.441c-3.104,0.85 -4.875,1.805 -7.288,3.959c-1.945,-0.067 -3.079,0.083 -4.937,0.654c-3.004,0.946 -4.725,2.058 -6.783,4.425c-1.58,-0.429 -2.488,-0.6 -4.059,-0.721c-2.937,-0.262 -4.658,-0.104 -7.491,0.608c-0.18,0.28 -0.271,0.459 -0.45,0.796c-0.18,0.346 -0.271,0.588 -0.405,0.971c1.9,0.788 2.992,1.188 4.938,1.863c2.087,0.7 3.725,0.158 5.396,1.562c1.096,0.917 1.666,1.629 2.037,2.967c0.504,1.816 -0.054,3.041 -0.871,4.725c-0.87,1.766 -1.691,2.712 -3.404,3.741c0.488,-1.433 0.55,-2.337 0.367,-3.825c-0.225,-1.616 -0.6,-2.62 -1.592,-3.908c-0.862,-1.096 -1.691,-1.404 -2.808,-2.237c-1.683,-1.263 -2.675,-1.93 -4.454,-3.059c-0.675,2.938 -0.85,4.696 -0.813,7.725c0.084,3.892 0.542,6.184 1.917,9.842c-2.458,3.5 -3.508,5.771 -4.688,9.833c-1.541,5.492 -1.72,8.992 -0.766,14.613l8.129,-8.167c0.404,-0.367 0.579,-0.637 0.85,-1.142c0.367,-0.712 0.504,-1.216 0.504,-2.066c0.579,0.75 0.813,1.283 1.021,2.216c0.242,1.18 0.15,1.9 -0.158,3.042c-0.338,1.083 -0.805,1.592 -1.375,2.533c-2.35,4.013 -5.213,5.175 -7.8,9.03c-1.955,2.854 -2.909,4.604 -4.267,7.812c-0.504,-1.142 -0.663,-1.862 -0.692,-3.087c0,-1.121 0.142,-1.817 0.571,-2.863c-4.333,-2.533 -6.746,-4.096 -10.721,-7.129c-3.808,-2.9 -6.221,-4.379 -9.337,-7.979c-3.725,-4.275 -8.084,-6.809 -7.484,-12.396c0.33,-2.9 2.03,-4.088 3.125,-6.771c1.359,-3.387 3.171,-5.2 3.005,-8.842c-0.167,-3.862 -1.375,-6.4 -4.23,-8.991c0.205,-2.3 -0.083,-3.763 -1.216,-5.771c-1.496,-2.779 -3.359,-4.2 -6.454,-4.929c1.045,1.758 1.345,3.05 1.208,5.079c-0.104,1.825 -0.513,2.908 -1.517,4.425c1.067,1.442 1.413,2.608 1.359,4.396c-0.084,2.133 -0.775,3.546 -2.405,4.929c0.505,-2.854 0.18,-4.754 -1.179,-7.296c-1.404,-2.6 -2.862,-3.946 -5.575,-5.1c-0.812,-3.621 -3.771,-5.979 -7.491,-5.942c-2.225,0.03 -3.675,0.638 -5.25,2.217c1.975,0.242 3.275,1.029 4.387,2.704c0.638,0.938 0.917,1.6 1.046,2.721c-0.775,0.488 -1.142,0.842 -1.721,1.533c-0.683,0.871 -0.992,1.467 -1.346,2.546c2.884,0.129 4.754,1.046 6.596,3.229c1.963,2.255 2.583,4.334 2.238,7.288c-0.588,-1.75 -1.142,-2.683 -2.367,-4.042c-3.042,-3.341 -6.671,-4.441 -11.05,-3.366c-1.75,-1.863 -3.563,-2.571 -6.1,-2.434c-2.667,0.179 -4.454,1.209 -5.942,3.413c1.721,0.083 2.771,0.412 4.221,1.358c1.142,0.7 1.683,1.246 2.442,2.329c-0.721,0.871 -1.084,1.413 -1.571,2.404c-1.046,2.188 -1.358,3.705 -1.188,6.13c0.18,2.658 0.646,4.395 2.367,6.437c1.863,2.163 3.621,3.546 6.463,3.388c0.916,-0.038 1.479,-0.217 2.387,-0.488c1,-0.317 1.496,-1.083 2.533,-0.983c2.534,0.3 3.413,3.712 0,4.891c-0.908,0.309 -1.45,-0.329 -2.387,-0.504c-1.171,-0.271 -1.75,-0.812 -2.917,-0.675c-1.554,0.129 -2.458,0.813 -3.441,2.029c-1.046,1.234 -1.405,2.263 -1.442,3.909c-1.15,0.329 -1.929,0.329 -3.067,-0c-0.85,-0.271 -1.358,-0.579 -2.037,-1.196c-0.579,2.2 -0.254,3.908 1.046,5.8c1.32,1.854 2.816,2.683 5.07,2.846c1.467,3.041 3.096,4.629 6.138,6.079c1.467,0.729 2.404,1.225 4.033,1.179c2.038,-0.037 2.946,-1.179 4.771,-2.029c1.217,-0.542 1.721,-1.375 3.067,-1.496c1.421,-0.204 2.366,0.046 3.546,0.813c1.683,1.141 2.433,2.562 2.366,4.566c-0.046,2.6 -1.946,3.959 -4.304,5.071c-1.767,0.842 -3.079,0.983 -4.996,0.617l4.221,3.946c1.458,1.3 2.358,2.029 4.125,2.833c1.863,0.842 3.088,1.292 5.125,1.292l0.804,-0.009c2.021,0 3.171,-0.029 5.1,0.45c2.096,0.542 3.509,0.721 4.996,2.225l4.367,4.275c-1.096,-0.441 -1.779,-0.55 -2.954,-0.75c-0.963,-0.166 -1.496,-0.254 -2.459,-0.254l-1.029,0c-2.225,0 -3.5,-0.225 -5.687,-0.729c-1.667,-0.354 -2.571,-0.625 -4.163,-1.225l6.896,6.587c1.404,1.338 2.312,2.038 4.087,2.863c1.9,0.842 3.08,1.262 5.125,1.262l0.813,0c1.992,0 3.171,0 5.137,0.488c2.03,0.512 3.442,0.7 4.975,2.2l4.455,4.267c-1.084,-0.442 -1.767,-0.55 -2.946,-0.738c-0.963,-0.167 -1.496,-0.254 -2.442,-0.254l-1.375,0c-2.217,0 -3.5,-0.233 -5.671,-0.738c-1.683,-0.366 -2.583,-0.616 -4.183,-1.208l7.979,7.159c1.008,0.908 1.592,1.412 2.817,1.991c1.321,0.579 2.133,0.871 3.546,0.871l9.487,0c-8.037,4.479 -10.167,6.746 -17.212,10.375c-7.68,3.921 -11.75,9.188 -20.375,8.633c-3.33,-0.204 -5.034,-1.337 -8.296,-2.02c-2.134,-0.451 -3.313,-1.021 -5.446,-1.038c-2.863,0 -4.696,0.225 -7.121,1.721c-1.862,1.083 -2.796,2.029 -3.908,3.883c2.171,-0.75 3.621,-0.9 5.929,-0.504c2.533,0.429 4.012,1.142 5.958,2.871c-1.916,-0.404 -3.004,-0.542 -4.958,-0.504c-3.825,0.054 -6.333,0.375 -9.488,2.533c-3.079,2.088 -4.95,4.004 -5.8,7.625c-0.466,2.088 -0.466,3.379 0,5.446c-0.962,0.721 -1.45,1.225 -2.187,2.171c-1.233,1.496 -2.179,2.496 -2.225,4.454c-0.038,1.946 0.542,3.312 2.037,4.629c0.721,-2.133 1.767,-3.367 3.725,-4.454c1.321,-0.75 2.217,-0.992 3.763,-1.029c0.542,0.441 0.85,0.675 1.496,1.029c0.812,0.421 1.3,0.608 2.216,0.812l1.871,-2.179c-0.329,-3.583 0.413,-6.054 2.713,-8.85c2.712,-3.283 5.754,-4.612 10.029,-4.396c-3.958,1.075 -6.313,3.171 -7.813,6.95c-0.945,2.321 -1.083,3.855 -0.675,6.296c-1.766,0.909 -2.675,1.863 -3.545,3.638c-1.321,2.779 -1.142,5.341 0.645,7.896c1.121,-2.013 2.067,-3.042 3.9,-4.396c2.088,-1.592 3.538,-2.225 6.08,-2.734c1.32,0.392 2.087,0.542 3.45,0.675c2.029,0.242 3.229,0.196 5.229,-0.166c-0.825,-1.496 -1.096,-2.525 -1.196,-4.229c-0.179,-4.171 1.6,-7.663 5.446,-9.159c1.637,-0.637 2.704,-0.766 4.404,-0.525c-1.767,0.467 -2.771,1.067 -4.033,2.388c-2.013,1.954 -3.238,3.854 -2.734,6.625c0.367,2.087 1.234,3.404 3.042,4.583c1.179,0.738 2,1.008 3.404,1.046c-0.008,1.096 -0.083,1.675 -0.354,2.721c-0.271,1.271 -0.542,1.946 -1.179,3.079c2.712,-0.271 4.358,-0.954 6.446,-2.704c1.487,-1.209 2.2,-2.113 3.079,-3.8c1.404,-0.354 2.225,-0.788 3.387,-1.721c2.404,-1.963 3.809,-4.171 3.321,-7.204c-0.271,-1.917 -0.887,-3.067 -2.3,-4.359c-0.292,-2.637 1.9,-5.05 4.583,-5.087c2.825,-0 4.996,2.862 4.575,5.671c-0.141,0.954 -0.354,1.495 -0.937,2.262l8.25,-0.075c1.262,-0.054 2.029,-0.233 3.171,-0.812c1.321,-0.625 2.037,-1.188 2.771,-2.434l3.312,-5.47c0.6,-0.992 1.046,-1.563 2.05,-2.238c0.908,-0.654 1.488,-1.158 2.629,-1.158l5.95,0.104c-0.683,0.404 -1.046,0.675 -1.616,1.217c-0.459,0.504 -0.767,0.812 -1.113,1.441l-2.675,4.5c-0.825,1.367 -1.542,2.038 -2.712,3.142c-0.842,0.812 -1.375,1.208 -2.321,1.854l9.85,-0.129c1.321,-0.029 2.087,-0.204 3.229,-0.775c1.262,-0.675 2,-1.233 2.771,-2.458l6.987,-10.88c-1.516,-1.3 -6.446,-3.712 -7.896,-7.783c-0.645,-1.721 -0.87,-2.808 -0.775,-4.679c0.046,-1.533 0.317,-2.433 0.871,-3.892c0.488,-1.45 1.225,-2.058 1.675,-3.508c0.367,-1.121 0.542,-1.75 0.588,-2.917c-0,-0.916 -0.038,-1.458 -0.271,-2.366l3.612,1.954c0.842,0.479 1.292,0.9 1.796,1.766c0.496,0.88 0.609,1.534 0.542,2.534c-0.054,1.046 -0.504,1.541 -0.813,2.533c-0.57,1.592 -1.283,2.404 -1.458,4.079c-0.167,1.721 -0.129,2.809 0.6,4.396c0.871,2.038 2.263,2.621 3.983,3.983c2.188,1.767 3.63,2.638 6.221,3.713l0,-15.575l5.754,-0.008l0,14.395c0,1.271 0.142,2.096 0.825,3.209c0.542,0.962 1.038,1.554 2.03,2.058l4.591,2.2c1.629,0.796 2.796,0.796 4.575,0.646c1.45,-0.092 2.263,-0.263 3.592,-0.804l8.271,-3.584c-1.046,0.13 -1.684,0.075 -2.734,-0.179c-1.141,-0.337 -1.645,-0.862 -2.695,-1.412l-10.7,-5.717c1.283,-1.029 1.862,-2.163 2.35,-3.838c0.466,-1.45 0.466,-2.329 0.383,-3.837c-0.142,-1.421 -0.55,-2.142 -0.871,-3.554c-0.204,-0.863 -0.496,-1.309 -0.496,-2.225c-0.054,-0.863 0,-1.396 0.309,-2.179c0.3,-0.675 0.45,-1.121 1.083,-1.542l4.575,-3.042c-0.129,0.775 -0.179,1.225 -0.179,2.038c-0,0.991 0.141,1.541 0.337,2.533c0.254,1.233 0.713,1.825 1.021,3.042c0.329,1.3 0.504,2.037 0.504,3.404c0.054,2.583 -0.391,4.125 -1.525,6.425l11.05,6.117c1.096,0.6 1.788,0.908 3.05,1.037c1.217,0.142 1.946,0.038 3.079,-0.346l10.167,-4.004c-1.075,0.129 -1.742,0.121 -2.733,-0.15c-1.179,-0.3 -1.684,-0.842 -2.713,-1.383l-10.525,-5.792c-0.646,-0.329 -1.046,-0.421 -1.691,-0.662c-0.721,-0.292 -1.121,-0.43 -1.9,-0.675c0.504,-0.75 0.6,-1.234 0.87,-2.021c0.405,-1.188 0.638,-1.854 0.85,-3.079c0.505,-2.817 0.18,-4.5 -0.354,-7.296c-0.496,-2.863 -1.854,-4.184 -2.321,-7.071c-0.27,-0.825 -0.354,-1.321 -0.308,-2.188c0.017,-0.85 -0.142,-1.562 0.496,-2.087l5.546,-4.658c-0.142,0.841 -0.196,1.345 -0.142,2.216c0,0.675 0.017,1.029 0.142,1.692c0.271,1.329 0.85,1.975 1.358,3.246c0.542,1.329 0.85,2.087 1.358,3.441c0.909,-0.908 1.396,-1.45 2.2,-2.441c1.384,-1.767 2.2,-2.817 2.871,-4.9c0.6,-1.767 0.775,-2.809 0.7,-4.667c-0.141,-1.862 -0.291,-3.079 -1.321,-4.612l-2.741,-4.088c-0.654,-1.008 -0.888,-1.729 -0.983,-2.908c-0.142,-1.592 0.329,-2.534 0.983,-3.984l2.741,-6.312c-0.354,1.142 -0.458,1.862 -0.316,3.079c0.112,0.871 0.233,1.404 0.625,2.188l2.187,4.087l2.809,3.713l2.771,6.387c0.404,2.313 0.404,3.725 -0,6.042c-0.563,2.854 -1.496,4.304 -3.005,6.8c-2.441,4.125 -6.845,7.625 -8.345,9.075c-0,-0 0.158,1.216 0.141,1.991c-0.046,1.917 -0.412,2.984 -1.179,4.763l14.229,7.604c1.142,0.588 1.825,0.954 3.067,1.075c1.208,0.104 2.029,0.204 3.125,-0.392l6.942,-3.712c-1.009,0.367 -1.78,0.292 -2.721,-0.179c-1.075,-0.488 -1.45,-1.263 -1.863,-2.367c-0.992,-2.667 1.038,-5.312 3.379,-6.425c9.513,-4.567 19.45,-8.017 31.584,-13.696c13.637,-6.4 20.441,-11.975 34.462,-17.475c7.567,-2.954 11.638,-6.575 19.784,-6.575c5.05,0 8.429,-0.112 12.733,2.592c2.087,1.3 3.283,2.225 4.642,4.275c1.216,1.758 1.562,3.042 2.037,5.125c1.179,4.996 -2.237,7.95 -1.712,13.067c0.637,5.716 1.741,9.325 5.445,13.741c3.088,3.659 5.921,4.667 10.142,6.959c2.833,1.495 5.267,1.095 7.521,3.379c1.058,1.083 1.787,1.758 2.2,3.208c0.337,1.233 0.337,2.029 -0,3.246c2.35,0.067 3.733,-0.167 5.929,-1.029c3.313,-1.254 5.138,-2.667 7.129,-5.596l9.15,-0.008c0.888,1.533 1.171,2.608 1.196,4.379c0.029,2 0,3.479 -1.358,4.937c-1.413,1.496 -2.954,1.396 -4.967,1.721c-2.817,0.404 -4.454,-0.833 -7.304,-0.692c-3.192,0.121 -5.275,-0.045 -8.1,1.496c-3.154,1.759 -4.704,3.713 -5.95,7.138c-0.775,2.237 -0.946,3.75 -0.675,6.108c-1.292,0.825 -1.954,1.542 -2.713,2.9c-1.479,2.658 -1.479,5.138 0,7.8c1.45,-1.667 2.405,-2.533 4.259,-3.712c1.487,-1.009 2.404,-1.45 4.058,-2.05c0.204,-4.9 2.638,-8.43 7.129,-10.355c2.629,-1.141 4.509,-1.291 7.304,-0.691c-3.275,0.7 -5.2,1.804 -7.466,4.246c-2.909,3.179 -3.984,6.079 -3.742,10.337c-0.925,1.292 -1.225,2.338 -1.142,3.908c0.121,1.667 0.609,2.771 1.817,3.909c2.313,-3.771 4.854,-5.659 9.175,-6.763c2.188,-0.579 3.538,-0.616 5.783,-0.346c-0.983,-3.658 -0.354,-6.55 2.021,-9.487c2.509,-3.088 5.446,-4.313 9.384,-3.908c-2.33,0.616 -3.688,1.579 -5.146,3.537c-1.338,1.863 -2.059,3.313 -1.854,5.633c0.225,2.555 1.245,4.23 3.404,5.596c-0.092,1.263 0.029,2.029 0.487,3.209c0.534,1.283 1.046,1.962 2.096,2.77c0.367,-1.758 0.908,-2.808 2.179,-4.125c0.888,-0.908 1.534,-1.32 2.684,-1.854c1.916,-0.871 3.245,-0.271 5.295,-0.683c3.405,-0.638 5.892,-0.233 8.475,-2.554c1.9,-1.684 2.9,-3.134 3.255,-5.659c0.487,-3.266 -0.459,-5.745 -2.917,-7.895c0.512,-3.359 0.637,-5.275 0.512,-8.663c-0.129,-3.537 -0.412,-5.508 -1.254,-8.962l1.075,-0c1.075,-0 1.321,0.129 2.742,0.495c1.029,0.234 2.246,1.359 2.975,2.771c0.512,-1.929 0.579,-3.133 0.271,-5.087l0.008,-0.067l0.021,0.013Zm-219.425,-91.034c-0.104,1.496 -0.6,2.675 -1.729,3.946c-1.217,1.346 -2.225,2.133 -3.854,2.133l-4.034,0c1.046,1.046 1.909,1.855 1.909,3.509c-0,2.133 -1.721,3.854 -3.855,3.854c-2.133,-0 -3.854,-1.721 -3.854,-3.854c0,-1.096 0.45,-2.067 1.179,-2.771l0.721,-0.738l-4.396,0c-1,0 -1.591,0.55 -2.358,1.338l0,-1.113c0,-0.645 -0.046,-1.245 0,-1.787c0.092,-1.142 1.142,-2.433 2.358,-2.433l12.884,-0c1.766,-0 3.762,-0.813 5.041,-2.088l-0.008,0l-0.004,0.004Zm-13.921,-15.583c0.7,-0 1.113,0.179 1.713,0.504c0.608,0.338 0.908,0.638 1.358,1.208l4.183,5.417c0.309,0.392 0.367,0.7 0.675,1.021c0.459,0.404 0.796,0.571 1.367,0.675l-3.388,-0c-1.02,-0 -1.637,-0.167 -2.562,-0.675c-0.863,-0.513 -1.233,-1.046 -1.854,-1.863l-3.379,-4.425c-0.292,-0.412 -0.442,-0.654 -0.805,-1.02c-0.45,-0.392 -0.737,-0.6 -1.245,-0.842l3.937,-0Zm-13.629,-2.029c0.983,-0 1.592,0.308 2.442,0.841c0.729,0.459 1.12,0.813 1.629,1.525l4.95,7.13c0.329,0.441 0.504,0.654 0.871,1.02c0.6,0.571 0.991,0.842 1.72,1.18l-4.529,-0.009c-1.046,0 -1.75,-0.196 -2.583,-0.841c-0.663,-0.505 -0.842,-0.992 -1.271,-1.692l-4.087,-6.288c-0.405,-0.637 -0.638,-0.991 -1.188,-1.516c-0.767,-0.729 -1.3,-1.046 -2.275,-1.359l4.333,0l-0.008,0.009l-0.004,-0Zm-11.254,2.029c0.683,-0 1.083,0.179 1.666,0.504c0.638,0.338 0.963,0.638 1.375,1.208l4.221,5.417c0.271,0.392 0.329,0.7 0.675,1.021c0.421,0.404 0.775,0.571 1.346,0.675l-3.379,-0c-1.046,-0 -1.684,-0.167 -2.534,-0.675c-0.916,-0.513 -1.283,-1.046 -1.879,-1.863l-3.341,-4.425c-0.309,-0.412 -0.505,-0.654 -0.871,-1.02c-0.429,-0.392 -0.721,-0.6 -1.234,-0.842l3.959,-0l-0.004,-0Zm-4.825,17.671l12.845,-0c0.775,-0 1.234,0.354 1.825,1.075c0.788,0.925 0.542,2.029 0.542,3.141l-0.121,0.984c-0.654,-0.646 -1.196,-1.196 -2.246,-1.196l-4.395,-0c1.104,1.046 1.916,1.854 1.916,3.508c0,2.134 -1.729,3.854 -3.845,3.854c-2.105,0 -3.825,-1.72 -3.825,-3.854c-0,-1.096 0.404,-2.066 1.141,-2.771l0.767,-0.737l-4.042,-0c-1.675,-0 -2.621,-0.788 -3.854,-2.133c-1.142,-1.263 -1.683,-2.442 -1.729,-3.946c1.233,1.271 3.237,2.087 5.033,2.087l-0.012,-0.012Zm-5.342,70.291l-1.542,4.396c-0.45,1.321 -0.504,2.088 -0.737,3.442c-0.413,2.796 -0.496,4.417 -0.292,7.221c-0.841,-0.684 -1.291,-1.142 -2.021,-1.954c-0.775,-0.85 -1.083,-1.413 -1.72,-2.33c-1.405,-2.162 -2,-3.575 -2.855,-5.912l-0.179,-0.721c-2.508,-0.812 -6.408,-1.046 -8.533,-3.742c-1.963,-2.458 -2.142,-4.5 -2.592,-7.604c-0.412,-2.546 -0.412,-4.087 0,-6.671l2.404,-7.12l2.434,-4.088l1.916,-4.554c0.355,-0.879 0.45,-1.488 0.542,-2.433c0.129,-1.309 0.067,-2.134 -0.271,-3.405l3.359,5.125c0.812,1.284 0.862,2.255 0.862,3.725c0.029,1.592 -0.092,2.592 -0.862,3.946l-3.359,6.388c-0.962,1.825 -1.046,3.087 -1.141,5.137c-0.092,2.029 -0.309,3.359 0.562,5.175c1.346,2.771 3.471,4.221 6.558,4.396c0.038,-1.292 0.092,-2.037 0.338,-3.312c0.254,-1.45 0.75,-2.188 0.983,-3.638c0.084,-0.654 0.129,-1.046 0.179,-1.667c0,-0.87 -0.045,-1.358 -0.179,-2.237l5.575,7.987c0.6,0.796 0.625,1.45 0.684,2.405c0.083,0.812 0.083,1.291 -0.142,2.029l0.029,0.008l0,0.008Zm55.333,-55.529c-1.066,1.9 -1.983,2.9 -3.741,4.221c-1.863,1.421 -3.275,1.629 -5.417,2.533c-0.487,0.234 -0.804,0.196 -1.208,0.55c-0.45,0.405 -0.45,0.888 -0.684,1.488c-0.329,0.954 -0.179,1.592 -0.504,2.554c-0.404,1.263 -0.675,2.029 -1.517,3.079c-1.158,1.359 -2.162,1.992 -3.92,2.404c-0.03,2.496 -0.142,3.938 -0.45,6.388c-0.367,3.05 -0.738,4.725 -1.525,7.671c0.479,0.916 0.7,1.479 1.02,2.496c0.505,1.591 0.663,2.591 0.6,4.275c-0.083,2.35 -0.233,3.983 -1.675,5.845c-2.808,3.584 -7.108,1.234 -11.654,1.234c-4.591,-0 -8.904,2.35 -11.712,-1.234c-1.45,-1.862 -1.592,-3.5 -1.684,-5.845c-0.045,-1.684 0.105,-2.675 0.58,-4.275c0.329,-1.021 0.55,-1.571 1.045,-2.496c-0.812,-2.946 -1.12,-4.621 -1.533,-7.671c-0.329,-2.458 -0.421,-3.892 -0.45,-6.388c-1.767,-0.412 -2.771,-1.045 -3.908,-2.404c-0.85,-1.046 -1.142,-1.816 -1.534,-3.079c-0.308,-0.962 -0.179,-1.592 -0.495,-2.554c-0.234,-0.6 -0.196,-1.083 -0.684,-1.488c-0.366,-0.366 -0.729,-0.329 -1.187,-0.55c-2.179,-0.908 -3.575,-1.112 -5.434,-2.533c-1.766,-1.321 -2.675,-2.312 -3.725,-4.221c-1.216,-2.171 -1.908,-3.675 -1.72,-6.116c0.129,-1.413 0.179,-1.75 0.541,-3.105c0.204,-0.7 0.625,-1.516 0.954,-2.162c0.392,-0.767 0.767,-1.104 1.359,-1.692c0.637,-0.637 1.083,-0.925 1.862,-1.366l0,7.045c0,2.592 0.496,4.275 2.029,6.371c1.413,1.938 2.75,2.713 4.959,3.75c2.125,1 3.537,1.321 5.941,1.346c-0.179,1.654 -0.083,2.658 0.33,4.238c0.45,1.629 0.6,2.808 1.862,3.891c1.271,1.084 2.421,1.142 4.079,1.179c1.592,0.105 2.554,-0.129 4.004,-0.766c1.121,-0.542 2.405,-0.692 2.638,-1.954c0.075,-0.496 -0,-0.813 -0.196,-1.346c-0.329,-1.059 -1.217,-1.292 -1.817,-2.238c-0.495,-0.812 -0.812,-1.3 -1.083,-2.246c-0.292,-0.841 -0.504,-1.383 -0.367,-2.254c0.075,-0.675 -0.045,-1.6 0.638,-1.6l9.392,0c0.675,0 0.541,0.938 0.654,1.6c0.158,0.871 -0.113,1.413 -0.392,2.254c-0.271,0.946 -0.571,1.442 -1.083,2.246c-0.6,0.946 -1.496,1.179 -1.825,2.238c-0.159,0.533 -0.271,0.862 -0.179,1.346c0.233,1.262 1.495,1.404 2.637,1.954c1.45,0.625 2.396,0.871 3.983,0.766c1.675,-0.037 2.817,-0.091 4.088,-1.179c1.271,-1.083 1.421,-2.254 1.862,-3.891c0.45,-1.592 0.496,-2.592 0.367,-4.238c2.35,-0.029 3.763,-0.346 5.913,-1.346c2.216,-1.029 3.516,-1.816 4.929,-3.75c1.541,-2.096 2.037,-3.779 2.037,-6.371l0,-7.045c0.775,0.441 1.217,0.729 1.863,1.366c0.608,0.6 0.991,0.938 1.358,1.692c0.317,0.646 0.767,1.458 0.954,2.162c0.404,1.359 0.429,1.692 0.542,3.105c0.188,2.441 -0.504,3.945 -1.704,6.116l-0.013,0Z" style="fill:#003087;"/></g><path d="M238.5,216.675c0.067,3.2 -0.225,6.475 -0.85,9.6c-2.458,-0.646 -4.817,-0.638 -7.333,-0.654c-2.471,-0 -4.921,0.083 -7.334,0.625c-0.737,-3.65 -0.887,-7.234 -0.85,-10.925l3.313,3.946c0.308,-0.654 1.721,-4.192 2.496,-4.417l0.179,-0.046c0.925,0.496 1.179,0.45 2.225,0.45c1.067,0 1.321,0.029 2.312,-0.504c0.871,0.367 1.396,2.113 1.759,2.854c0.291,0.608 0.55,1.217 0.75,1.667l3.341,-3.946l0,1.358l-0.008,-0.008Z" style="fill:#003087;fill-rule:nonzero;"/><path d="M348.85,168.2c-5.696,1.058 -9.008,1.383 -14.808,1.367c-9.871,-0.029 -15.117,-4.734 -24.95,-4.117c-5.575,0.346 -8.98,0.292 -14.013,2.667c-5.658,2.695 -9.429,4.995 -12.004,10.737c-2.358,5.304 -2.508,9.458 -0.467,14.875c1.992,5.238 5.621,8.038 9.796,10.592c6.175,3.808 10.504,3.675 17.738,4.229c10.196,0.796 15.771,-1.358 25.596,-3.554c8.429,-1.879 12.92,-3.959 21.187,-6.342c8.917,-2.6 13.967,-3.996 22.937,-6.387c3.592,-3.517 5.784,-5.371 9.85,-8.325c4.238,-3.05 6.809,-4.605 11.488,-6.942l-0.392,-2.9c-8.766,1.729 -13.666,2.9 -22.3,5.267c-10.72,2.966 -16.483,5.658 -27.158,8.82c-9.496,2.809 -14.771,4.9 -24.521,6.625c-5.5,0.984 -8.608,2.096 -14.192,1.78c-4.854,-0.271 -8.52,0.504 -12.237,-2.667c-1.871,-1.579 -3.246,-2.667 -3.688,-5.063c-0.308,-1.645 -0.441,-2.883 0.505,-4.237c0.85,-1.233 1.9,-1.825 3.404,-1.871c1.908,-0.054 3.441,0.908 4.079,2.713c0.504,1.645 0.092,3.133 -1.217,4.237c2.05,0.196 3.267,0.167 5.267,-0.167c2.404,-0.391 4.079,-0.262 5.867,-1.854c1.654,-1.479 2.433,-2.908 2.458,-5.1c0.029,-2.6 -1.083,-4.35 -3.192,-5.816c-1.396,-0.963 -2.404,-1.271 -4.087,-1.321c2.458,-0.813 4.296,-0.692 6.612,0.512c1.209,0.617 1.871,1.113 2.713,2.217c1.321,1.729 1.729,3.254 1.441,5.417c4.313,-0.367 6.809,-0.984 10.767,-2.667c4.042,-1.721 5.988,-3.388 9.533,-5.979c3.284,-2.434 5.063,-3.938 8.009,-6.763l-0.029,0.017l0.008,0Z" style="fill:#003087;"/><path d="M230.379,229.858c-2.9,0 -5.033,0.017 -7.166,1.954c-0.58,0.513 -0.955,0.813 -1.321,1.488c-0.767,1.442 -0.625,2.675 0.029,4.133c1.383,3.004 5.125,0.992 8.466,0.992c3.313,0 7.034,2.012 8.446,-0.992c0.646,-1.458 0.767,-2.704 0,-4.133c-0.375,-0.675 -0.737,-0.971 -1.291,-1.488c-2.171,-1.937 -4.296,-1.954 -7.146,-1.954l-0.017,0Z" style="fill:#003087;"/><path d="M385.304,246.417c-1.75,1.825 -3.246,2.712 -3.975,5.125c-0.504,1.645 -0.233,4.358 -0.233,4.358l0.329,3.35c0.142,1.45 0.067,2.329 -0.346,3.712c-0.337,1.263 -0.533,2.067 -1.421,3.03l-6.408,6.762c0.804,-1.383 1.113,-2.283 1.346,-3.854c0.233,-1.6 0.412,-2.637 -0.179,-4.125l-2.113,-5.342c-0.354,-0.87 -0.083,-1.479 0.054,-2.421c0.105,-0.766 0.18,-1.029 0.467,-1.945l-3.592,3.816c-0.879,0.963 -1.358,1.6 -1.766,2.863c-0.429,1.383 -0.609,2.329 -0.15,3.712l2.225,6.529c0.391,1.142 0.179,1.917 -0.105,3.067c-0.42,1.617 -1.037,2.471 -2.187,3.675l-6.388,6.783c0.813,-1.383 1.096,-2.283 1.338,-3.854c0.242,-1.616 0.421,-2.658 -0.196,-4.125l-2.087,-5.071c-0.367,-0.879 -0.075,-1.495 0.054,-2.433c0.112,-0.775 0.179,-1.046 0.479,-1.962l-3.6,3.725c-0.887,0.954 -1.358,1.616 -1.758,2.862c-0.45,1.383 -0.609,2.338 -0.159,3.713l2.225,6.55c0.375,1.141 0.159,1.9 -0.12,3.05c-0.413,1.616 -1.021,2.47 -2.188,3.687l-6.388,6.763c0.588,-1.046 0.842,-1.73 1.046,-2.938c0.254,-1.496 0.254,-2.442 -0.166,-3.921l-1.555,-5.575c-1.283,1.571 -2.095,2.413 -3.612,3.788c-2,1.758 -3.246,2.666 -5.558,4.012c-0.242,2.163 -0.7,3.425 -1.863,5.25c-1.442,2.284 -2.75,3.359 -5.1,4.629c-2.917,1.592 -5.1,2.021 -8.392,1.667c0.85,-1.617 1.084,-2.771 0.925,-4.592c-0.141,-1.6 -0.329,-2.704 -1.404,-3.891c-0.937,-1.046 -1.779,-1.496 -3.179,-1.713c0.292,0.729 0.429,1.121 0.7,1.863c0.338,0.925 0.504,1.45 0.842,2.387c-1.479,2.2 -2.471,3.359 -4.417,5.138c-1.929,1.758 -3.133,2.629 -5.408,3.862c-1.713,-0.066 -2.713,-0.104 -4.434,-0.179c-1.32,-0.054 -2.095,-0.367 -3.404,-0.158c-1.554,0.225 -2.366,0.675 -3.725,1.516c-1.766,1.121 -2.696,2.05 -3.808,3.846c-0.683,-2.208 -0.871,-3.562 -0.775,-5.883c0.179,-3.921 0.812,-6.521 3.404,-9.496c1.542,-1.767 2.713,-2.629 4.9,-3.554c-3.725,0.496 -5.987,1.729 -8.483,4.567c-1.767,2.066 -2.496,3.62 -3.042,6.295c-2,0.534 -3.133,0.992 -4.9,2.03c-2.321,1.291 -3.546,2.283 -5.267,4.237c-1.233,-2.142 -1.479,-3.892 -0.85,-6.275c0.405,-1.712 0.917,-2.704 2.188,-3.908c0.804,-0.767 1.346,-1.113 2.396,-1.542c0.908,-2 1.579,-3.087 3.041,-4.754c2.35,-2.675 4.163,-3.958 7.492,-5.267c-2.404,-0.3 -3.908,-0.083 -6.129,0.863c-2.179,0.916 -3.229,1.929 -4.763,3.733c-1.404,1.667 -2.037,2.833 -2.675,4.921c-2.095,0.608 -3.275,1.112 -5.125,2.217c-1.862,1.112 -2.862,1.891 -4.395,3.441c-0.917,-1.466 -1.142,-2.583 -1.009,-4.296c0.142,-1.962 0.871,-3.095 2.134,-4.583c1.32,-1.525 2.404,-2.254 4.304,-2.883c0.45,-3.238 1.233,-5.154 3.229,-7.763c1.954,-2.562 3.508,-3.854 6.446,-5.137c2.283,-1.009 3.725,-1.263 6.191,-1.367c3.705,-0.142 5.65,1.321 9.234,2.171c3.179,0.737 4.891,2.012 8.166,1.917c3.613,-0.113 5.905,-0.75 8.821,-2.884c2.734,-2.021 4.034,-3.771 5.175,-6.971c1.384,-0.525 2.134,-0.97 3.313,-1.862c1.358,-1.067 2.058,-1.804 3.041,-3.229c-2.387,1.121 -3.845,1.579 -6.445,2.029c-2.884,0.496 -4.605,0.542 -7.505,0.179c0.617,-0.767 0.971,-1.233 1.555,-2.05c3.087,-4.304 2.77,-7.904 5.604,-12.375c2.433,-3.825 3.816,-6.137 7.325,-9.008c5.071,-4.184 9.25,-4.696 15.604,-6.454c4.096,-1.121 6.662,-0.675 10.712,-2.03c2.096,-0.712 3.696,-0.616 5.238,-2.2c1.083,-1.12 1.667,-1.991 1.871,-3.537c0.158,-1.142 0.066,-1.871 -0.392,-2.967c2.667,-1.496 4.334,-2.096 7.325,-2.621c3.658,-0.662 5.921,-0.587 9.542,0.338c2.2,0.55 3.562,0.85 5.416,2.142c1.892,1.308 3.005,2.283 3.909,4.379c1.142,2.637 1.142,4.704 -0,7.341c-2.758,1.638 -4.221,2.788 -6.446,5.109l-0.017,-0.009l-0.004,0.005Z" style="fill:#003087;"/><g><path d="M474.121,272.075c-0.271,-1.817 -0.496,-2.983 -1.629,-4.433c-1.171,-1.496 -2.771,-2.125 -4.021,-2.684c-1.209,-0.55 -3.675,-0.916 -4.996,-0.916l-1.542,-0c-1.421,-0 -2.262,0.066 -3.629,-0.338c-1.337,-0.354 -2.216,-0.525 -3.171,-1.516l-4.641,-4.921c0.645,0.291 1.112,0.375 1.854,0.504c0.646,0.121 1.008,0.167 1.646,0.167l6.65,-0c1.458,-0 2.291,0.158 3.712,0.525c1.046,0.241 1.6,0.441 2.609,0.841l-3.555,-5.679c-0.841,-1.329 -1.337,-2.15 -2.62,-3.042c-1.292,-0.908 -2.238,-1.358 -3.855,-1.358l-8.308,0c-1.358,0 -2.246,0.083 -3.462,-0.525c-1.171,-0.6 -1.563,-1.329 -2.396,-2.337l-3.621,-4.567c0.812,0.442 1.346,0.571 2.237,0.775c0.767,0.167 1.188,0.262 1.955,0.262l7.287,0c1.767,0 2.796,0.242 4.479,0.775c1.246,0.405 1.938,0.675 3.096,1.3l-6.754,-8.82c-0.713,-0.917 -1.158,-1.442 -2.163,-2c-1.141,-0.646 -1.929,-0.888 -3.237,-0.888l-6.425,-0.008c-1.263,-0 -2.029,-0.029 -3.171,-0.542c-1.158,-0.504 -1.871,-0.946 -2.496,-2.029l-5.35,-9.008c4.35,-0 6.934,-0.513 10.975,-2.2c4.696,-1.955 7.617,-3.463 10.571,-7.596c2.975,-4.184 3.929,-7.475 3.742,-12.6c-0.18,-4.313 -1.046,-6.913 -3.388,-10.525c-2.216,-3.442 -4.192,-4.929 -7.604,-7.138c-3.413,-2.225 -5.904,-2.458 -9.663,-4.079c-4.283,-1.862 -8.745,-0.721 -10.962,-4.837c-1.021,-1.946 -1.767,-3.434 -1.113,-5.509c0.646,-1.954 1.767,-3.087 3.705,-3.741c-4.584,-1.667 -8.038,-1.563 -12.525,0.391c-3.105,1.338 -5.125,2.442 -6.83,5.388c-1.854,3.237 -2.141,5.966 -1.02,9.496c-4.367,2.225 -6.725,3.704 -10.675,6.625c-5.446,4.041 -8.288,6.716 -12.667,11.891c4.221,-1.046 6.65,-1.496 10.962,-2.037c3.884,-0.467 6.109,-0.638 10.03,-0.675c-0.18,-2.225 0.112,-3.629 1.179,-5.604c1.916,-3.563 4.825,-5.35 8.866,-5.417c-1.766,0.7 -2.712,1.45 -3.825,3.004c-1.458,2.058 -2.458,3.983 -1.479,6.313c0.863,2.066 2.359,3.312 4.584,3.404c1.216,0.066 2.02,-0.15 3.066,-0.842c-0.329,-1.358 -0.3,-2.208 0.038,-3.562c0.925,-3.63 4.058,-5.875 7.8,-5.605c-1.171,0.588 -1.75,1.067 -2.592,2.03c-2.533,3.004 -2.825,6.883 -0.512,10.037c1.945,2.608 4.591,3.65 7.8,3.042c-0.496,-0.825 -0.655,-1.413 -0.684,-2.367c-0.016,-2.883 2.909,-4.604 5.8,-4.583c3.079,-0 5.659,2.262 5.809,5.333c0.3,6.213 -5.025,5.746 -9.363,6.333c-2.817,0.355 -4.417,-0.608 -7.196,-1.15c-4.05,-0.75 -6.241,-1.616 -10.3,-2.366c-8.896,-1.654 -14.079,-2.496 -23.108,-2.05c-7.071,0.366 -11,1.554 -17.963,2.891c-11.254,2.171 -17.308,4.717 -28.541,6.971c-12.517,2.496 -19.638,4.763 -32.396,4.913c-13.658,0.158 -21.583,-0.925 -34.679,-4.763c1.412,2.496 1.954,4.125 2.404,6.959c0.242,1.579 0.225,2.495 0.225,4.087c-1.329,-3.208 -2.313,-4.937 -4.258,-7.812c-2.592,-3.855 -5.446,-5.005 -7.813,-9c-0.542,-0.971 -1.029,-1.459 -1.358,-2.534c-0.329,-1.15 -0.413,-1.891 -0.142,-3.066c0.196,-0.925 0.442,-1.45 1.008,-2.2c0,0.841 0.13,1.345 0.496,2.087c0.292,0.496 0.459,0.767 0.871,1.142l8.167,8.137c0.916,-5.612 0.729,-9.091 -0.813,-14.583c-1.179,-4.088 -2.216,-6.342 -4.629,-9.842c1.346,-3.675 1.767,-5.941 1.871,-9.85c0.067,-2.983 -0.104,-4.725 -0.804,-7.654c-1.788,1.067 -2.771,1.721 -4.454,2.975c-1.121,0.842 -1.984,1.121 -2.834,2.238c-0.991,1.291 -1.358,2.291 -1.591,3.908c-0.18,1.487 -0.092,2.404 0.354,3.846c-1.667,-1.038 -2.534,-1.984 -3.404,-3.75c-0.813,-1.684 -1.359,-2.909 -0.863,-4.725c0.392,-1.346 0.983,-2.059 2.05,-2.946c1.667,-1.421 3.313,-0.879 5.396,-1.592c1.954,-0.646 3.042,-1.066 4.937,-1.854c-0.083,-0.392 -0.179,-0.6 -0.329,-0.937c-0.179,-0.355 -0.308,-0.542 -0.525,-0.85c-2.816,-0.713 -4.546,-0.85 -7.483,-0.609c-1.6,0.142 -2.508,0.3 -4.042,0.738c-2.096,-2.375 -3.8,-3.479 -6.808,-4.404c-1.863,-0.588 -3.004,-0.738 -4.9,-0.692c-2.458,-2.142 -4.192,-3.088 -7.304,-3.946c-2.834,-0.775 -4.584,-0.442 -7.475,-0.442c-2.954,0 -4.688,-0.337 -7.521,0.442c-3.104,0.863 -4.875,1.804 -7.288,3.946c-1.945,-0.046 -3.079,0.104 -4.937,0.692c-3.004,0.925 -4.725,2.029 -6.783,4.404c-1.58,-0.442 -2.488,-0.6 -4.059,-0.738c-2.937,-0.241 -4.658,-0.104 -7.491,0.609c-0.18,0.308 -0.271,0.495 -0.45,0.804c-0.18,0.354 -0.271,0.579 -0.405,0.983c1.9,0.788 2.992,1.196 4.938,1.854c2.087,0.713 3.725,0.167 5.396,1.592c1.096,0.887 1.666,1.6 2.037,2.946c0.504,1.816 -0.054,3.041 -0.871,4.725c-0.87,1.766 -1.691,2.712 -3.404,3.75c0.488,-1.442 0.55,-2.35 0.367,-3.846c-0.225,-1.617 -0.6,-2.608 -1.592,-3.908c-0.862,-1.113 -1.691,-1.396 -2.808,-2.238c-1.683,-1.271 -2.675,-1.929 -4.454,-3.067c-0.675,2.955 -0.85,4.696 -0.813,7.738c0.084,3.908 0.542,6.175 1.917,9.842c-2.458,3.508 -3.508,5.754 -4.688,9.85c-1.541,5.491 -1.72,8.962 -0.766,14.583l8.129,-8.138c0.404,-0.375 0.579,-0.645 0.85,-1.141c0.367,-0.738 0.504,-1.246 0.504,-2.088c0.579,0.75 0.813,1.263 1.021,2.2c0.242,1.179 0.15,1.917 -0.158,3.067c-0.338,1.075 -0.805,1.562 -1.375,2.533c-2.35,4.004 -5.213,5.146 -7.8,9.009c-1.955,2.87 -2.909,4.62 -4.267,7.812c-0.504,-1.112 -0.663,-1.833 -0.692,-3.067c0,-1.15 0.142,-1.816 0.571,-2.883c-4.333,-2.508 -6.746,-4.087 -10.721,-7.121c-3.808,-2.908 -6.221,-4.387 -9.337,-8c-3.725,-4.237 -8.084,-6.783 -7.484,-12.387c0.33,-2.909 2.03,-4.088 3.125,-6.792c1.359,-3.358 3.171,-5.2 3.005,-8.821c-0.167,-3.883 -1.375,-6.416 -4.23,-9c0.205,-2.291 -0.083,-3.771 -1.216,-5.771c-1.496,-2.779 -3.359,-4.183 -6.454,-4.92c1.045,1.758 1.345,3.041 1.208,5.079c-0.104,1.825 -0.513,2.9 -1.517,4.416c1.067,1.442 1.413,2.609 1.359,4.425c-0.084,2.125 -0.775,3.517 -2.405,4.921c0.505,-2.833 0.18,-4.762 -1.179,-7.296c-1.404,-2.583 -2.862,-3.958 -5.575,-5.1c-0.812,-3.629 -3.771,-5.987 -7.491,-5.929c-2.225,0.029 -3.675,0.625 -5.25,2.2c1.975,0.242 3.275,1.046 4.387,2.713c0.638,0.925 0.917,1.591 1.046,2.721c-0.775,0.487 -1.142,0.833 -1.721,1.516c-0.683,0.879 -0.992,1.479 -1.346,2.554c2.884,0.142 4.754,1.067 6.596,3.238c1.963,2.237 2.583,4.35 2.238,7.287c-0.588,-1.729 -1.142,-2.704 -2.367,-4.058c-3.042,-3.329 -6.671,-4.442 -11.05,-3.35c-1.75,-1.871 -3.563,-2.571 -6.1,-2.421c-2.667,0.159 -4.454,1.179 -5.942,3.388c1.721,0.083 2.771,0.412 4.221,1.375c1.142,0.7 1.683,1.246 2.442,2.312c-0.721,0.871 -1.084,1.413 -1.571,2.434c-1.046,2.162 -1.358,3.687 -1.188,6.1c0.18,2.675 0.646,4.416 2.367,6.454c1.863,2.162 3.621,3.516 6.463,3.387c0.916,-0.037 1.479,-0.241 2.387,-0.512c1,-0.292 1.496,-1.084 2.533,-0.971c2.534,0.3 3.413,3.704 0,4.875c-0.908,0.308 -1.45,-0.3 -2.387,-0.504c-1.171,-0.263 -1.75,-0.796 -2.917,-0.675c-1.554,0.141 -2.458,0.841 -3.441,2.029c-1.046,1.233 -1.405,2.283 -1.442,3.908c-1.15,0.346 -1.929,0.346 -3.067,0c-0.85,-0.271 -1.358,-0.571 -2.037,-1.187c-0.579,2.216 -0.254,3.908 1.046,5.791c1.32,1.855 2.816,2.684 5.07,2.871c1.467,3.013 3.096,4.604 6.138,6.063c1.467,0.721 2.404,1.246 4.033,1.196c2.038,-0.067 2.946,-1.18 4.771,-2.03c1.217,-0.562 1.721,-1.366 3.067,-1.533c1.421,-0.179 2.366,0.067 3.546,0.85c1.683,1.104 2.433,2.533 2.366,4.546c-0.046,2.6 -1.946,3.983 -4.304,5.071c-1.767,0.841 -3.079,0.991 -4.996,0.616l4.221,3.938c1.458,1.329 2.358,2.029 4.125,2.854c1.863,0.842 3.088,1.283 5.125,1.283l0.804,0c2.021,0 3.171,-0.016 5.1,0.48c2.096,0.512 3.509,0.7 4.996,2.187l4.367,4.258c-1.096,-0.404 -1.779,-0.533 -2.954,-0.712c-0.963,-0.167 -1.496,-0.242 -2.459,-0.242l-1.029,-0.008c-2.225,-0 -3.5,-0.254 -5.687,-0.738c-1.667,-0.354 -2.571,-0.616 -4.163,-1.216l6.896,6.558c1.404,1.346 2.312,2.05 4.087,2.854c1.9,0.85 3.08,1.292 5.125,1.292l0.813,-0c1.992,-0 3.171,-0.029 5.137,0.458c2.03,0.542 3.442,0.721 4.975,2.188l4.455,4.283c-1.084,-0.429 -1.767,-0.542 -2.946,-0.737c-0.963,-0.159 -1.496,-0.234 -2.442,-0.234l-1.375,0c-2.217,0 -3.5,-0.254 -5.671,-0.737c-1.683,-0.354 -2.583,-0.625 -4.183,-1.217l7.979,7.146c1.008,0.908 1.592,1.442 2.817,1.992c1.321,0.6 2.133,0.9 3.546,0.9l9.487,-0c-8.037,4.491 -10.167,6.762 -17.212,10.366c-7.68,3.929 -11.75,9.213 -20.375,8.654c-3.33,-0.204 -5.034,-1.345 -8.296,-2.029c-2.134,-0.45 -3.313,-1.008 -5.446,-1.008c-2.863,-0.029 -4.696,0.196 -7.121,1.683c-1.862,1.121 -2.796,2.067 -3.908,3.921c2.171,-0.796 3.621,-0.917 5.929,-0.533c2.533,0.429 4.012,1.15 5.958,2.9c-1.916,-0.429 -3.004,-0.542 -4.958,-0.513c-3.825,0.067 -6.333,0.392 -9.488,2.554c-3.079,2.105 -4.95,4.005 -5.8,7.642c-0.466,2.058 -0.466,3.367 0,5.425c-0.962,0.713 -1.45,1.217 -2.187,2.163c-1.233,1.525 -2.179,2.525 -2.225,4.462c-0.038,1.963 0.542,3.342 2.037,4.629c0.721,-2.141 1.767,-3.358 3.725,-4.462c1.321,-0.738 2.217,-0.984 3.763,-1.009c0.542,0.45 0.85,0.684 1.496,1.009c0.812,0.441 1.3,0.616 2.216,0.85l1.871,-2.2c-0.329,-3.6 0.413,-6.071 2.713,-8.842c2.712,-3.304 5.754,-4.65 10.029,-4.417c-3.958,1.067 -6.313,3.171 -7.813,6.959c-0.945,2.291 -1.083,3.837 -0.675,6.287c-1.766,0.888 -2.675,1.854 -3.545,3.638c-1.321,2.796 -1.142,5.341 0.645,7.887c1.121,-1.975 2.067,-3.029 3.9,-4.404c2.088,-1.571 3.538,-2.2 6.08,-2.721c1.32,0.384 2.087,0.542 3.45,0.675c2.029,0.234 3.229,0.179 5.229,-0.158c-0.825,-1.525 -1.096,-2.517 -1.196,-4.238c-0.179,-4.154 1.6,-7.662 5.446,-9.175c1.637,-0.616 2.704,-0.766 4.404,-0.512c-1.767,0.504 -2.771,1.104 -4.033,2.396c-2.013,1.962 -3.238,3.854 -2.734,6.625c0.367,2.096 1.234,3.412 3.042,4.575c1.179,0.737 2,1 3.404,1.075c-0.008,1.058 -0.083,1.654 -0.354,2.704c-0.271,1.254 -0.542,1.954 -1.179,3.087c2.712,-0.291 4.358,-0.983 6.446,-2.712c1.487,-1.217 2.2,-2.088 3.079,-3.763c1.404,-0.391 2.225,-0.812 3.387,-1.758c2.404,-1.962 3.809,-4.133 3.321,-7.204c-0.271,-1.917 -0.887,-3.05 -2.3,-4.333c-0.292,-2.659 1.9,-5.05 4.583,-5.08c2.825,-0.037 4.996,2.855 4.575,5.642c-0.141,0.971 -0.354,1.496 -0.937,2.283l8.25,-0.104c1.262,-0.016 2.029,-0.196 3.171,-0.775c1.321,-0.654 2.037,-1.196 2.771,-2.441l3.312,-5.471c0.6,-1.009 1.046,-1.563 2.05,-2.238c0.908,-0.662 1.488,-1.141 2.629,-1.141l5.95,0.054c-0.683,0.441 -1.046,0.683 -1.616,1.262c-0.459,0.496 -0.767,0.804 -1.113,1.396l-2.675,4.508c-0.825,1.384 -1.542,2.03 -2.712,3.125c-0.842,0.825 -1.375,1.234 -2.321,1.892l9.85,-0.158c1.321,-0.009 2.087,-0.204 3.229,-0.767c1.262,-0.654 2,-1.246 2.771,-2.458l6.987,-10.9c-1.516,-1.321 -6.446,-3.713 -7.896,-7.775c-0.645,-1.75 -0.87,-2.846 -0.775,-4.696c0.046,-1.554 0.317,-2.433 0.871,-3.908c0.488,-1.421 1.225,-2.059 1.675,-3.509c0.367,-1.112 0.542,-1.758 0.588,-2.937c-0,-0.909 -0.038,-1.45 -0.271,-2.329l3.612,1.937c0.842,0.488 1.292,0.917 1.796,1.767c0.496,0.879 0.609,1.533 0.542,2.525c-0.054,1.046 -0.504,1.554 -0.813,2.533c-0.57,1.617 -1.283,2.433 -1.458,4.108c-0.167,1.73 -0.129,2.817 0.6,4.405c0.871,2.012 2.263,2.6 3.983,3.983c2.188,1.767 3.63,2.608 6.221,3.704l0,-15.604l5.754,0.008l0,14.425c0,1.292 0.142,2.125 0.825,3.217c0.542,0.971 1.038,1.554 2.03,2.05l4.591,2.2c1.629,0.787 2.796,0.787 4.575,0.675c1.45,-0.075 2.263,-0.254 3.592,-0.825l8.271,-3.583c-1.046,0.15 -1.684,0.083 -2.734,-0.18c-1.141,-0.3 -1.645,-0.841 -2.695,-1.412l-10.7,-5.717c1.283,-1.029 1.862,-2.162 2.35,-3.854c0.466,-1.421 0.466,-2.337 0.383,-3.825c-0.142,-1.421 -0.55,-2.162 -0.871,-3.575c-0.204,-0.85 -0.496,-1.3 -0.496,-2.2c-0.054,-0.871 0,-1.396 0.309,-2.2c0.3,-0.675 0.45,-1.142 1.083,-1.533l4.575,-3.042c-0.129,0.767 -0.179,1.217 -0.179,2.029c-0,1.009 0.141,1.563 0.337,2.554c0.254,1.225 0.713,1.834 1.021,3.05c0.329,1.3 0.504,2.059 0.504,3.388c0.054,2.583 -0.391,4.133 -1.525,6.454l11.05,6.117c1.096,0.608 1.788,0.937 3.05,1.066c1.217,0.113 1.946,0.046 3.079,-0.391l10.167,-3.959c-1.075,0.13 -1.742,0.092 -2.733,-0.179c-1.179,-0.308 -1.684,-0.812 -2.713,-1.396l-10.525,-5.783c-0.646,-0.337 -1.046,-0.421 -1.691,-0.675c-0.721,-0.292 -1.121,-0.442 -1.9,-0.683c0.504,-0.729 0.6,-1.234 0.87,-2.029c0.405,-1.171 0.638,-1.842 0.85,-3.059c0.505,-2.808 0.18,-4.491 -0.354,-7.304c-0.496,-2.846 -1.854,-4.2 -2.321,-7.062c-0.27,-0.863 -0.354,-1.346 -0.308,-2.217c0.017,-0.825 -0.142,-1.563 0.496,-2.088l5.546,-4.658c-0.142,0.871 -0.196,1.358 -0.142,2.208c0,0.675 0.017,1.067 0.142,1.713c0.271,1.337 0.85,1.962 1.358,3.229c0.542,1.338 0.85,2.096 1.358,3.45c0.909,-0.879 1.396,-1.421 2.2,-2.433c1.384,-1.759 2.2,-2.809 2.871,-4.921c0.6,-1.75 0.775,-2.817 0.7,-4.658c-0.141,-1.88 -0.291,-3.08 -1.321,-4.642l-2.741,-4.058c-0.654,-1.009 -0.888,-1.75 -0.983,-2.946c-0.142,-1.579 0.329,-2.496 0.983,-3.975l2.741,-6.313c-0.354,1.15 -0.458,1.892 -0.316,3.088c0.112,0.879 0.233,1.396 0.625,2.171l2.187,4.108l2.809,3.696l2.771,6.416c0.404,2.292 0.404,3.705 -0,6.005c-0.563,2.87 -1.496,4.333 -3.005,6.845c-2.441,4.125 -6.845,7.596 -8.345,9.075c-0,0 0.158,1.209 0.141,1.975c-0.046,1.917 -0.412,3.005 -1.179,4.763l14.229,7.633c1.142,0.609 1.825,0.946 3.067,1.067c1.208,0.129 2.029,0.204 3.125,-0.392l6.942,-3.712c-1.009,0.346 -1.78,0.3 -2.721,-0.179c-1.075,-0.513 -1.45,-1.255 -1.863,-2.367c-0.992,-2.675 1.038,-5.333 3.379,-6.446c9.513,-4.592 19.45,-8.037 31.584,-13.712c13.637,-6.38 20.441,-11.938 34.462,-17.438c7.567,-2.967 11.638,-6.596 19.784,-6.587c5.05,0.016 8.429,-0.13 12.733,2.6c2.087,1.3 3.283,2.2 4.642,4.237c1.216,1.788 1.562,3.042 2.037,5.125c1.179,5.004 -2.237,7.963 -1.712,13.079c0.637,5.717 1.741,9.338 5.445,13.734c3.088,3.675 5.921,4.695 10.142,6.958c2.833,1.542 5.267,1.096 7.521,3.404c1.058,1.083 1.787,1.75 2.2,3.229c0.337,1.217 0.337,2.021 -0,3.229c2.35,0.075 3.733,-0.166 5.929,-1.02c3.313,-1.263 5.138,-2.696 7.129,-5.596l9.15,-0c0.888,1.533 1.171,2.6 1.196,4.366c0.029,2.013 0,3.5 -1.358,4.959c-1.413,1.496 -2.954,1.383 -4.967,1.712c-2.817,0.429 -4.454,-0.787 -7.304,-0.683c-3.192,0.121 -5.275,-0.038 -8.1,1.525c-3.154,1.767 -4.704,3.712 -5.95,7.129c-0.775,2.263 -0.946,3.725 -0.675,6.117c-1.292,0.812 -1.954,1.541 -2.713,2.891c-1.479,2.659 -1.479,5.146 0,7.8c1.45,-1.683 2.405,-2.525 4.259,-3.725c1.487,-0.97 2.404,-1.441 4.058,-2.029c0.204,-4.9 2.638,-8.429 7.129,-10.375c2.629,-1.112 4.509,-1.291 7.304,-0.675c-3.275,0.7 -5.2,1.788 -7.466,4.238c-2.909,3.162 -3.984,6.071 -3.742,10.366c-0.925,1.263 -1.225,2.313 -1.142,3.892c0.121,1.683 0.609,2.742 1.817,3.908c2.313,-3.808 4.854,-5.687 9.175,-6.77c2.188,-0.571 3.538,-0.646 5.783,-0.338c-0.983,-3.687 -0.354,-6.567 2.021,-9.504c2.509,-3.088 5.446,-4.313 9.384,-3.908c-2.33,0.654 -3.688,1.591 -5.146,3.554c-1.338,1.862 -2.059,3.321 -1.854,5.612c0.225,2.534 1.245,4.221 3.404,5.604c-0.092,1.255 0.029,2.03 0.487,3.209c0.534,1.254 1.046,1.929 2.096,2.771c0.367,-1.788 0.908,-2.817 2.179,-4.125c0.888,-0.925 1.534,-1.33 2.684,-1.855c1.916,-0.87 3.245,-0.3 5.295,-0.683c3.405,-0.646 5.892,-0.254 8.475,-2.554c1.9,-1.692 2.9,-3.142 3.255,-5.688c0.487,-3.237 -0.459,-5.733 -2.917,-7.895c0.512,-3.342 0.637,-5.275 0.512,-8.663c-0.129,-3.537 -0.412,-5.537 -1.254,-8.979l1.075,0.008c1.075,0 1.321,0.142 2.742,0.504c1.029,0.242 2.246,1.359 2.975,2.771c0.512,-1.946 0.579,-3.133 0.271,-5.116l0.008,-0.046l0.021,-0.017Zm-219.425,-91.05c-0.104,1.496 -0.6,2.696 -1.729,3.946c-1.217,1.346 -2.225,2.142 -3.854,2.142l-4.034,-0c1.046,1.029 1.909,1.833 1.909,3.5c-0,2.125 -1.721,3.845 -3.855,3.845c-2.133,0 -3.854,-1.72 -3.854,-3.845c0,-1.105 0.45,-2.067 1.179,-2.759l0.721,-0.737l-4.396,-0c-1,-0 -1.591,0.541 -2.358,1.346l0,-1.113c0,-0.675 -0.046,-1.254 0,-1.796c0.092,-1.141 1.142,-2.433 2.358,-2.433l12.884,0.008c1.766,0 3.762,-0.812 5.041,-2.096l-0.008,-0.008l-0.004,0Zm-13.921,-15.567c0.7,0 1.113,0.159 1.713,0.496c0.608,0.338 0.908,0.638 1.358,1.188l4.183,5.433c0.309,0.375 0.367,0.683 0.675,1.021c0.459,0.404 0.796,0.55 1.367,0.675l-3.388,-0c-1.02,-0 -1.637,-0.167 -2.562,-0.675c-0.863,-0.533 -1.233,-1.046 -1.854,-1.871l-3.379,-4.417c-0.292,-0.404 -0.442,-0.675 -0.805,-1.02c-0.45,-0.405 -0.737,-0.58 -1.245,-0.825l3.937,-0l0,-0.009l0,0.004Zm-13.629,-2.058c0.983,0 1.592,0.329 2.442,0.863c0.729,0.458 1.12,0.795 1.629,1.533l4.95,7.121c0.329,0.429 0.504,0.654 0.871,1.021c0.6,0.55 0.991,0.841 1.72,1.187l-4.529,0c-1.046,0 -1.75,-0.204 -2.583,-0.85c-0.663,-0.504 -0.842,-1 -1.271,-1.692l-4.087,-6.287c-0.405,-0.638 -0.638,-1.008 -1.188,-1.525c-0.767,-0.713 -1.3,-1.038 -2.275,-1.358l4.333,-0.009l-0.008,0l-0.004,-0.004Zm-11.254,2.058c0.683,0 1.083,0.159 1.666,0.496c0.638,0.338 0.963,0.638 1.375,1.188l4.221,5.433c0.271,0.375 0.329,0.683 0.675,1.021c0.421,0.404 0.775,0.55 1.346,0.675l-3.379,-0c-1.046,-0 -1.684,-0.167 -2.534,-0.675c-0.916,-0.533 -1.283,-1.046 -1.879,-1.871l-3.341,-4.417c-0.309,-0.404 -0.505,-0.675 -0.871,-1.02c-0.429,-0.405 -0.721,-0.58 -1.234,-0.825l3.959,-0l-0,-0.009l-0.004,0.004Zm-4.825,17.663l12.845,-0c0.775,-0 1.234,0.354 1.825,1.075c0.788,0.917 0.542,2.037 0.542,3.162l-0.112,0.955c-0.663,-0.646 -1.209,-1.188 -2.255,-1.188l-4.395,0c1.104,1.029 1.916,1.833 1.916,3.5c0,2.125 -1.729,3.846 -3.845,3.846c-2.105,-0 -3.825,-1.721 -3.825,-3.846c-0,-1.104 0.404,-2.067 1.141,-2.758l0.767,-0.738l-4.042,0c-1.675,0 -2.621,-0.804 -3.854,-2.141c-1.142,-1.263 -1.683,-2.442 -1.729,-3.946c1.233,1.283 3.237,2.096 5.033,2.096l-0.008,-0.009l-0.004,-0.008Zm-5.342,70.3l-1.542,4.417c-0.45,1.283 -0.504,2.087 -0.737,3.441c-0.413,2.771 -0.496,4.396 -0.292,7.196c-0.841,-0.675 -1.291,-1.121 -2.021,-1.954c-0.775,-0.842 -1.083,-1.383 -1.72,-2.329c-1.405,-2.163 -2,-3.538 -2.855,-5.904l-0.179,-0.767c-2.508,-0.775 -6.408,-1.029 -8.533,-3.725c-1.963,-2.458 -2.142,-4.5 -2.592,-7.579c-0.412,-2.571 -0.412,-4.117 0,-6.679l2.404,-7.121l2.434,-4.096l1.916,-4.567c0.355,-0.879 0.45,-1.458 0.542,-2.433c0.129,-1.321 0.067,-2.125 -0.271,-3.404l3.359,5.154c0.812,1.254 0.862,2.225 0.862,3.725c0.029,1.562 -0.092,2.546 -0.862,3.937l-3.359,6.371c-0.962,1.825 -1.046,3.104 -1.141,5.163c-0.092,2.021 -0.309,3.341 0.562,5.162c1.346,2.779 3.471,4.229 6.558,4.396c0.038,-1.308 0.092,-2.05 0.338,-3.342c0.254,-1.441 0.75,-2.17 0.983,-3.62c0.084,-0.646 0.129,-1.021 0.179,-1.675c0,-0.871 -0.046,-1.346 -0.179,-2.217l5.575,7.979c0.6,0.788 0.625,1.45 0.684,2.433c0.083,0.788 0.083,1.263 -0.142,2.03l0.029,-0l0,0.008Zm55.333,-55.55c-1.066,1.917 -1.983,2.9 -3.741,4.237c-1.863,1.405 -3.275,1.617 -5.417,2.534c-0.487,0.204 -0.804,0.196 -1.208,0.525c-0.45,0.441 -0.45,0.916 -0.684,1.525c-0.329,0.954 -0.179,1.571 -0.504,2.554c-0.404,1.262 -0.675,2.029 -1.517,3.05c-1.158,1.358 -2.162,2.012 -3.92,2.421c-0.03,2.508 -0.142,3.921 -0.45,6.4c-0.367,3.029 -0.738,4.696 -1.525,7.633c0.479,0.946 0.7,1.488 1.02,2.508c0.505,1.6 0.663,2.6 0.6,4.296c-0.083,2.35 -0.233,3.959 -1.675,5.817c-2.808,3.612 -7.108,1.233 -11.654,1.233c-4.591,0 -8.904,2.375 -11.712,-1.233c-1.45,-1.863 -1.592,-3.471 -1.684,-5.817c-0.045,-1.691 0.105,-2.696 0.58,-4.296c0.329,-1.02 0.55,-1.562 1.045,-2.508c-0.812,-2.937 -1.12,-4.604 -1.533,-7.633c-0.329,-2.488 -0.421,-3.892 -0.45,-6.4c-1.767,-0.413 -2.771,-1.067 -3.908,-2.421c-0.85,-1.021 -1.142,-1.788 -1.534,-3.05c-0.308,-0.971 -0.179,-1.592 -0.495,-2.554c-0.234,-0.609 -0.196,-1.084 -0.684,-1.525c-0.366,-0.329 -0.729,-0.309 -1.187,-0.525c-2.179,-0.917 -3.575,-1.121 -5.434,-2.534c-1.766,-1.345 -2.675,-2.329 -3.725,-4.237c-1.216,-2.179 -1.908,-3.65 -1.72,-6.117c0.129,-1.396 0.179,-1.75 0.541,-3.087c0.204,-0.7 0.625,-1.525 0.954,-2.163c0.392,-0.766 0.767,-1.112 1.359,-1.691c0.637,-0.638 1.083,-0.938 1.862,-1.359l0,7.025c0,2.609 0.496,4.275 2.029,6.379c1.413,1.955 2.75,2.721 4.959,3.742c2.125,0.992 3.537,1.321 5.941,1.346c-0.179,1.654 -0.083,2.658 0.33,4.258c0.45,1.617 0.6,2.809 1.862,3.892c1.271,1.075 2.421,1.121 4.079,1.187c1.592,0.067 2.554,-0.129 4.004,-0.804c1.121,-0.525 2.405,-0.675 2.638,-1.916c0.075,-0.513 -0,-0.842 -0.196,-1.359c-0.329,-1.075 -1.217,-1.3 -1.817,-2.246c-0.495,-0.812 -0.812,-1.3 -1.083,-2.254c-0.292,-0.825 -0.504,-1.366 -0.367,-2.237c0.075,-0.692 -0.045,-1.617 0.638,-1.617l9.392,0c0.675,0 0.541,0.925 0.654,1.617c0.158,0.879 -0.113,1.404 -0.392,2.237c-0.271,0.946 -0.571,1.442 -1.083,2.254c-0.6,0.946 -1.496,1.18 -1.825,2.246c-0.159,0.525 -0.271,0.842 -0.179,1.359c0.233,1.245 1.495,1.383 2.637,1.916c1.45,0.675 2.396,0.871 3.983,0.804c1.675,-0.066 2.817,-0.112 4.088,-1.187c1.262,-1.083 1.421,-2.275 1.862,-3.892c0.45,-1.6 0.496,-2.6 0.367,-4.258c2.35,-0.029 3.763,-0.346 5.913,-1.346c2.216,-1.008 3.516,-1.787 4.929,-3.742c1.541,-2.112 2.037,-3.762 2.037,-6.379l0,-7.025c0.775,0.421 1.217,0.721 1.863,1.359c0.608,0.579 0.991,0.925 1.358,1.691c0.317,0.638 0.767,1.459 0.954,2.163c0.404,1.346 0.429,1.691 0.542,3.087c0.188,2.471 -0.504,3.946 -1.704,6.117l-0.013,-0Z" style="fill:#003087;"/></g><g><path d="M508.742,282.104c3.32,-8.354 7.604,-16.521 13.179,-25.371c6.933,-11.058 16.679,-20.495 29.587,-23.854l1.929,3.883c-3.516,2.796 -3.704,6.242 -2.57,10.367c2.458,9.046 10.887,11.617 18.962,8.625c9.354,-3.45 13.367,-14.096 12.263,-23.479c-4.088,-17.754 -26.304,-18.383 -39.534,-10.983c-18.42,10.279 -30.037,40.433 -33.508,59.15l-0.308,1.675l-0,-0.013Zm37.7,-42.825c-12.209,5.658 -19.563,17.408 -25.875,28.746c-10.309,18.438 -13.742,30.542 -16.475,51.592c-3.267,25.033 0.983,68.233 7.304,91.687c11.675,43.134 19.392,66.692 58.242,99.113l6.716,26.575c-4.754,21.308 -8.596,32.958 -17.541,52.8c-7.821,17.333 -12.538,27.504 -24.23,42.8c-11.554,15.1 -19.279,23.304 -34.791,34.454c-20.788,14.958 -35.575,19.383 -59.871,26.25c-19.663,5.596 -31.946,6.275 -52.013,11.721c-29.279,7.941 -47.054,12.75 -72.333,30.608c-8.188,5.783 -14.996,11.6 -22.225,18.542c-16.392,-15.709 -34.679,-28.596 -55.8,-37.242c-14.546,-5.958 -23.492,-7.762 -38.758,-11.908c-20.067,-5.446 -32.35,-6.129 -52.004,-11.721c-24.284,-6.867 -39.105,-11.292 -59.888,-26.25c-15.521,-11.15 -23.237,-19.354 -34.792,-34.454c-11.691,-15.288 -16.4,-25.463 -24.229,-42.8c-8.954,-19.85 -12.779,-31.488 -17.529,-52.8l6.717,-26.575c23.846,-19.896 35.062,-34.688 47.325,-63.192c5.033,-11.692 7.971,-23.538 10.9,-35.858c5.212,-22.013 6.958,-34.829 7.875,-57.421c0.541,-13.388 1.179,-21.059 -0.542,-34.334c-3.096,-23.975 -8.858,-40.329 -21.562,-60.533c-4.959,-7.875 -12.217,-15.837 -20.775,-19.804c1.187,3.35 0.683,5.95 -0.159,9.017c-3.141,11.562 -14.258,15.491 -24.771,11.6c-12.862,-4.771 -17.708,-20.292 -14.237,-32.613c4.396,-15.612 11.271,-21.058 21.758,-32.246c7.392,-7.904 16.438,-13.75 24.184,-21.254c16.595,-16.091 25.641,-25.566 36.008,-47.437c29.962,8.129 46.804,5.229 75.887,-2.592c18.738,-5.033 28.784,-11.525 48.092,-15.35c14.229,-2.833 24.538,-4.229 36.95,-4.229c17.642,-0 35.408,6.275 49.383,16.971c13.967,-10.7 31.742,-16.971 49.384,-16.971c12.404,-0 22.712,1.396 36.933,4.229c19.317,3.825 29.354,10.317 48.104,15.35c28.979,7.792 46.017,10.692 75.896,2.592c11.667,24.658 27.092,40.975 48.067,57.729c10.241,8.187 25.912,22.967 30.9,35.204c1.458,3.612 2.712,7.146 3.441,10.675c0.13,0.45 0.255,0.917 0.367,1.383c0.825,5.688 0.338,11.346 -2.862,17.288c-2.967,5.491 -6.042,8.991 -12.2,11.283c-10.505,3.883 -21.63,-0.037 -24.792,-11.6c-0.813,-3.058 -1.338,-5.658 -0.15,-9.008l-0.029,-0.017Zm-529.8,290.925c15.65,-15.325 28.55,-33.154 37.333,-53.229c-8.4,13.058 -18.383,23.687 -32.967,35.933l-4.366,17.296Zm61.266,-248.362l-0.241,-1.413c-4.184,-22.517 -19.225,-60.954 -47.129,-63.492c-11.021,-1 -22.45,2.938 -25.659,14.321c-0.954,4.996 -0.675,10 2.163,15.25c2.608,4.863 4.975,7.438 9.833,9.234c8.083,2.991 16.521,0.42 18.979,-8.625c1.121,-4.125 0.946,-7.567 -2.571,-10.367l1.93,-3.883c17.391,4.508 26.558,18.187 34.808,32.983c3.229,5.771 5.8,10.962 7.896,15.979l-0,0.008l-0.009,0.005Zm493.746,255.958c-19.925,-18.204 -35.912,-40.196 -45.575,-65.467c-3.191,-8.391 -5.846,-17.129 -9.758,-28.279l0.179,-0.067c-3.304,-9.495 -6.183,-19.841 -9.354,-31.525c-5.929,-21.983 -10.067,-61.095 -8.083,-87.016c0.608,-16.888 2.554,-29.104 5.633,-45.8c4.612,-24.913 20.825,-64.371 51.079,-67.121c7.596,-0.675 15.2,0.737 21.021,4.621c-3.983,-7.063 -9.233,-11.667 -16.167,-19.067c-7.333,-7.837 -16.354,-13.658 -24.033,-21.112c-15.296,-14.83 -25.746,-25.492 -35.35,-45.388c-28.308,7.454 -47.263,3.817 -74.625,-3.546c-18.633,-4.996 -28.608,-11.479 -47.804,-15.287c-13.884,-2.771 -23.975,-4.134 -36.084,-4.134c-18.533,0 -35.004,6.875 -49.383,18.175c-8.242,-6.475 -12.796,-9.325 -22.554,-13.02c-10.038,-3.78 -17.008,-5.146 -26.821,-5.146c-12.125,-0 -22.192,1.366 -36.083,4.133c-19.204,3.817 -29.188,10.3 -47.804,15.288c-27.363,7.362 -46.317,11 -74.625,3.545c-11.03,22.892 -28.113,40.3 -47.73,55.971c-8.445,6.746 -21.412,18.738 -27.52,29.309c10.095,-6.492 25.25,-5.471 36.1,0.57c19.72,11.021 31.945,42.005 35.7,62.23c3.079,16.687 5.033,28.87 5.695,45.737c0.871,10 0.346,17.354 -0.129,28.758c-1.046,26.109 -5.408,51.684 -12.608,76.767c-1.225,4.283 -2.629,8.504 -4.508,13.275c-6.763,19.392 -12.134,37.221 -23.071,54.717c-10.467,16.762 -17.988,25.821 -32.321,38.908c6.933,30.504 21.508,67.196 40.571,92.117c11.346,14.837 18.775,22.712 33.854,33.554c20.133,14.479 34.296,18.721 58.504,25.596c19.638,5.575 31.917,6.258 51.958,11.691c29.984,8.138 47.813,12.946 73.725,31.275c8.15,5.755 12.817,9.55 19.684,16.034c15.679,-14.867 34.1,-27.054 54.116,-35.238c14.742,-6.025 23.809,-7.875 39.292,-12.066c20.046,-5.434 32.313,-6.117 51.946,-11.692c24.221,-6.867 38.383,-11.113 58.512,-25.596c15.071,-10.842 22.517,-18.721 33.855,-33.554c19.054,-24.921 33.62,-61.6 40.57,-92.108l-0.008,-0.029l0.004,-0.013Zm-37.587,-58.308c2.562,5.745 5.471,11.412 8.979,17.033c9.083,14.592 15.821,23.133 27.062,33.808l-4.416,-17.429c-14.013,-11.75 -24.013,-22.479 -31.638,-33.425l0.013,0.013Z" style="fill:#003087;fill-rule:nonzero;"/></g></g></svg>