<?xml version="1.0" encoding="utf-8"?>
<!-- Generator: Adobe Illustrator 28.0.0, SVG Export Plug-In . SVG Version: 6.00 Build 0)  -->
<svg version="1.1" id="klmdembleem2023_x5F_mono_x5F_FIXDEV20_xA0_Image_00000023964333218846470770000001326995911375729809_"
	 xmlns="http://www.w3.org/2000/svg" xmlns:xlink="http://www.w3.org/1999/xlink" x="0px" y="0px" viewBox="0 0 770.02 771.92"
	 style="enable-background:new 0 0 770.02 771.92;" xml:space="preserve">
<style type="text/css">
	.st0{fill:#FFFFFF;}
</style>
<g id="taustaring">
	<g>
		<path d="M384.6,27.26C186.01,27.06,25.16,187.73,24.85,386.24c-0.3,198.61,160.19,360.03,359.45,360.03
			c198.58,0,359.23-160.88,359.46-359.35C743.69,188.14,582.78,27.46,384.6,27.26z"/>
	</g>
</g>
<g id="mook">
	<path class="st0" d="M383.66,491.71c-1.3,0.37-2.33,0.27-3.35,0.27c-5.88-0.01-11.71-0.53-17.52-1.4c-0.4-0.06-0.78-0.31-1.3-0.52
		c-0.03-1.57-0.09-3.11-0.09-4.66c0.03-9.23,0.07-18.46,0.12-27.7c0.11-20.97,0.2-41.93,0.34-62.9c0.12-18.55,0.27-37.1,0.46-55.65
		c0.19-18.29,0.38-36.58,0.7-54.87c0.22-12.16,0.61-24.32,1.04-36.48c0.2-5.6,0.5-11.2,1.21-16.77c0.95-7.37,2.41-14.63,4.29-21.81
		c2.8-10.68,5.85-21.28,9.85-31.58c0.84-2.18,1.96-4.21,3.05-6.27c1.35-2.56,4.68-2.76,6.18,0.04c0.98,1.82,1.94,3.66,2.71,5.57
		c2.49,6.16,4.56,12.47,6.43,18.84c2.32,7.94,4.59,15.91,6.2,24.03c1.22,6.18,2.06,12.41,2.44,18.71
		c0.6,10.08,0.96,20.16,1.13,30.26c0.14,7.94,0.32,15.87,0.5,23.81c0.76,33.47,0.84,66.95,1.04,100.43
		c0.18,30.72,0.34,61.43,0.5,92.15c0.01,1.63-0.08,3.26-0.13,5.01c-3.63,1.01-7.25,1.14-10.82,1.48c-5.62,0.53-9.05,0.43-11.15-0.09
		c-0.05-0.37-0.15-0.78-0.16-1.2c-0.03-0.95-0.01-1.9-0.01-2.85c0-99.31,0-198.63,0-297.94c0-1.29,0.02-2.59-0.07-3.88
		c-0.07-1.07-0.69-1.61-1.64-1.64c-0.96-0.03-1.64,0.48-1.83,1.46c-0.1,0.5-0.11,1.03-0.12,1.54c-0.02,1.55-0.02,3.11-0.02,4.66
		c0,98.71,0,197.42,0,296.13C383.66,489.09,383.66,490.3,383.66,491.71z"/>
	<path class="st0" d="M449.43,486.26c0.34,2.12,0.36,32.75,0.02,34.89c-0.75,0.46-1.49,0.11-2.22-0.07
		c-8.22-1.91-16.44-3.84-24.66-5.75c-2.52-0.58-5.04-1.13-7.57-1.67c-2.88-0.61-5.78-0.88-8.73-0.87
		c-13.97,0.04-27.94,0.09-41.9-0.02c-4.95-0.04-9.79,0.6-14.62,1.53c-7.11,1.37-14.08,3.34-21.09,5.12
		c-2.34,0.59-4.68,1.16-7.03,1.72c-0.49,0.12-1.01,0.11-1.54,0.16c-0.1-0.31-0.25-0.55-0.25-0.79c-0.01-11.21-0.01-22.42,0-33.63
		c0-0.24,0.15-0.48,0.28-0.89c0.85,0.17,1.69,0.29,2.51,0.51c4.83,1.27,9.66,2.54,14.48,3.86c9.16,2.51,18.45,4.3,27.91,5.19
		c4.89,0.46,9.78,0.94,14.69,1.09c5.01,0.15,10-0.06,14.98-0.47c4.04-0.33,8.07-0.74,12.09-1.19c8.32-0.91,16.52-2.53,24.64-4.53
		c5.1-1.26,10.17-2.65,15.25-3.98C447.59,486.26,448.48,485.87,449.43,486.26z"/>
	<path class="st0" d="M367.49,518.03c6.85-1.57,29.95-1.53,35.71,0.04c0.04,0.43,0.16,0.92,0.13,1.41c-0.26,3.7-0.53,7.4-0.83,11.09
		c-0.43,5.24-0.87,10.48-1.34,15.72c-0.43,4.9-0.89,9.79-1.35,14.68c-0.4,4.21-0.82,8.41-1.25,12.61c-0.16,1.54-0.33,3.09-0.56,4.62
		c-0.23,1.53-0.82,2-2.43,2.12c-0.17,0.01-0.34,0.01-0.52,0.01c-6.12,0.02-12.25,0.03-18.37,0.06c-3.11,0.01-3.91-0.54-4.18-3.82
		c-0.55-6.7-1.31-13.38-1.94-20.08c-0.63-6.69-1.24-13.39-1.82-20.09c-0.46-5.33-0.85-10.66-1.26-15.99
		C367.44,519.66,367.49,518.9,367.49,518.03z"/>
	<path class="st0" d="M385.36,585.02c5.25,0,10.51,0.06,15.76-0.02c4.68-0.07,8.06,2.06,10.56,5.83c1.44,2.17,1.41,4.37,0.04,6.55
		c-1.46,2.33-3.52,3.99-5.97,5.18c-2.72,1.32-5.57,2.31-8.53,2.93c-8.39,1.74-16.77,1.66-25.1-0.32c-2.69-0.64-5.25-1.67-7.7-2.94
		c-2.02-1.05-3.72-2.49-5.03-4.36c-1.79-2.56-1.81-4.87-0.03-7.41c2.49-3.54,5.77-5.53,10.24-5.46
		C374.85,585.09,380.1,585.02,385.36,585.02z"/>
</g>
<g id="tornmuurparem">
	
		<rect x="530.71" y="277.9" transform="matrix(-1 -1.224647e-16 1.224647e-16 -1 1074.9148 584.4631)" class="st0" width="13.49" height="28.67"/>
	
		<rect x="485.46" y="277.9" transform="matrix(-1 -1.224647e-16 1.224647e-16 -1 1012.7652 584.7479)" class="st0" width="41.84" height="28.95"/>
	
		<rect x="469.83" y="277.73" transform="matrix(-1 -1.224647e-16 1.224647e-16 -1 952.309 584.5782)" class="st0" width="12.65" height="29.12"/>
	
		<rect x="533.85" y="243.19" transform="matrix(-1 -1.224647e-16 1.224647e-16 -1 1087.64 517.0289)" class="st0" width="19.94" height="30.65"/>
	
		<rect x="497.32" y="243.75" transform="matrix(-1 -1.224647e-16 1.224647e-16 -1 1012.2246 517.577)" class="st0" width="17.58" height="30.08"/>
	
		<rect x="459.69" y="243.75" transform="matrix(-1 -1.224647e-16 1.224647e-16 -1 938.2979 517.5865)" class="st0" width="18.93" height="30.09"/>
	
		<rect x="509.65" y="310.36" transform="matrix(-1 -1.224647e-16 1.224647e-16 -1 1053.8489 646.8689)" class="st0" width="34.55" height="26.15"/>
	
		<rect x="469.82" y="310.35" transform="matrix(-1 -1.224647e-16 1.224647e-16 -1 971.8535 646.8654)" class="st0" width="32.21" height="26.16"/>
	
		<rect x="597.64" y="339.52" transform="matrix(-1 -1.224647e-16 1.224647e-16 -1 1226.0187 708.5759)" class="st0" width="30.74" height="29.55"/>
	
		<rect x="547.59" y="339.6" transform="matrix(-1 -1.224647e-16 1.224647e-16 -1 1142.0032 708.4934)" class="st0" width="46.82" height="29.3"/>
	
		<rect x="531.52" y="339.6" transform="matrix(-1 -1.224647e-16 1.224647e-16 -1 1075.7252 708.4934)" class="st0" width="12.68" height="29.3"/>
	
		<rect x="486.55" y="339.6" transform="matrix(-1 -1.224647e-16 1.224647e-16 -1 1014.411 708.4934)" class="st0" width="41.31" height="29.3"/>
	
		<rect x="469.97" y="339.6" transform="matrix(-1 -1.224647e-16 1.224647e-16 -1 952.7242 708.4934)" class="st0" width="12.79" height="29.3"/>
	
		<rect x="564.82" y="372.76" transform="matrix(-1 -1.224647e-16 1.224647e-16 -1 1192.6415 775.5021)" class="st0" width="62.99" height="29.99"/>
	
		<rect x="547.6" y="372.8" transform="matrix(-1 -1.224647e-16 1.224647e-16 -1 1108.6887 775.6791)" class="st0" width="13.48" height="30.08"/>
	
		<rect x="509.65" y="372.77" transform="matrix(-1 -1.224647e-16 1.224647e-16 -1 1053.8489 775.6476)" class="st0" width="34.55" height="30.11"/>
	
		<rect x="469.97" y="372.8" transform="matrix(-1 -1.224647e-16 1.224647e-16 -1 971.9955 775.5479)" class="st0" width="32.06" height="29.95"/>
	
		<rect x="598.2" y="406.49" transform="matrix(-1 -1.224647e-16 1.224647e-16 -1 1226.0187 844.6324)" class="st0" width="29.62" height="31.66"/>
	
		<rect x="547.6" y="406.49" transform="matrix(-1 -1.224647e-16 1.224647e-16 -1 1142.0146 844.6324)" class="st0" width="46.81" height="31.66"/>
	
		<rect x="531.54" y="406.49" transform="matrix(-1 -1.224647e-16 1.224647e-16 -1 1075.7419 844.6324)" class="st0" width="12.66" height="31.66"/>
	
		<rect x="486.59" y="406.17" transform="matrix(-1 -1.224647e-16 1.224647e-16 -1 1014.4512 844.4252)" class="st0" width="41.28" height="32.08"/>
	
		<rect x="469.52" y="406.18" transform="matrix(-1 -1.224647e-16 1.224647e-16 -1 952.5974 844.438)" class="st0" width="13.55" height="32.07"/>
	
		<rect x="564.8" y="441.71" transform="matrix(-1 -1.224647e-16 1.224647e-16 -1 1199.5376 912.813)" class="st0" width="69.94" height="29.38"/>
	
		<rect x="547.6" y="441.69" transform="matrix(-1 -1.224647e-16 1.224647e-16 -1 1108.6887 912.793)" class="st0" width="13.48" height="29.4"/>
	
		<rect x="469.97" y="441.71" transform="matrix(-1 -1.224647e-16 1.224647e-16 -1 1014.1666 912.813)" class="st0" width="74.24" height="29.38"/>
	
		<rect x="597.53" y="474.93" transform="matrix(-1 -1.224647e-16 1.224647e-16 -1 1225.3435 977.7877)" class="st0" width="30.29" height="27.93"/>
	
		<rect x="547.6" y="474.93" transform="matrix(-1 -1.224647e-16 1.224647e-16 -1 1142.0109 977.7877)" class="st0" width="46.81" height="27.93"/>
	
		<rect x="531.52" y="475.18" transform="matrix(-1 -1.224647e-16 1.224647e-16 -1 1075.7252 978.0409)" class="st0" width="12.68" height="27.68"/>
	
		<rect x="486.59" y="475.18" transform="matrix(-1 -1.224647e-16 1.224647e-16 -1 1014.4471 977.9044)" class="st0" width="41.28" height="27.54"/>
	
		<rect x="469.97" y="474.86" transform="matrix(-1 -1.224647e-16 1.224647e-16 -1 953.0386 977.7208)" class="st0" width="13.11" height="28"/>
	<rect x="459.69" y="259.98" class="st0" width="93.76" height="13.85"/>
</g>
<g id="tornmuurvasak">
	<rect x="224.83" y="277.67" class="st0" width="13.49" height="28.67"/>
	<rect x="241.72" y="277.67" class="st0" width="41.84" height="28.95"/>
	<rect x="286.55" y="277.51" class="st0" width="12.65" height="29.12"/>
	<rect x="215.24" y="242.97" class="st0" width="19.94" height="30.65"/>
	<rect x="254.12" y="243.53" class="st0" width="17.58" height="30.08"/>
	<rect x="290.42" y="243.53" class="st0" width="18.93" height="30.09"/>
	<rect x="224.83" y="310.13" class="st0" width="34.55" height="26.15"/>
	<rect x="267" y="310.13" class="st0" width="32.21" height="26.16"/>
	<rect x="140.89" y="339.37" class="st0" width="30.26" height="29.3"/>
	<rect x="174.62" y="339.37" class="st0" width="46.82" height="29.3"/>
	<rect x="224.83" y="339.37" class="st0" width="12.68" height="29.3"/>
	<rect x="241.17" y="339.37" class="st0" width="41.31" height="29.3"/>
	<rect x="286.27" y="339.37" class="st0" width="12.79" height="29.3"/>
	<rect x="141.21" y="372.53" class="st0" width="62.99" height="29.99"/>
	<rect x="207.94" y="372.58" class="st0" width="13.48" height="30.08"/>
	<rect x="224.83" y="372.55" class="st0" width="34.55" height="30.11"/>
	<rect x="267" y="372.58" class="st0" width="32.06" height="29.95"/>
	<rect x="141.21" y="406.26" class="st0" width="29.62" height="31.66"/>
	<rect x="174.62" y="406.26" class="st0" width="46.81" height="31.66"/>
	<rect x="224.83" y="406.26" class="st0" width="12.66" height="31.66"/>
	<rect x="241.16" y="405.95" class="st0" width="41.28" height="32.08"/>
	<rect x="285.96" y="405.96" class="st0" width="13.11" height="32.07"/>
	<rect x="135.29" y="441.49" class="st0" width="68.94" height="29.38"/>
	<rect x="207.94" y="441.47" class="st0" width="13.48" height="29.4"/>
	<rect x="224.83" y="441.49" class="st0" width="74.24" height="29.38"/>
	<rect x="141.21" y="474.71" class="st0" width="30.29" height="27.93"/>
	<rect x="174.62" y="474.71" class="st0" width="46.81" height="27.93"/>
	<rect x="224.83" y="474.96" class="st0" width="12.68" height="27.68"/>
	<rect x="241.17" y="474.96" class="st0" width="41.28" height="27.54"/>
	<rect x="285.96" y="474.64" class="st0" width="13.11" height="28"/>
	
		<rect x="215.24" y="259.75" transform="matrix(-1 -1.224647e-16 1.224647e-16 -1 524.2419 533.3575)" class="st0" width="93.76" height="13.85"/>
</g>
<g id="kett">
	<g>
		<path class="st0" d="M547.97,648.48c-5.86,0-11.57-1.2-16.98-3.56c-3.22-1.41-6.26-3.54-9.58-6.7c-0.75-0.72-1.17-1.52-1.44-2.04
			c-0.06-0.12-0.13-0.25-0.2-0.38l-1.95-3.24l3.12-2.13c0.15-0.1,0.29-0.2,0.42-0.3c0.46-0.34,1.03-0.76,1.79-1.1
			c1.31-0.58,2.64-1.13,3.97-1.68l3.95-1.64c1.99-0.82,3.98-1.65,5.96-2.5c1.44-0.61,2.92-0.93,4.4-0.93c0.89,0,1.8,0.11,2.69,0.34
			c1.68,0.42,3.44,0.63,5.22,0.63c3.18,0,6.62-0.67,10.51-2.04c6.42-2.26,12.44-5.43,17.91-9.42c0.6-0.44,1.22-0.87,1.83-1.3
			c0.88-0.61,1.71-1.19,2.49-1.79c0.9-0.7,1.54-1.29,2.01-1.86c0.14-0.17,0.23-0.29,0.28-0.38c-0.04-0.08-0.1-0.18-0.19-0.32
			c-0.91-1.38-1.88-2.59-2.89-3.62c-4.11-4.16-8.35-8.36-12.44-12.42l-4.47-4.43c-2.49-2.47-5.07-5.03-7.63-7.5
			c-0.42-0.4-0.99-0.81-1.69-1.21c-0.29-0.17-0.43-0.17-0.45-0.17c-0.07,0-0.26,0.08-0.54,0.31c-0.58,0.49-1.07,0.98-1.46,1.46
			c-3.08,3.81-5.75,7.79-7.92,11.83c-2.77,5.14-3.77,6.14-7.64,7.61c-0.45,0.17-0.97,0.37-1.57,0.62
			c-4.24,1.74-8.48,3.47-12.73,5.17c-0.12,0.05-0.23,0.1-0.35,0.15c-0.77,0.35-1.95,0.87-3.52,0.87c-0.37,0-0.74-0.03-1.1-0.09
			l-3.03-0.48l-0.32-3.05l-0.01-0.03c-0.1-0.5-0.27-1.42,0-2.52c0.37-1.47,0.79-3.14,1.36-4.81c2.7-7.86,6.11-15.21,10.13-21.84
			c5.32-8.79,11.67-16.91,18.85-24.14c6.66-6.71,14.39-12.83,22.96-18.21c7.44-4.67,15.57-8.39,24.14-11.07l0.18-0.06
			c1.57-0.49,3.35-1.05,5.38-1.05c0.17,0,0.34,0,0.51,0.01l1.62,0.08l1.11,1.19c1.04,1.12,2.05,3.04,0.88,5.82
			c-0.79,2.1-1.64,4.26-2.64,6.69c-0.42,1.02-0.85,2.04-1.29,3.05c-0.76,1.78-1.48,3.46-2.11,5.18c-1.27,3.46-3.49,5.95-6.79,7.62
			c-4.05,2.05-8.14,4.68-12.86,8.27c-0.82,0.62-1.39,1.26-1.8,2.01c-0.15,0.28-0.16,0.41-0.16,0.41h0c0,0,0.02,0.06,0.08,0.15
			c0.59,0.91,1.15,1.62,1.71,2.19c4.74,4.77,9.51,9.52,14.27,14.26l2.85,2.84c2.41,2.4,4.9,4.89,7.39,7.27
			c0.76,0.73,1.67,1.45,2.96,2.36c0.3,0.21,0.54,0.27,0.64,0.27c0.03-0.01,0.11-0.06,0.24-0.19c0.25-0.27,0.5-0.53,0.76-0.8
			c0.77-0.81,1.5-1.58,2.09-2.35c4.66-6.14,8.38-12.6,11.05-19.2c1.43-3.52,2.34-7.43,2.79-11.94c0.13-1.33-0.03-2.8-0.53-4.77
			c-0.74-2.91-0.52-5.8,0.67-8.6c0.68-1.62,1.36-3.24,2.04-4.87c0.95-2.28,1.9-4.55,2.87-6.83l0.12-0.28
			c0.48-1.15,1.2-2.88,3.06-4.27l2.51-1.87l2.42,1.99c0.21,0.18,0.44,0.34,0.66,0.51c0.67,0.51,1.43,1.09,2.15,1.89
			c2.86,3.21,4.79,6.18,6.07,9.35c2.74,6.79,3.68,13.94,2.79,21.25c-1.26,10.36-4.53,20.38-9.73,29.78
			c-3.63,6.56-7.38,12.32-11.48,17.62c-4.36,5.64-9.15,10.87-14.22,15.56c-6.24,5.76-12.91,10.9-19.83,15.25
			c-2.75,1.73-5.65,3.38-8.64,4.9c-9.21,4.69-18.65,7.66-28.06,8.84C551.7,648.36,549.82,648.48,547.97,648.48z"/>
		<path d="M597.42,521.48c0.11,0,0.22,0,0.32,0.01c0.61,0.66,0.23,1.25,0.03,1.77c-0.82,2.18-1.68,4.34-2.56,6.5
			c-1.14,2.79-2.41,5.54-3.45,8.37c-0.92,2.49-2.47,4.23-4.84,5.43c-4.78,2.42-9.21,5.41-13.48,8.65c-1.19,0.9-2.17,1.95-2.89,3.27
			c-0.87,1.58-0.9,3.16,0.08,4.66c0.65,1,1.39,1.98,2.23,2.83c5.22,5.26,10.48,10.49,15.74,15.72c2.93,2.92,5.86,5.85,8.84,8.72
			c1.05,1.01,2.23,1.91,3.43,2.75c0.87,0.61,1.89,1,2.94,1c1.09,0,2.2-0.42,3.16-1.46c1.06-1.13,2.17-2.23,3.1-3.46
			c4.71-6.21,8.64-12.88,11.58-20.12c1.7-4.2,2.61-8.57,3.06-13.04c0.21-2.08-0.13-4.14-0.64-6.15c-0.53-2.1-0.36-4.09,0.48-6.07
			c1.64-3.89,3.25-7.8,4.9-11.68c0.43-1.01,0.79-2.09,1.89-2.91c0.81,0.67,1.69,1.23,2.36,1.98c2.19,2.45,4.1,5.09,5.35,8.19
			c2.51,6.21,3.34,12.6,2.53,19.27c-1.22,10.07-4.36,19.47-9.26,28.33c-3.3,5.98-6.97,11.71-11.14,17.11
			c-4.17,5.39-8.75,10.43-13.77,15.07c-5.97,5.52-12.37,10.48-19.25,14.81c-2.7,1.7-5.48,3.27-8.32,4.72
			c-8.44,4.29-17.32,7.26-26.74,8.44c-1.72,0.21-3.42,0.32-5.11,0.32c-5.28,0-10.41-1.06-15.38-3.23c-3.2-1.4-5.91-3.54-8.42-5.93
			c-0.4-0.39-0.61-0.98-0.98-1.59c0.6-0.41,1.05-0.82,1.57-1.05c1.73-0.77,3.49-1.48,5.24-2.21c2.86-1.19,5.74-2.37,8.59-3.58
			c0.93-0.4,1.87-0.61,2.83-0.61c0.56,0,1.13,0.07,1.71,0.22c2.08,0.52,4.15,0.75,6.19,0.75c4.02,0,7.97-0.9,11.84-2.27
			c6.78-2.39,13.11-5.71,18.93-9.96c1.46-1.07,2.99-2.05,4.42-3.16c0.95-0.73,1.87-1.54,2.64-2.46c1.54-1.85,1.68-3.46,0.36-5.46
			c-0.99-1.5-2.12-2.95-3.38-4.22c-5.21-5.27-10.5-10.48-15.76-15.7c-2.94-2.92-5.87-5.84-8.85-8.71c-0.73-0.71-1.61-1.31-2.5-1.81
			c-0.82-0.46-1.63-0.69-2.41-0.69c-1.08,0-2.13,0.43-3.11,1.25c-0.72,0.61-1.41,1.28-2,2.01c-3.15,3.9-5.96,8.04-8.34,12.45
			c-2.92,5.41-2.89,4.65-7.21,6.42c-4.23,1.74-8.46,3.46-12.7,5.16c-0.74,0.3-1.46,0.74-2.38,0.74c-0.15,0-0.31-0.01-0.47-0.04
			c-0.04-0.38-0.19-0.81-0.1-1.17c0.38-1.5,0.76-3.01,1.26-4.48c2.53-7.36,5.73-14.4,9.77-21.07c5.17-8.53,11.25-16.33,18.26-23.4
			c6.71-6.76,14.18-12.58,22.25-17.64c7.28-4.56,15.02-8.08,23.2-10.64C594.5,521.96,595.94,521.48,597.42,521.48 M597.42,513.48
			c-2.64,0-4.82,0.68-6.58,1.23l-0.18,0.05c-8.9,2.78-17.33,6.65-25.07,11.5c-8.83,5.54-16.8,11.86-23.68,18.78
			c-7.41,7.45-13.94,15.83-19.43,24.89c-4.16,6.87-7.69,14.48-10.49,22.62c-0.63,1.84-1.09,3.67-1.46,5.14
			c-0.47,1.89-0.21,3.44-0.07,4.17l0.62,5.88l6.05,0.97c0.57,0.09,1.16,0.14,1.74,0.14c2.43,0,4.2-0.79,5.15-1.22
			c0.07-0.03,0.14-0.06,0.21-0.09c3.72-1.49,7.66-3.09,12.75-5.18c0.57-0.23,1.06-0.42,1.48-0.58c5.08-1.93,6.73-3.85,9.74-9.45
			c1.88-3.49,4.15-6.94,6.77-10.27c2.22,2.15,4.44,4.36,6.6,6.5l1.17,1.16l3.35,3.32c4.07,4.03,8.27,8.2,12.35,12.32
			c0.2,0.2,0.4,0.41,0.59,0.64c-0.54,0.4-1.13,0.81-1.74,1.23c-0.64,0.44-1.28,0.89-1.91,1.35c-5.15,3.76-10.83,6.75-16.88,8.88
			c-3.45,1.22-6.46,1.81-9.18,1.81c-1.48,0-2.86-0.17-4.25-0.51c-1.21-0.3-2.44-0.46-3.66-0.46c-2.02,0-4.03,0.42-5.97,1.25
			c-1.94,0.83-3.95,1.66-5.89,2.46c-0.88,0.36-1.76,0.73-2.64,1.1l-1.35,0.56c-1.32,0.55-2.69,1.11-4.06,1.72
			c-1.17,0.52-2,1.14-2.55,1.55c-0.09,0.07-0.18,0.14-0.28,0.2l-6.25,4.26l3.9,6.48c0.02,0.03,0.05,0.1,0.08,0.16
			c0.35,0.67,1,1.92,2.23,3.09c3.67,3.5,7.08,5.87,10.74,7.47c5.92,2.59,12.17,3.9,18.59,3.9c2.01,0,4.06-0.13,6.1-0.39
			c9.87-1.24,19.75-4.35,29.38-9.24c3.09-1.57,6.11-3.28,8.96-5.08c7.12-4.49,13.99-9.77,20.41-15.7
			c5.24-4.83,10.17-10.23,14.67-16.05c4.23-5.46,8.09-11.39,11.82-18.13c5.45-9.85,8.88-20.36,10.2-31.23
			c0.97-7.99-0.05-15.8-3.05-23.23c-1.46-3.62-3.62-6.96-6.8-10.52c-0.97-1.09-1.98-1.85-2.71-2.41c-0.18-0.14-0.36-0.27-0.53-0.41
			l-4.84-3.99l-5.03,3.75c-2.75,2.05-3.8,4.58-4.37,5.94l-0.1,0.25c-0.97,2.28-1.93,4.57-2.88,6.86c-0.67,1.62-1.35,3.23-2.03,4.85
			c-1.53,3.62-1.82,7.37-0.86,11.14c0.38,1.48,0.51,2.56,0.43,3.39c-0.41,4.13-1.23,7.67-2.51,10.83
			c-2.58,6.36-6.02,12.34-10.53,18.29c-0.13,0.17-0.27,0.34-0.42,0.52c-0.1-0.09-0.2-0.18-0.29-0.27c-2.46-2.36-4.94-4.84-7.34-7.23
			l-1.4-1.39l-1.54-1.53c-4.46-4.44-9.06-9.02-13.56-13.55c4.16-3.11,7.8-5.42,11.39-7.24c4.18-2.12,7.12-5.42,8.74-9.81
			c0.6-1.62,1.3-3.25,2.04-4.99c0.44-1.04,0.89-2.07,1.31-3.11c0.99-2.43,1.85-4.6,2.62-6.65l0.01-0.01
			c2.17-5.19-0.43-8.79-1.65-10.09l-2.22-2.38l-3.25-0.15C597.89,513.49,597.66,513.48,597.42,513.48L597.42,513.48z"/>
	</g>
	<g>
		<path class="st0" d="M384.69,711.09c-1.36,0-2.7-0.06-3.72-0.11c-10.08-0.51-18.86-1.72-26.86-3.7
			c-7.21-1.78-13.45-3.98-19.05-6.71c-5.89-2.86-10.86-6.01-15.2-9.6c-4.47-3.71-8.02-7.94-10.56-12.58
			c-2.63-4.81-4.05-9.98-4.24-15.38c-0.06-1.78,0-3.81,1.51-5.38c0.92-0.95,2.19-1.47,3.58-1.47c1.2,0,2.39,0.39,3.5,0.81
			c2.06,0.79,4.09,1.65,6.06,2.48c0.73,0.31,1.45,0.61,2.18,0.92c0.89,0.37,1.79,0.75,2.68,1.13c1.01,0.43,2.02,0.86,3.03,1.28
			c1.86,0.77,3.29,2.01,4.25,3.69c3.47,6.07,9.43,9.28,14.8,11.61c4.86,2.11,10.32,3.7,16.7,4.86c0.85,0.15,1.69,0.32,2.54,0.49
			c0.68,0.13,1.37,0.27,2.05,0.4c0.56,0.1,1.16,0.21,1.72,0.27c0.12,0.01,0.23,0.02,0.34,0.02c0.66,0,1.21-0.1,1.34-1.34
			c0.12-1.14,0.13-2.32,0.14-3.22c0.02-11.39,0.03-22.77,0.03-34.16c0-1.04-0.06-1.95-0.18-2.76c-0.08-0.51-0.12-0.51-0.51-0.6
			c-0.33-0.07-0.73-0.11-1.18-0.11c-0.18,0-0.35,0.01-0.53,0.02c-2.84,0.17-5.75,0.8-8.47,1.45l-0.44,0.11
			c-2.37,0.57-4.82,1.15-7.17,1.82c-1.13,0.32-2.26,0.48-3.36,0.48c-1.48,0-2.94-0.29-4.33-0.87c-5.42-2.26-10.83-4.52-16.23-6.81
			c-0.71-0.3-1.25-0.69-1.64-0.97c-0.1-0.07-0.21-0.15-0.32-0.22l-3.22-2.1l1.97-3.3c1.3-2.17,3.21-3.11,4.13-3.55
			c0.85-0.42,1.7-0.84,2.55-1.26c2.71-1.35,5.51-2.74,8.42-3.93c8.35-3.45,17.58-5.75,29.03-7.25c4.52-0.59,9.23-0.89,13.97-0.89
			c5.21,0,10.67,0.36,16.22,1.08c10.12,1.3,19.03,3.54,27.25,6.85c3.58,1.44,7.26,3.19,11.6,5.49c0.96,0.51,2.58,1.37,3.85,3.34
			l2.24,3.47L441.6,637c-0.2,0.12-0.38,0.23-0.54,0.34c-0.47,0.3-1,0.65-1.68,0.93c-3.48,1.47-6.96,2.92-10.44,4.37l-4.84,2.02
			c-1.62,0.68-3.34,1.02-5.11,1.02c-1.36,0-2.76-0.19-4.27-0.59c-3.54-0.93-7.35-1.83-11.64-2.74c-1.2-0.26-2.55-0.34-3.99-0.43
			c0,0-0.32-0.02-0.32-0.02c-0.41,0-0.88,0.09-1.21,0.16c-0.13,0.03-0.21,0.06-0.25,0.08c0,0.02-0.01,0.04-0.02,0.06
			c-0.26,1.16-0.39,2.27-0.4,3.28c-0.05,3.9-0.05,7.89-0.04,11.74l0,6.62c0,5.07,0,10.31,0.05,15.46c0.02,1.49,0.16,2.85,0.42,4.04
			c0.14,0.62,0.17,0.75,1.02,0.78l0.25,0c0.64,0,1.37-0.08,2.21-0.24c3.12-0.59,6.75-1.29,10.26-2.07
			c4.38-0.98,8.88-2.58,13.76-4.89c3.63-1.72,6.56-3.76,8.95-6.25c0.94-0.97,1.83-2.13,2.67-3.45c1.49-2.35,3.44-3.98,5.97-4.98
			c2.66-1.06,5.32-2.15,7.97-3.24c1.56-0.64,3.13-1.29,4.7-1.92c0.72-0.29,1.49-0.54,2.28-0.73c0.46-0.11,0.92-0.17,1.36-0.17
			c2.7,0,4.78,2.05,4.94,4.88c0.13,2.41-0.01,4.67-0.44,6.9c-1.27,6.59-4.31,12.61-9.02,17.87c-5.26,5.88-11.88,10.67-20.22,14.64
			c-9.28,4.42-19.45,7.38-31.07,9.06c-4.51,0.65-9.05,1-13.44,1.33l-1.75,0.13C386.75,711.05,385.77,711.09,384.69,711.09z"/>
		<path d="M383.99,618.63c5.24,0,10.48,0.37,15.7,1.04c9,1.16,17.81,3.19,26.26,6.6c3.85,1.55,7.56,3.37,11.21,5.31
			c0.83,0.44,1.67,0.9,2.37,1.98c-0.71,0.42-1.18,0.79-1.72,1.02c-5.08,2.14-10.18,4.26-15.27,6.39c-1.19,0.5-2.37,0.71-3.57,0.71
			c-1.07,0-2.16-0.17-3.26-0.46c-3.92-1.03-7.86-1.94-11.82-2.79c-1.59-0.34-3.25-0.43-4.88-0.53c-0.11-0.01-0.22-0.01-0.33-0.01
			c-0.65,0-1.32,0.11-1.97,0.25c-1.76,0.37-2.97,1.43-3.36,3.2c-0.29,1.34-0.48,2.72-0.5,4.09c-0.06,4.83-0.04,9.66-0.04,14.49
			c0,6.47-0.01,12.94,0.05,19.41c0.02,1.63,0.16,3.28,0.52,4.87c0.56,2.51,2.22,3.82,4.79,3.91c0.13,0,0.26,0.01,0.39,0.01
			c0.99,0,1.99-0.12,2.95-0.31c3.47-0.66,6.94-1.33,10.39-2.1c5.07-1.13,9.92-2.96,14.6-5.18c3.76-1.78,7.22-4.08,10.12-7.09
			c1.19-1.23,2.24-2.63,3.16-4.08c1.02-1.6,2.32-2.71,4.07-3.41c4.24-1.69,8.46-3.46,12.69-5.18c0.56-0.23,1.14-0.41,1.72-0.55
			c0.15-0.04,0.29-0.05,0.42-0.05c0.57,0,0.9,0.37,0.94,1.1c0.11,1.99,0,3.96-0.38,5.92c-1.18,6.09-3.96,11.37-8.07,15.96
			c-5.32,5.94-11.8,10.29-18.96,13.69c-9.5,4.52-19.53,7.21-29.93,8.71c-4.96,0.72-9.94,1.05-14.93,1.44
			c-0.89,0.07-1.79,0.1-2.69,0.1c-1.17,0-2.34-0.05-3.51-0.11c-8.8-0.45-17.54-1.47-26.1-3.59c-6.28-1.55-12.41-3.57-18.26-6.42
			c-5.14-2.5-9.99-5.43-14.4-9.09c-3.9-3.23-7.18-6.99-9.6-11.42c-2.3-4.21-3.59-8.78-3.75-13.6c-0.07-1.92,0.13-2.71,1.09-2.71
			c0.48,0,1.15,0.2,2.07,0.55c2.74,1.05,5.42,2.22,8.13,3.35c1.91,0.8,3.81,1.62,5.72,2.41c0.99,0.41,1.78,1.05,2.31,1.99
			c3.8,6.64,9.91,10.35,16.67,13.3c5.65,2.46,11.54,4.03,17.59,5.13c1.53,0.28,3.05,0.59,4.57,0.88c0.68,0.13,1.36,0.25,2.05,0.31
			c0.25,0.03,0.5,0.04,0.74,0.04c2.94,0,5.01-1.87,5.32-4.94c0.12-1.2,0.15-2.41,0.16-3.62c0.02-11.39,0.03-22.78,0.03-34.17
			c0-1.12-0.06-2.25-0.23-3.35c-0.31-2.09-1.53-3.46-3.6-3.92c-0.66-0.15-1.36-0.21-2.05-0.21c-0.26,0-0.51,0.01-0.77,0.02
			c-3.11,0.19-6.15,0.83-9.17,1.55c-2.6,0.62-5.2,1.24-7.77,1.97c-0.77,0.22-1.52,0.33-2.27,0.33c-0.94,0-1.87-0.18-2.79-0.57
			c-5.41-2.25-10.82-4.52-16.22-6.8c-0.45-0.19-0.83-0.53-1.33-0.86c0.64-1.07,1.54-1.57,2.44-2.01c3.56-1.74,7.09-3.58,10.74-5.09
			c8.98-3.71,18.41-5.72,28.02-6.98C375.02,618.9,379.51,618.63,383.99,618.63 M383.99,610.63v8V610.63L383.99,610.63
			c-4.92,0-9.79,0.31-14.49,0.92c-11.8,1.54-21.35,3.93-30.04,7.51c-3.03,1.25-5.9,2.67-8.67,4.05c-0.84,0.42-1.68,0.83-2.53,1.25
			c-1.17,0.57-3.9,1.9-5.81,5.1l-3.94,6.6l6.43,4.2c0.06,0.04,0.12,0.08,0.18,0.13c0.48,0.35,1.29,0.93,2.42,1.4
			c5.02,2.12,10.34,4.35,16.25,6.81c1.88,0.78,3.85,1.18,5.87,1.18c1.47,0,2.96-0.21,4.45-0.64c2.26-0.64,4.57-1.19,7-1.77
			l0.45-0.11c2.19-0.52,4.12-0.94,5.94-1.17c0,10.07-0.01,21.01-0.03,33.44c0,0.04,0,0.08,0,0.12c-0.27-0.05-0.53-0.1-0.8-0.16
			c-0.87-0.17-1.74-0.34-2.61-0.5c-6.07-1.1-11.25-2.6-15.82-4.59c-6.85-2.98-10.59-5.86-12.92-9.93c-1.39-2.43-3.53-4.3-6.19-5.4
			c-1-0.42-2-0.84-3-1.26c-0.9-0.38-1.8-0.76-2.7-1.14c-0.72-0.3-1.44-0.6-2.16-0.91c-2-0.85-4.07-1.72-6.19-2.53
			c-1.46-0.56-3.07-1.08-4.93-1.08c-2.48,0-4.78,0.96-6.46,2.69c-2.81,2.91-2.69,6.68-2.63,8.29c0.21,6.03,1.8,11.8,4.73,17.16
			c2.78,5.09,6.66,9.71,11.52,13.74c4.59,3.8,9.82,7.11,16,10.12c5.87,2.85,12.36,5.14,19.84,6.99c8.25,2.04,17.28,3.29,27.61,3.81
			c1.06,0.05,2.46,0.12,3.92,0.12c1.18,0,2.27-0.04,3.31-0.12l1.75-0.13c4.46-0.34,9.06-0.69,13.7-1.36
			c12.03-1.74,22.57-4.82,32.22-9.41c8.83-4.2,15.86-9.3,21.48-15.58c5.2-5.81,8.55-12.47,9.97-19.78c0.49-2.52,0.66-5.17,0.51-7.88
			c-0.27-4.94-4.11-8.66-8.93-8.66c-0.76,0-1.54,0.1-2.31,0.28c-0.99,0.24-1.94,0.55-2.84,0.91c-1.57,0.64-3.14,1.28-4.71,1.93
			c-2.6,1.07-5.29,2.18-7.93,3.23c-3.29,1.31-5.94,3.52-7.87,6.56c-0.69,1.09-1.42,2.04-2.17,2.82c-2.05,2.13-4.59,3.9-7.77,5.4
			c-4.61,2.18-8.84,3.69-12.92,4.6c-3.16,0.71-6.4,1.34-9.28,1.89c-0.01-0.17-0.01-0.35-0.01-0.53c-0.05-5.14-0.05-10.38-0.05-15.45
			l0-3.89l0-2.72c0-3.66-0.01-7.43,0.03-11.13c0.5,0.05,0.96,0.11,1.37,0.2c4.22,0.9,7.97,1.79,11.47,2.7
			c1.85,0.49,3.58,0.72,5.29,0.72c2.31,0,4.55-0.45,6.66-1.33l4.88-2.04c3.47-1.45,6.94-2.9,10.4-4.36c1-0.42,1.75-0.9,2.3-1.26
			c0.13-0.08,0.27-0.18,0.43-0.27l7.09-4.25l-4.49-6.95c-1.84-2.84-4.2-4.1-5.33-4.7c-4.46-2.37-8.27-4.18-11.98-5.67
			c-8.53-3.44-17.77-5.76-28.23-7.11C395,611,389.37,610.63,383.99,610.63L383.99,610.63z"/>
	</g>
	<g>
		<path class="st0" d="M421.74,671.08c-3.44,0-6.81-1.46-9.24-4c-2.4-2.5-3.66-5.76-3.55-9.22c-0.09-4.77,2.29-8.7,6.72-11.08
			c1.56-0.84,3.11-1.5,4.83-2.21c9.88-4.09,19.76-8.16,29.65-12.23c2.34-0.96,4.69-1.92,7.03-2.87c2.92-1.19,5.84-2.38,8.76-3.59
			c5.22-2.16,10.44-4.32,15.66-6.49c6.56-2.72,13.13-5.45,19.7-8.16c4.66-1.92,9.33-3.83,13.99-5.73c3.95-1.61,7.9-3.23,11.85-4.85
			c2.52-1.04,5.03-2.09,7.55-3.14c2.5-1.04,4.99-2.09,7.49-3.12c1.86-0.76,3.84-1.56,5.88-2.21c1.24-0.39,2.54-0.59,3.85-0.59
			c4.16,0,8.01,1.97,10.31,5.26c3.32,4.75,3.39,10.75,0.15,15.27c-1.62,2.26-3.74,3.43-5.2,4.11c-1.3,0.61-2.71,1.22-4.45,1.94
			c-3.26,1.34-6.51,2.67-9.77,4c-5.2,2.12-10.39,4.24-15.58,6.39c-4.71,1.94-9.41,3.91-14.11,5.87c-3.81,1.59-7.61,3.18-11.42,4.76
			c-2.73,1.13-5.47,2.25-8.21,3.37c-2.37,0.97-4.74,1.93-7.1,2.91c-5.32,2.2-10.64,4.41-15.97,6.61l-9.35,3.88
			c-3.25,1.35-6.51,2.69-9.76,4.03l-6.45,2.66c-4.96,2.04-9.91,4.09-14.88,6.12c-1.12,0.46-2.24,0.86-3.32,1.25l-0.95,0.34
			C424.53,670.84,423.15,671.08,421.74,671.08z"/>
		<path d="M551.9,595.6c2.79,0,5.47,1.31,7.04,3.55c2.35,3.36,2.4,7.53,0.18,10.65c-0.94,1.31-2.22,2.15-3.64,2.82
			c-1.4,0.66-2.83,1.27-4.27,1.86c-8.45,3.47-16.92,6.9-25.36,10.39c-8.52,3.52-17.02,7.1-25.54,10.64
			c-5.09,2.11-10.21,4.17-15.31,6.27c-8.44,3.49-16.88,7-25.32,10.49c-3.9,1.62-7.81,3.22-11.71,4.83
			c-6.45,2.66-12.9,5.33-19.36,7.97c-1.36,0.55-2.74,1.03-4.12,1.53c-0.9,0.33-1.82,0.48-2.73,0.48c-4.62,0-9.01-3.9-8.8-9.19
			c-0.1-3.37,1.54-5.93,4.61-7.58c1.44-0.77,2.96-1.41,4.47-2.04c9.87-4.09,19.76-8.16,29.64-12.22c5.26-2.16,10.54-4.29,15.79-6.46
			c11.79-4.87,23.56-9.78,35.35-14.65c8.6-3.55,17.23-7.04,25.84-10.58c5.02-2.07,10.02-4.19,15.04-6.26
			c1.83-0.75,3.68-1.5,5.56-2.09C550.12,595.73,551.02,595.6,551.9,595.6 M551.9,587.6L551.9,587.6c-1.72,0-3.42,0.26-5.05,0.78
			c-2.19,0.69-4.27,1.53-6.2,2.32c-2.51,1.03-5.01,2.08-7.51,3.13c-2.51,1.05-5.02,2.1-7.53,3.13c-3.94,1.62-7.89,3.23-11.84,4.85
			c-4.67,1.91-9.35,3.82-14.01,5.74c-6.57,2.71-13.13,5.43-19.7,8.16c-5.22,2.17-10.44,4.33-15.66,6.49c-2.9,1.2-5.8,2.38-8.7,3.56
			c-2.36,0.96-4.72,1.92-7.08,2.89c-11.6,4.77-21.03,8.66-29.65,12.23c-1.75,0.73-3.47,1.45-5.2,2.38
			c-5.71,3.07-8.91,8.37-8.83,14.58c-0.11,4.5,1.54,8.75,4.67,12.01c3.19,3.32,7.61,5.22,12.13,5.22c1.87,0,3.71-0.32,5.46-0.96
			l0.93-0.33c1.12-0.4,2.29-0.82,3.49-1.31c4.98-2.04,9.96-4.09,14.94-6.15l4.45-1.83l2.14-0.88c3.19-1.32,6.39-2.63,9.58-3.95
			c3.15-1.31,6.31-2.62,9.46-3.92c5.28-2.19,10.56-4.38,15.84-6.56c2.36-0.98,4.73-1.94,7.1-2.91c2.74-1.12,5.49-2.24,8.22-3.37
			c3.81-1.58,7.62-3.17,11.43-4.76c4.7-1.96,9.39-3.93,14.1-5.87c5.17-2.14,10.44-4.29,15.54-6.37c3.27-1.33,6.54-2.67,9.8-4.01
			c1.8-0.74,3.27-1.38,4.63-2.02c2.92-1.37,5.13-3.14,6.75-5.41c4.23-5.92,4.18-13.73-0.13-19.89
			C562.44,590.2,557.36,587.6,551.9,587.6L551.9,587.6z"/>
	</g>
	<g>
		<path class="st0" d="M596.94,255.95c-0.92,0-1.68-0.21-2.18-0.35l-0.14-0.04c-5.61-1.51-10.43-3.19-14.76-5.15
			c-6.96-3.14-13.78-7.2-20.28-12.06c-7.12-5.33-13.66-11.33-19.44-17.84c-3.99-4.5-7.66-9.26-10.91-14.17
			c-6.63-10-11.24-19.43-14.07-28.84c-0.06-0.19-0.12-0.39-0.19-0.58c-0.36-1.1-0.85-2.61-0.7-4.38l0.12-1.41l0.99-1.02
			c1.01-1.04,2.33-1.61,3.72-1.61c1.12,0,1.98,0.36,2.45,0.56l0.12,0.05c2.78,1.06,5.49,2.15,8,3.17c0.89,0.36,1.78,0.74,2.66,1.12
			c1.58,0.68,3.08,1.31,4.59,1.85c3.12,1.11,5.47,3.16,6.96,6.11c1.57,3.11,3.36,6.06,5.3,8.77c1.12,1.57,2.31,3.07,3.57,4.67
			l0.89,1.14c0.17,0.22,0.57,0.44,1.23,0.69c0.01,0,0.03,0.01,0.04,0.01l0.01-0.01c0.82-0.54,1.59-1.05,2.12-1.56
			c2.99-2.94,5.95-5.9,8.91-8.87c1.54-1.54,3.09-3.09,4.63-4.63c1.44-1.44,2.89-2.87,4.34-4.3c1.98-1.96,3.97-3.92,5.94-5.9
			c1.32-1.32,2.27-2.35,3.09-3.33c0.41-0.49,0.46-0.74,0.47-0.76l0,0c0,0-0.07-0.27-0.54-0.81c-0.58-0.67-1.28-1.43-2-1.99
			c-6.88-5.3-13.72-9.21-20.92-11.95c-2.89-1.1-5.85-1.83-8.8-2.17c-1.14-0.13-2.18-0.19-3.18-0.19c-1.52,0-2.9,0.15-4.23,0.45
			c-1.09,0.25-2.18,0.38-3.23,0.38c-1.75,0-3.45-0.35-5.06-1.04c-2.51-1.07-5.02-2.12-7.54-3.16c-1.61-0.67-3.23-1.34-4.84-2.02
			c-0.79-0.33-1.57-0.73-2.33-1.17c-1.18-0.7-2.02-1.85-2.29-3.17c-0.28-1.35,0.03-2.78,0.85-3.94c0.4-0.56,0.83-1.07,1.29-1.52
			c2.93-2.87,5.83-4.94,8.89-6.33c4.9-2.22,10.12-3.43,15.54-3.59c0.55-0.02,1.1-0.02,1.64-0.02c7.07,0,14.33,1.33,22.82,4.17
			c4.27,1.43,8.65,3.4,13.38,6.02c6.15,3.4,11.99,7.23,17.37,11.38c3.91,3.02,7.64,6.25,11.09,9.62c3.95,3.85,7.63,7.91,10.94,12.05
			c8.82,11.05,14.87,21.8,18.49,32.86c2.04,6.22,3.25,11.43,3.83,16.37c0.95,8.17-0.33,15.95-3.82,23.11
			c-1.32,2.71-3.19,5.31-5.56,7.74c-0.82,0.84-2.08,2.13-4.27,2.59l-2.59,0.54l-1.51-2.17c-0.06-0.09-0.13-0.17-0.2-0.26
			c-0.32-0.41-0.75-0.98-1.1-1.73c-0.53-1.13-1.01-2.26-1.47-3.36c0,0-1.21-2.87-1.64-3.9c-0.9-2.13-1.79-4.27-2.72-6.39
			c-1.1-2.51-1.32-5.02-0.65-7.46c1-3.66,0.81-7.66-0.62-12.97c-0.96-3.55-2.51-7.31-4.9-11.82c-2.12-4.01-4.74-8.06-7.78-12.02
			c-0.94-1.22-1.69-2.06-2.42-2.71c-0.45-0.4-0.72-0.5-0.77-0.5c0,0-0.26,0.01-0.86,0.43c-0.79,0.55-1.61,1.25-2.44,2.07
			c-4.69,4.65-9.35,9.33-14.01,14l-0.25,0.25c-3.1,3.12-6.2,6.24-9.29,9.37l-0.9,0.91c-0.86,0.87-1.41,1.61-1.76,2.38
			c-0.19,0.41-0.21,0.5,0.14,0.94c0.31,0.39,0.72,0.79,1.21,1.19c3.95,3.18,8.16,5.9,12.52,8.1c4.91,2.47,5.71,3.34,7.77,8.47
			c1.06,2.65,2.14,5.29,3.21,7.93c0.74,1.83,1.49,3.66,2.23,5.49l0.12,0.27c0.4,0.9,1.23,2.77,0.41,5.03l-0.44,1.23l-1.08,0.73
			C599.2,255.61,598.09,255.95,596.94,255.95z"/>
		<path d="M547.67,129.03c7.43,0,14.55,1.62,21.55,3.97c4.42,1.48,8.63,3.47,12.72,5.73c5.9,3.26,11.53,6.93,16.86,11.05
			c3.76,2.9,7.34,6,10.74,9.32c3.77,3.68,7.32,7.56,10.6,11.68c7.64,9.57,13.98,19.89,17.81,31.61c1.66,5.08,3.04,10.26,3.66,15.59
			c0.85,7.28-0.23,14.28-3.44,20.9c-1.21,2.49-2.88,4.7-4.82,6.69c-0.6,0.61-1.19,1.25-2.23,1.47c-0.31-0.44-0.72-0.89-0.96-1.41
			c-0.62-1.33-1.18-2.68-1.75-4.03c-1.35-3.18-2.65-6.37-4.04-9.52c-0.69-1.57-0.9-3.17-0.46-4.8c1.39-5.1,0.72-10.1-0.62-15.07
			c-1.19-4.43-3.08-8.6-5.22-12.65c-2.34-4.43-5.09-8.61-8.15-12.58c-0.89-1.16-1.85-2.3-2.93-3.26c-1.14-1.02-2.27-1.52-3.43-1.52
			c-1.02,0-2.07,0.39-3.16,1.16c-1.05,0.74-2.04,1.6-2.96,2.51c-4.78,4.74-9.52,9.5-14.27,14.27c-3.41,3.42-6.81,6.86-10.2,10.29
			c-1.04,1.05-1.94,2.18-2.56,3.54c-0.84,1.86-0.58,3.54,0.65,5.08c0.53,0.67,1.17,1.28,1.84,1.81c4.11,3.31,8.51,6.18,13.23,8.55
			c4.06,2.05,4.15,2.14,5.86,6.39c1.8,4.48,3.64,8.95,5.45,13.42c0.32,0.78,0.8,1.54,0.47,2.45c-0.32,0.22-0.64,0.29-0.96,0.29
			c-0.43,0-0.87-0.14-1.29-0.25c-4.83-1.3-9.58-2.86-14.15-4.93c-6.95-3.14-13.44-7.06-19.53-11.61
			c-6.86-5.13-13.15-10.88-18.84-17.29c-3.84-4.33-7.37-8.9-10.57-13.72c-5.75-8.66-10.56-17.79-13.58-27.79
			c-0.34-1.14-0.83-2.26-0.73-3.45c0.28-0.29,0.57-0.39,0.84-0.39c0.4,0,0.78,0.21,1.13,0.34c2.66,1.02,5.3,2.08,7.93,3.14
			c2.48,1,4.9,2.14,7.42,3.03c2.18,0.77,3.7,2.12,4.72,4.14c1.64,3.24,3.5,6.34,5.61,9.29c1.45,2.03,3.02,3.98,4.57,5.95
			c0.77,0.98,1.84,1.54,2.99,1.97c0.52,0.19,1.03,0.3,1.54,0.3c0.67,0,1.32-0.18,1.94-0.59c1-0.66,2.04-1.32,2.89-2.16
			c4.55-4.48,9.04-9.01,13.56-13.51c3.42-3.41,6.87-6.79,10.28-10.21c1.16-1.16,2.29-2.35,3.33-3.61c1.89-2.28,1.84-4.48-0.13-6.75
			c-0.79-0.91-1.63-1.8-2.58-2.53c-6.73-5.19-13.97-9.49-21.94-12.52c-3.16-1.2-6.42-2.02-9.77-2.41c-1.21-0.14-2.43-0.22-3.64-0.22
			c-1.71,0-3.42,0.16-5.11,0.55c-0.78,0.18-1.56,0.28-2.34,0.28c-1.17,0-2.34-0.22-3.49-0.71c-4.12-1.76-8.27-3.46-12.4-5.19
			c-0.63-0.27-1.25-0.58-1.84-0.93c-0.49-0.29-0.57-0.86-0.22-1.35c0.25-0.35,0.53-0.68,0.83-0.98c2.29-2.25,4.8-4.21,7.74-5.54
			c4.45-2.02,9.1-3.09,14.01-3.24C546.65,129.03,547.16,129.03,547.67,129.03 M547.67,121.03c-0.59,0-1.17,0.01-1.76,0.03
			c-5.95,0.18-11.69,1.51-17.07,3.95c-3.49,1.59-6.78,3.91-10.04,7.12c-0.62,0.61-1.21,1.3-1.74,2.05
			c-1.47,2.07-2.02,4.65-1.51,7.09c0.51,2.41,2.03,4.52,4.17,5.79c0.91,0.54,1.86,1.02,2.81,1.42c1.61,0.68,3.23,1.35,4.84,2.02
			c2.47,1.03,5.03,2.09,7.52,3.15c2.11,0.9,4.34,1.36,6.63,1.36c1.35,0,2.74-0.16,4.12-0.48c1.03-0.23,2.12-0.35,3.33-0.35
			c0.85,0,1.74,0.06,2.72,0.17c2.62,0.3,5.25,0.95,7.83,1.94c6.72,2.56,13.14,6.21,19.6,11.15c-0.34,0.35-0.7,0.73-1.1,1.13
			c-1.96,1.97-3.93,3.92-5.91,5.87c-1.45,1.44-2.91,2.88-4.36,4.32c-1.55,1.55-3.1,3.1-4.65,4.65c-2.62,2.62-5.31,5.32-7.99,7.96
			c-0.94-1.2-1.84-2.37-2.68-3.54c-1.82-2.55-3.5-5.33-4.98-8.25c-1.97-3.89-5.07-6.61-9.19-8.07c-1.39-0.49-2.83-1.11-4.36-1.76
			c-0.91-0.39-1.81-0.77-2.73-1.14c-2.52-1.02-5.23-2.11-8.04-3.19l-0.04-0.02c-0.62-0.26-2.07-0.87-3.99-0.87
			c-2.48,0-4.82,1.01-6.59,2.83l-1.97,2.04l-0.25,2.82c-0.23,2.59,0.47,4.7,0.88,5.97c0.05,0.16,0.11,0.33,0.16,0.49
			c2.95,9.79,7.72,19.57,14.57,29.9c3.36,5.06,7.14,9.97,11.25,14.61c5.95,6.71,12.69,12.9,20.03,18.39
			c6.73,5.03,13.8,9.24,21.03,12.5c4.52,2.04,9.55,3.8,15.36,5.36l0.12,0.03c0.62,0.17,1.79,0.49,3.25,0.49
			c1.96,0,3.84-0.58,5.45-1.67l2.16-1.46l0.88-2.46c1.35-3.77-0.01-6.85-0.52-8l-0.07-0.16c-0.74-1.83-1.49-3.67-2.24-5.51
			c-1.07-2.63-2.14-5.26-3.2-7.89c-2.43-6.05-3.88-7.63-9.68-10.55c-3.67-1.85-7.23-4.1-10.61-6.69l0.52-0.52
			c3.06-3.09,6.13-6.19,9.2-9.27l0.27-0.28c4.57-4.59,9.3-9.33,13.97-13.96c0.05-0.05,0.1-0.1,0.15-0.14
			c0.13,0.16,0.25,0.31,0.35,0.45c2.9,3.78,5.4,7.63,7.41,11.45c2.24,4.24,3.69,7.73,4.57,10.99c1.25,4.65,1.44,7.9,0.63,10.88
			c-0.9,3.3-0.61,6.8,0.85,10.12c0.92,2.09,1.83,4.25,2.71,6.35c0.43,1.03,0.86,2.05,1.29,3.07l0.35,0.83
			c0.47,1.12,0.96,2.29,1.52,3.48c0.54,1.14,1.17,1.97,1.54,2.46l0.11,0.15l3.02,4.34l5.16-1.11c3.39-0.71,5.33-2.69,6.26-3.65
			l0.06-0.06c2.67-2.73,4.79-5.69,6.3-8.78c3.82-7.86,5.24-16.38,4.2-25.32c-0.61-5.22-1.88-10.67-4-17.15
			c-3.77-11.52-10.04-22.68-19.16-34.11c-3.41-4.27-7.2-8.45-11.27-12.41c-3.56-3.47-7.41-6.81-11.44-9.92
			c-5.54-4.27-11.55-8.22-17.88-11.72c-4.95-2.74-9.54-4.8-14.05-6.31C562.84,122.42,555.19,121.03,547.67,121.03L547.67,121.03z"/>
	</g>
	<g>
		<path class="st0" d="M172.01,255.95c-1.15,0-2.26-0.34-3.21-0.98l-1.08-0.73l-0.44-1.23c-0.81-2.26,0.01-4.13,0.41-5.03l0.12-0.27
			c0.74-1.83,1.49-3.66,2.23-5.49c1.08-2.64,2.15-5.28,3.21-7.93c2.06-5.13,2.86-6,7.77-8.47c4.36-2.2,8.58-4.92,12.52-8.1
			c0.5-0.4,0.9-0.8,1.21-1.19c0.35-0.44,0.32-0.53,0.14-0.94c-0.35-0.77-0.89-1.51-1.76-2.38l-0.91-0.92
			c-3.09-3.12-6.18-6.25-9.28-9.36l-0.24-0.24c-4.66-4.68-9.33-9.36-14.02-14.02c-0.83-0.82-1.65-1.52-2.44-2.07
			c-0.6-0.42-0.86-0.43-0.86-0.43s-0.25,0.04-0.77,0.5c-0.73,0.65-1.48,1.49-2.42,2.72c-3.04,3.96-5.66,8-7.78,12.02
			c-2.38,4.51-3.94,8.27-4.9,11.82c-1.43,5.31-1.62,9.31-0.62,12.97c0.67,2.44,0.45,4.95-0.66,7.46c-0.93,2.13-1.83,4.27-2.73,6.41
			c-0.43,1.02-1.64,3.9-1.64,3.9c-0.46,1.09-0.93,2.21-1.46,3.33c-0.35,0.75-0.78,1.32-1.1,1.73c-0.07,0.09-0.14,0.18-0.2,0.26
			l-1.51,2.17l-2.59-0.54c-2.19-0.46-3.46-1.75-4.21-2.53c-2.43-2.49-4.3-5.09-5.62-7.8c-3.48-7.16-4.77-14.94-3.82-23.11
			c0.58-4.94,1.79-10.15,3.83-16.37c3.62-11.06,9.67-21.81,18.49-32.86c3.31-4.14,6.98-8.19,10.94-12.05
			c3.45-3.37,7.18-6.6,11.09-9.62c5.38-4.15,11.22-7.98,17.37-11.38c4.73-2.62,9.11-4.59,13.38-6.02c8.5-2.85,15.75-4.17,22.82-4.17
			c0.55,0,1.1,0.01,1.64,0.02c5.41,0.16,10.64,1.37,15.54,3.59c3.06,1.39,5.97,3.46,8.89,6.33c0.46,0.45,0.89,0.96,1.29,1.52
			c0.82,1.15,1.13,2.59,0.85,3.93c-0.28,1.32-1.12,2.48-2.3,3.17c-0.75,0.45-1.54,0.84-2.33,1.17c-1.61,0.68-3.22,1.35-4.83,2.02
			c-2.52,1.05-5.04,2.1-7.55,3.17c-1.61,0.69-3.31,1.04-5.06,1.04c-1.05,0-2.14-0.13-3.23-0.38c-1.32-0.3-2.7-0.45-4.22-0.45
			c-1,0-2.04,0.06-3.18,0.19c-2.95,0.34-5.91,1.07-8.8,2.17c-7.2,2.74-14.04,6.65-20.92,11.95c-0.73,0.56-1.42,1.32-2,1.99
			c-0.47,0.54-0.53,0.81-0.53,0.83l0,0c0,0,0.06,0.25,0.46,0.74c0.82,0.99,1.77,2.02,3.09,3.34c1.97,1.97,3.95,3.94,5.94,5.9
			c1.45,1.43,2.89,2.86,4.34,4.3c1.55,1.54,3.09,3.08,4.63,4.63c2.96,2.96,5.93,5.93,8.91,8.87c0.52,0.51,1.29,1.02,2.11,1.56
			l0.02,0.01c0.01,0,0.02-0.01,0.04-0.01c0.66-0.24,1.06-0.47,1.23-0.69l0.9-1.15c1.25-1.59,2.44-3.1,3.56-4.66
			c1.94-2.72,3.73-5.67,5.3-8.77c1.49-2.95,3.83-5,6.96-6.11c1.51-0.54,3.01-1.17,4.59-1.85c0.88-0.38,1.77-0.76,2.66-1.12
			c2.51-1.02,5.22-2.11,8.01-3.17l0.12-0.05c0.46-0.2,1.33-0.56,2.45-0.56c1.39,0,2.71,0.57,3.72,1.61l0.99,1.02l0.12,1.41
			c0.16,1.77-0.34,3.28-0.7,4.38c-0.06,0.19-0.13,0.39-0.19,0.58c-2.84,9.41-7.44,18.84-14.07,28.84
			c-3.25,4.9-6.92,9.67-10.91,14.17c-5.77,6.51-12.31,12.52-19.44,17.84c-6.5,4.86-13.32,8.92-20.28,12.06
			c-4.32,1.95-9.15,3.64-14.76,5.14l-0.14,0.04C173.69,255.74,172.93,255.95,172.01,255.95L172.01,255.95z"/>
		<path d="M221.29,129.03c0.51,0,1.01,0.01,1.52,0.02c4.91,0.15,9.56,1.22,14.01,3.24c2.95,1.34,5.45,3.29,7.74,5.54
			c0.31,0.3,0.58,0.64,0.83,0.98c0.35,0.49,0.27,1.06-0.22,1.35c-0.59,0.35-1.21,0.66-1.84,0.93c-4.13,1.74-8.28,3.43-12.4,5.19
			c-1.15,0.49-2.32,0.71-3.49,0.71c-0.78,0-1.56-0.1-2.34-0.28c-1.7-0.39-3.4-0.55-5.11-0.55c-1.21,0-2.43,0.08-3.64,0.22
			c-3.35,0.38-6.61,1.2-9.77,2.41c-7.96,3.03-15.2,7.33-21.94,12.52c-0.95,0.73-1.79,1.63-2.58,2.53c-1.97,2.27-2.02,4.46-0.13,6.75
			c1.04,1.26,2.18,2.45,3.33,3.61c3.41,3.42,6.86,6.8,10.28,10.21c4.52,4.5,9.01,9.04,13.56,13.51c0.85,0.84,1.89,1.5,2.89,2.16
			c0.62,0.41,1.27,0.59,1.94,0.59c0.5,0,1.02-0.1,1.54-0.3c1.15-0.43,2.22-0.99,2.99-1.97c1.54-1.97,3.11-3.91,4.57-5.95
			c2.11-2.95,3.97-6.06,5.61-9.29c1.02-2.02,2.55-3.37,4.72-4.14c2.52-0.89,4.94-2.03,7.42-3.03c2.64-1.07,5.28-2.13,7.93-3.14
			c0.35-0.14,0.74-0.34,1.13-0.34c0.28,0,0.56,0.1,0.84,0.39c0.1,1.18-0.38,2.31-0.73,3.45c-3.02,10-7.83,19.12-13.58,27.79
			c-3.2,4.82-6.73,9.39-10.57,13.72c-5.69,6.41-11.98,12.17-18.84,17.29c-6.09,4.56-12.58,8.48-19.53,11.61
			c-4.57,2.06-9.32,3.63-14.15,4.93c-0.42,0.11-0.85,0.25-1.29,0.25c-0.32,0-0.64-0.08-0.96-0.29c-0.33-0.91,0.16-1.67,0.47-2.45
			c1.81-4.48,3.65-8.94,5.45-13.42c1.71-4.25,1.79-4.34,5.86-6.39c4.71-2.38,9.12-5.25,13.23-8.55c0.67-0.54,1.3-1.14,1.84-1.81
			c1.23-1.54,1.49-3.22,0.65-5.08c-0.62-1.37-1.52-2.5-2.56-3.54c-3.4-3.43-6.79-6.87-10.2-10.29c-4.75-4.77-9.5-9.53-14.27-14.27
			c-0.92-0.91-1.9-1.77-2.96-2.51c-1.1-0.77-2.14-1.16-3.16-1.16c-1.16,0-2.29,0.5-3.43,1.52c-1.09,0.97-2.04,2.11-2.93,3.26
			c-3.05,3.97-5.8,8.15-8.15,12.58c-2.14,4.05-4.03,8.22-5.22,12.65c-1.34,4.96-2.01,9.97-0.62,15.07c0.44,1.63,0.23,3.23-0.46,4.8
			c-1.39,3.16-2.7,6.35-4.04,9.52c-0.57,1.35-1.13,2.71-1.75,4.03c-0.25,0.52-0.65,0.97-0.96,1.41c-1.04-0.22-1.63-0.86-2.23-1.47
			c-1.94-1.99-3.61-4.2-4.82-6.69c-3.22-6.61-4.29-13.61-3.44-20.9c0.62-5.33,1.99-10.5,3.66-15.59
			c3.83-11.71,10.17-22.03,17.81-31.61c3.29-4.12,6.83-8,10.6-11.68c3.4-3.32,6.99-6.42,10.74-9.32
			c5.33-4.12,10.97-7.79,16.86-11.05c4.08-2.26,8.3-4.25,12.72-5.73C206.73,130.65,213.86,129.03,221.29,129.03 M221.29,121.03
			C221.29,121.03,221.29,121.03,221.29,121.03c-7.52,0-15.18,1.39-24.1,4.38c-4.5,1.51-9.1,3.57-14.05,6.31
			c-6.32,3.5-12.34,7.44-17.88,11.72c-4.03,3.11-7.88,6.45-11.44,9.92c-4.07,3.97-7.86,8.15-11.27,12.41
			c-9.12,11.43-15.39,22.59-19.16,34.11c-2.12,6.48-3.39,11.93-4,17.15c-1.04,8.94,0.37,17.46,4.2,25.32
			c1.51,3.1,3.63,6.05,6.3,8.78l0.06,0.06c0.93,0.95,2.87,2.94,6.26,3.65l5.18,1.08l3.02-4.34l0.09-0.12
			c0.38-0.49,1.01-1.32,1.54-2.46c0.56-1.2,1.05-2.36,1.52-3.48l0.35-0.83c0.43-1.02,0.86-2.05,1.29-3.07
			c0.88-2.1,1.79-4.27,2.71-6.35c1.46-3.32,1.75-6.82,0.85-10.12c-0.81-2.98-0.63-6.23,0.63-10.88c0.88-3.26,2.33-6.75,4.57-10.99
			c2.02-3.82,4.51-7.67,7.41-11.45c0.11-0.14,0.23-0.29,0.35-0.45c0.05,0.05,0.1,0.1,0.15,0.14c4.67,4.63,9.39,9.37,13.97,13.96
			l0.27,0.28c3.07,3.08,6.14,6.18,9.2,9.27l0.52,0.52c-3.37,2.59-6.94,4.84-10.61,6.69c-5.8,2.92-7.25,4.5-9.68,10.55
			c-1.06,2.63-2.13,5.26-3.2,7.89c-0.75,1.84-1.5,3.68-2.24,5.52l-0.07,0.15c-0.51,1.16-1.87,4.23-0.52,8l0.88,2.46l2.16,1.46
			c1.61,1.09,3.5,1.67,5.45,1.67c1.46,0,2.62-0.32,3.25-0.49l0.12-0.03c5.81-1.57,10.84-3.32,15.36-5.36
			c7.23-3.26,14.3-7.47,21.03-12.5c7.34-5.49,14.08-11.68,20.03-18.39c4.11-4.64,7.89-9.55,11.25-14.61
			c6.85-10.33,11.62-20.11,14.57-29.9c0.05-0.16,0.1-0.33,0.16-0.49c0.41-1.27,1.11-3.38,0.88-5.97l-0.25-2.82l-1.97-2.04
			c-1.77-1.83-4.11-2.83-6.59-2.83c-1.92,0-3.37,0.61-3.99,0.87l-0.04,0.02c-2.81,1.07-5.52,2.17-8.04,3.19
			c-0.91,0.37-1.82,0.76-2.73,1.14c-1.52,0.65-2.96,1.26-4.36,1.76c-4.13,1.46-7.22,4.17-9.19,8.07c-1.48,2.93-3.16,5.7-4.98,8.25
			c-0.84,1.18-1.74,2.34-2.68,3.54c-2.68-2.64-5.38-5.34-7.99-7.96c-1.55-1.55-3.1-3.1-4.65-4.65c-1.45-1.44-2.9-2.88-4.36-4.32
			c-1.97-1.95-3.95-3.91-5.91-5.87c-0.4-0.4-0.77-0.78-1.1-1.13c6.46-4.94,12.88-8.59,19.6-11.15c2.58-0.98,5.22-1.63,7.83-1.94
			c0.98-0.11,1.88-0.17,2.72-0.17c1.22,0,2.31,0.11,3.33,0.35c1.38,0.32,2.77,0.48,4.12,0.48c2.29,0,4.53-0.46,6.63-1.36
			c2.49-1.06,5.04-2.13,7.52-3.15c1.62-0.67,3.23-1.34,4.84-2.02c0.96-0.4,1.9-0.88,2.81-1.42c2.14-1.27,3.66-3.38,4.17-5.79
			c0.52-2.44-0.03-5.02-1.51-7.09c-0.53-0.75-1.12-1.44-1.74-2.05c-3.27-3.21-6.55-5.53-10.04-7.12
			c-5.38-2.44-11.12-3.77-17.07-3.95C222.46,121.04,221.87,121.03,221.29,121.03L221.29,121.03L221.29,121.03z"/>
	</g>
	<g>
		<path class="st0" d="M220.89,648.47c-1.85,0-3.74-0.12-5.64-0.34c-7.08-0.85-14.18-2.79-21.7-5.91
			c-7.24-3.01-14.38-7.13-22.48-12.98c-6.18-4.46-12.12-9.65-17.68-15.42c-4.87-5.06-9.44-10.71-13.58-16.81
			c-3.24-4.77-6.12-9.64-8.56-14.46c-3.8-7.52-6.38-15.61-7.67-24.02c-0.93-6.09-0.8-11.63,0.42-16.93
			c1.36-5.93,3.66-10.73,7.01-14.66l0.16-0.19c1.06-1.25,2.39-2.81,4.59-4l2.74-1.49l2.11,2.3c0.07,0.07,0.13,0.14,0.19,0.2
			c0.29,0.29,0.74,0.73,1.12,1.39c0.44,0.77,0.82,1.54,1.13,2.28c1.21,2.89,2.42,5.79,3.63,8.68l1.46,3.5
			c0.7,1.68,1.54,4.26,0.75,7.32c-1.24,4.81-0.75,9.88,1.59,16.43c0.73,2.05,1.69,4.24,3.02,6.91c2.4,4.82,5.33,9.47,8.96,14.21
			c0.65,0.84,1.37,1.63,2.15,2.35c0.28,0.26,0.47,0.35,0.52,0.36c-0.02-0.01,0.15-0.07,0.44-0.26c1.46-0.98,2.66-1.94,3.67-2.93
			c4.08-3.99,8.2-8.1,12.19-12.07l5.54-5.51c2.06-2.04,4.19-4.15,6.23-6.25c0.62-0.63,1.19-1.37,1.65-2.14
			c0.18-0.29,0.16-0.31,0-0.55c-0.52-0.75-1.08-1.38-1.62-1.83c-3.35-2.71-7.25-5.3-11.91-7.92c-0.63-0.35-1.26-0.69-1.9-1.02
			c-2.6-1.32-4.49-3.4-5.63-6.19c-0.8-1.97-1.6-3.94-2.41-5.9c-1.22-2.99-2.44-5.97-3.64-8.97c-0.03-0.09-0.07-0.17-0.11-0.26
			c-0.39-0.86-1.19-2.66-0.52-4.93l0.71-2.38l2.45-0.42c0.48-0.08,0.97-0.12,1.47-0.12c1.53,0,2.87,0.39,3.85,0.68
			c7.96,2.33,15.6,5.62,22.69,9.75c7.22,4.21,14.05,9.16,20.3,14.71c5.04,4.47,9.87,9.53,14.37,15.04
			c4.17,5.11,7.89,10.52,11.08,16.08c4.42,7.72,7.67,15.19,9.95,22.85l0.08,0.27c0.34,1.11,0.98,3.17-0.02,5.47l-0.82,1.87
			l-1.99,0.44c-0.46,0.1-0.92,0.15-1.39,0.15c-1.49,0-2.62-0.5-3.37-0.84c-0.11-0.05-0.23-0.1-0.34-0.15
			c-2.17-0.87-4.34-1.76-6.51-2.65l-3.1-1.27c-0.48-0.19-0.95-0.39-1.43-0.59c-1.18-0.5-2.3-0.96-3.42-1.36
			c-2.57-0.9-4.6-2.56-6.01-4.92c-0.43-0.72-0.85-1.46-1.25-2.21c-2.25-4.24-5.05-8.42-8.34-12.42c-0.41-0.5-0.76-0.87-1.08-1.14
			c-0.49-0.41-0.72-0.46-0.73-0.46c0,0-0.19,0.01-0.65,0.28c-0.67,0.39-1.32,0.89-1.86,1.43c-4.02,3.98-8.03,7.97-12.03,11.96
			l-5.94,5.92c-2.03,2.02-4.07,4.03-6.13,6.02c-1.31,1.27-2.23,2.39-2.89,3.54c-0.15,0.25-0.22,0.42-0.25,0.52
			c0.05,0.08,0.14,0.23,0.31,0.43c0.42,0.52,0.9,0.99,1.39,1.37c7.62,5.94,15.1,10.19,22.87,12.99c2.89,1.04,6.1,1.68,9.81,1.96
			c0.34,0.03,0.68,0.04,1.02,0.04c1.42,0,3.01-0.2,5.01-0.64c0.96-0.21,1.85-0.31,2.73-0.31c1.4,0,2.75,0.27,4.01,0.81l4.65,1.97
			c3.21,1.36,6.42,2.73,9.63,4.1c0.62,0.27,1.11,0.6,1.41,0.8l1.33,0.85l0.49,1.39c0.51,1.56,0.61,3.89-1.78,6.1
			c-2.16,1.99-5.52,4.86-9.81,6.72C232.34,647.32,226.73,648.47,220.89,648.47z"/>
		<path d="M171.73,521.5c0.94,0,1.84,0.26,2.72,0.52c7.64,2.24,14.91,5.35,21.8,9.37c7.03,4.1,13.58,8.85,19.66,14.24
			c5.04,4.47,9.66,9.35,13.93,14.58c3.99,4.89,7.57,10.06,10.71,15.54c3.99,6.98,7.29,14.28,9.59,22c0.29,0.98,0.69,1.95,0.23,3
			c-0.18,0.04-0.36,0.06-0.53,0.06c-0.82,0-1.51-0.41-2.22-0.7c-3.2-1.28-6.39-2.6-9.58-3.91c-1.68-0.68-3.33-1.42-5.04-2.02
			c-1.72-0.6-2.99-1.68-3.91-3.21c-0.4-0.66-0.78-1.34-1.14-2.03c-2.47-4.67-5.43-9.01-8.78-13.09c-0.49-0.6-1.02-1.18-1.61-1.67
			c-1.11-0.92-2.17-1.39-3.28-1.39c-0.85,0-1.73,0.27-2.68,0.83c-0.96,0.56-1.87,1.26-2.66,2.04c-6.01,5.94-11.98,11.92-17.98,17.88
			c-2.02,2.01-4.04,4.01-6.09,5.99c-1.37,1.33-2.62,2.76-3.57,4.41c-1.19,2.06-1.08,3.64,0.43,5.48c0.6,0.73,1.28,1.41,2.02,1.99
			c7.32,5.71,15.2,10.44,23.97,13.6c3.51,1.26,7.16,1.91,10.87,2.18c0.44,0.03,0.88,0.05,1.32,0.05c1.98,0,3.93-0.31,5.87-0.74
			c0.63-0.14,1.25-0.22,1.87-0.22c0.82,0,1.64,0.14,2.44,0.49c4.76,2.02,9.52,4.04,14.28,6.07c0.38,0.16,0.72,0.43,0.99,0.6
			c0.31,0.94-0.2,1.48-0.69,1.93c-2.61,2.41-5.39,4.56-8.69,5.99c-4.89,2.12-9.94,3.1-15.1,3.1c-1.71,0-3.43-0.11-5.16-0.32
			c-7.14-0.86-14-2.87-20.64-5.63c-7.77-3.23-14.87-7.62-21.67-12.53c-6.17-4.46-11.86-9.47-17.14-14.95
			c-4.85-5.04-9.22-10.5-13.15-16.29c-3.06-4.5-5.85-9.16-8.3-14.02c-3.64-7.21-6.06-14.84-7.29-22.83
			c-0.79-5.15-0.81-10.32,0.37-15.43c1.09-4.77,2.94-9.19,6.15-12.96c1-1.18,1.98-2.39,3.62-3.28c0.34,0.37,0.62,0.58,0.78,0.86
			c0.34,0.6,0.66,1.22,0.92,1.85c1.7,4.05,3.39,8.11,5.08,12.17c0.64,1.54,1,3.09,0.57,4.78c-1.67,6.45-0.48,12.68,1.7,18.78
			c0.9,2.51,2.01,4.96,3.2,7.34c2.62,5.27,5.79,10.2,9.37,14.86c0.78,1.02,1.67,1.99,2.62,2.86c1.02,0.94,2.08,1.41,3.17,1.41
			c0.88,0,1.79-0.31,2.72-0.94c1.49-1.01,2.94-2.13,4.23-3.39c5.36-5.24,10.66-10.56,15.98-15.85c2.69-2.68,5.4-5.34,8.04-8.06
			c0.83-0.86,1.58-1.83,2.2-2.85c0.98-1.61,0.95-3.33-0.12-4.89c-0.67-0.98-1.48-1.93-2.4-2.67c-3.89-3.16-8.11-5.85-12.48-8.3
			c-0.68-0.38-1.36-0.75-2.05-1.1c-1.77-0.9-2.98-2.29-3.73-4.13c-2.01-4.95-4.06-9.89-6.04-14.85c-0.3-0.76-0.82-1.53-0.51-2.57
			C171.21,521.52,171.47,521.5,171.73,521.5 M171.73,513.5c-0.72,0-1.44,0.06-2.14,0.18l-4.9,0.84l-1.41,4.77
			c-1.09,3.69,0.21,6.61,0.7,7.7l0.06,0.14c1.19,2.98,2.44,6.03,3.64,8.97c0.8,1.96,1.6,3.92,2.4,5.88
			c1.48,3.66,4.09,6.52,7.53,8.26c0.58,0.29,1.17,0.61,1.76,0.94c4.02,2.25,7.43,4.48,10.38,6.77c-1.83,1.87-3.73,3.76-5.58,5.59
			l-1.77,1.76c-1.27,1.26-2.53,2.52-3.8,3.78c-3.97,3.96-8.07,8.05-12.13,12.02c-0.27,0.27-0.57,0.53-0.88,0.8
			c-3.44-4.49-6.21-8.89-8.47-13.45c-1.25-2.52-2.16-4.58-2.84-6.48c-2.06-5.75-2.52-10.09-1.49-14.07c0.82-3.17,0.52-6.4-0.93-9.86
			l-1.46-3.51c-1.21-2.89-2.41-5.79-3.62-8.68c-0.37-0.89-0.83-1.81-1.35-2.72c-0.65-1.13-1.38-1.85-1.77-2.24l-0.09-0.09
			l-4.23-4.59l-5.46,3c-2.85,1.55-4.58,3.58-5.73,4.93l-0.16,0.19c-3.78,4.43-6.36,9.79-7.87,16.36
			c-1.33,5.81-1.49,11.84-0.48,18.44c1.36,8.83,4.06,17.32,8.05,25.22c2.51,4.98,5.48,9.99,8.82,14.91
			c4.27,6.29,8.98,12.12,14.01,17.34c5.72,5.94,11.85,11.29,18.22,15.89c8.35,6.03,15.75,10.3,23.28,13.43
			c7.86,3.27,15.31,5.29,22.76,6.19c2.06,0.25,4.12,0.37,6.12,0.37c6.38,0,12.53-1.26,18.28-3.76c4.86-2.1,8.57-5.26,10.94-7.46
			c4.3-3.98,3.44-8.51,2.86-10.27l-0.91-2.8l-2.44-1.5l-0.03-0.02c-0.38-0.26-1.1-0.75-2.08-1.16c-3.17-1.35-6.34-2.7-9.52-4.05
			l-4.77-2.03c-1.75-0.75-3.63-1.12-5.57-1.12c-1.17,0-2.34,0.13-3.59,0.41c-1.71,0.38-3.03,0.55-4.15,0.55
			c-0.25,0-0.49-0.01-0.72-0.03c-3.34-0.25-6.21-0.82-8.76-1.73c-6.99-2.52-13.76-6.3-20.66-11.53c0.21-0.22,0.43-0.44,0.67-0.67
			c1.83-1.77,3.79-3.7,6.17-6.06c1.98-1.97,3.96-3.94,5.94-5.92c3.71-3.7,7.54-7.51,11.33-11.26c2.73,3.46,5.08,7.03,7,10.65
			c0.43,0.82,0.89,1.62,1.35,2.4c1.88,3.14,4.69,5.43,8.12,6.64c1.01,0.36,2.08,0.8,3.21,1.27c0.49,0.2,0.97,0.41,1.46,0.61
			c1.04,0.42,2.08,0.85,3.12,1.28c2.16,0.89,4.33,1.78,6.5,2.65c0.07,0.03,0.14,0.06,0.21,0.09c0.93,0.41,2.66,1.18,4.99,1.18
			c0.75,0,1.51-0.08,2.25-0.24l3.98-0.88l1.63-3.74c1.6-3.66,0.6-6.88,0.18-8.25l-0.07-0.23c-2.37-7.96-5.75-15.71-10.32-23.69
			c-3.29-5.76-7.15-11.35-11.45-16.62c-4.63-5.68-9.62-10.89-14.82-15.5c-6.45-5.72-13.49-10.82-20.94-15.17
			c-7.37-4.3-15.31-7.71-23.58-10.14C175.56,514.01,173.83,513.5,171.73,513.5L171.73,513.5z"/>
	</g>
	<g>
		<path class="st0" d="M660.75,467.04c-1.79,0-2.84-0.38-4.35-1.01l-3.55-1.48l1.35-3.61l0.46-1.26c0.33-0.91,0.65-1.77,0.99-2.62
			c1.3-3.21,2.62-6.4,3.95-9.6c0.23-0.57,0.49-1.13,0.74-1.69c0.18-0.4,0.36-0.79,0.53-1.19c0.77-1.81,2.03-3.22,3.73-4.18
			c4.38-2.48,7.7-6.42,10.76-12.78c4.2-8.74,5.9-18.17,6.92-25.41c0.04-0.3,0.04-0.81-0.41-1.8c-0.19-0.43-0.29-0.44-0.56-0.47
			c-1.71-0.19-3.26-0.35-4.74-0.36c-6.19-0.03-12.38-0.04-18.57-0.04c-3.64,0-7.27,0.01-10.91,0.02c-1.78,0.01-3.7,0.12-6.04,0.37
			c-1.18,0.13-1.28,0.14-1.38,1.55c-0.13,1.91,0.2,3.9,0.73,6.29c0.98,4.39,1.86,8,2.78,11.37c0.78,2.86,0.65,5.45-0.4,7.92
			l-2.35,5.53c-1.51,3.56-3.01,7.11-4.53,10.66c-0.29,0.68-0.66,1.18-0.94,1.55c-0.07,0.1-0.15,0.2-0.23,0.32l-2.58,3.8l-3.41-3.07
			c-0.08-0.08-0.17-0.14-0.25-0.2c-0.44-0.35-1.11-0.88-1.64-1.75c-0.62-1.02-1.17-2.05-1.71-3.04l-0.4-0.74
			c-5.03-9.28-8.52-19.93-10.67-32.55c-1.57-9.25-2.01-19-1.34-29.81c0.63-10.1,2.72-20.28,6.39-31.1c1.61-4.75,3.69-9.6,6.55-15.24
			l0.14-0.28c0.56-1.13,1.41-2.84,3.42-4.05l2.95-1.78l2.2,2.65c0.05,0.06,0.1,0.12,0.15,0.17c0.31,0.34,0.78,0.85,1.16,1.6
			c0.56,1.14,1.11,2.32,1.61,3.51c1.72,4.05,3.42,8.11,5.12,12.18c0.15,0.37,0.29,0.74,0.42,1.12c0.07,0.21,0.14,0.42,0.23,0.62
			c1.08,2.66,0.66,5.02,0.25,6.56c-1.17,4.45-2.13,8.42-2.92,12.13c-0.3,1.41-0.44,2.92-0.59,4.52c-0.05,0.49-0.09,0.98-0.14,1.46
			c0,0.03-0.01,0.2,0.08,0.69c0.15,0.83,0.28,0.85,0.74,0.93c0.83,0.15,1.54,0.22,2.15,0.22c10.09,0.04,20.18,0.06,30.27,0.08l0.9,0
			c1.91,0,3.51-0.02,5.11-0.1c0.82-0.04,1.65-0.17,2.48-0.39c0.65-0.17,0.82-0.31,0.9-1.12c0.05-0.56,0.02-0.92-0.01-1.12
			c-1.08-7.37-2.86-16.94-7.1-25.64c-2.06-4.24-4.06-7.11-6.49-9.31c-1.08-0.98-2.36-1.95-4.04-3.06c-1.26-0.83-3.05-2.21-4.04-4.64
			l-0.96-2.34c-1.55-3.77-3.1-7.54-4.63-11.32c-0.31-0.78-0.47-1.51-0.62-2.15c-0.05-0.23-0.1-0.46-0.16-0.71l-0.92-3.62l3.55-1.16
			c0.12-0.04,0.23-0.08,0.33-0.12c0.5-0.2,1.26-0.5,2.23-0.55c0.6-0.03,1.19-0.05,1.79-0.05c2.87,0,5.48,0.36,7.99,1.1
			c5.65,1.67,10.74,4.6,15.15,8.71c5.25,4.89,9.6,10.83,13.3,18.16c5.24,10.37,8.64,22.02,10.42,35.63c1,7.68,1.3,16.02,0.92,25.48
			c-0.19,4.65-0.9,9.14-1.73,14.1c-1,5.98-2.59,12.09-4.72,18.16c-2.82,8.05-5.92,14.39-9.76,19.95
			c-4.2,6.09-8.84,10.65-14.19,13.94c-5.67,3.49-11.25,5.28-17.06,5.46C661.25,467.03,660.99,467.04,660.75,467.04z"/>
		<path d="M661.24,310.32c2.32,0,4.61,0.27,6.86,0.94c5.14,1.52,9.65,4.15,13.56,7.8c5.24,4.88,9.25,10.68,12.46,17.04
			c5.46,10.82,8.46,22.36,10.03,34.35c1.08,8.25,1.22,16.51,0.88,24.8c-0.19,4.57-0.92,9.09-1.68,13.6c-1,5.97-2.55,11.79-4.55,17.5
			c-2.35,6.7-5.24,13.15-9.28,19.01c-3.51,5.09-7.71,9.55-13,12.81c-4.61,2.84-9.59,4.7-15.09,4.87c-0.25,0.01-0.47,0.01-0.67,0.01
			c-0.99,0-1.44-0.13-2.81-0.71c0.51-1.37,0.93-2.58,1.42-3.77c1.3-3.2,2.61-6.38,3.94-9.57c0.4-0.96,0.85-1.89,1.26-2.84
			c0.42-0.99,1.09-1.74,2.02-2.27c5.9-3.34,9.55-8.61,12.4-14.53c4.04-8.41,5.99-17.42,7.27-26.59c0.2-1.42-0.15-2.74-0.73-4.01
			c-0.74-1.62-2-2.59-3.77-2.78c-1.71-0.18-3.44-0.37-5.16-0.38c-6.21-0.03-12.43-0.04-18.64-0.04c-3.62,0-7.24,0.01-10.86,0.02
			c-2.15,0.01-4.31,0.17-6.45,0.4c-3.22,0.34-4.72,2.02-4.94,5.25c-0.17,2.53,0.27,5,0.82,7.44c0.86,3.87,1.78,7.73,2.83,11.55
			c0.5,1.84,0.52,3.55-0.22,5.3c-2.29,5.4-4.57,10.8-6.88,16.19c-0.16,0.38-0.46,0.7-0.8,1.2c-0.45-0.41-0.91-0.67-1.15-1.06
			c-0.72-1.18-1.35-2.4-2.01-3.61c-5.32-9.82-8.37-20.36-10.24-31.32c-1.63-9.59-1.89-19.23-1.29-28.89
			c0.64-10.29,2.87-20.3,6.18-30.06c1.72-5.08,3.91-9.95,6.33-14.72c0.5-0.98,0.92-2.03,2.05-2.71c0.3,0.37,0.63,0.64,0.81,1
			c0.54,1.08,1.04,2.18,1.51,3.29c1.71,4.05,3.41,8.1,5.11,12.16c0.23,0.56,0.4,1.14,0.63,1.7c0.54,1.34,0.46,2.63,0.09,4.04
			c-1.08,4.08-2.09,8.19-2.97,12.32c-0.45,2.1-0.58,4.26-0.8,6.4c-0.06,0.59,0.01,1.21,0.12,1.8c0.4,2.27,1.66,3.76,3.99,4.17
			c0.93,0.16,1.88,0.27,2.82,0.28c10.09,0.04,20.19,0.06,30.28,0.08c0.29,0,0.59,0,0.88,0c1.78,0,3.56-0.01,5.33-0.1
			c1.11-0.05,2.24-0.24,3.31-0.52c2.35-0.62,3.64-2.21,3.86-4.63c0.06-0.68,0.07-1.39-0.03-2.06c-1.36-9.25-3.33-18.33-7.46-26.81
			c-1.9-3.9-4.15-7.58-7.4-10.52c-1.4-1.27-2.94-2.39-4.52-3.43c-1.12-0.74-2.04-1.58-2.55-2.82c-1.87-4.54-3.74-9.09-5.58-13.64
			c-0.28-0.7-0.39-1.46-0.61-2.35c0.6-0.19,1.05-0.45,1.51-0.48C660.18,310.33,660.71,310.32,661.24,310.32 M661.24,302.32
			c-0.65,0-1.32,0.02-2,0.05c-1.62,0.08-2.83,0.56-3.48,0.82l-0.14,0.06l-7.07,2.31l1.84,7.25c0.05,0.2,0.09,0.4,0.13,0.58
			c0.16,0.72,0.37,1.7,0.81,2.79c1.54,3.8,3.12,7.65,4.65,11.37l0.95,2.32c1.06,2.59,2.88,4.7,5.54,6.46
			c1.5,0.99,2.62,1.84,3.55,2.68c2.03,1.84,3.75,4.33,5.58,8.09c3.64,7.48,5.34,15.49,6.45,22.56c-1.31,0.05-2.67,0.06-4.26,0.06
			l-0.87,0c-11.51-0.02-20.53-0.04-29.01-0.07c0.11-1.08,0.23-2.1,0.42-2.99c0.78-3.64,1.72-7.55,2.88-11.94
			c0.87-3.29,0.73-6.26-0.41-9.08c-0.06-0.14-0.1-0.29-0.16-0.43c-0.13-0.37-0.29-0.83-0.5-1.35c-1.7-4.07-3.4-8.13-5.12-12.19
			c-0.54-1.27-1.12-2.53-1.71-3.73c-0.63-1.27-1.43-2.13-1.81-2.54l-0.05-0.06l-4.35-5.24l-5.89,3.55
			c-3.01,1.82-4.31,4.44-4.94,5.71l-0.12,0.25c-2.94,5.82-5.09,10.83-6.76,15.76c-3.78,11.16-5.94,21.68-6.59,32.14
			c-0.69,11.12-0.24,21.17,1.39,30.73c2.22,13.07,5.85,24.12,11.09,33.79l0.39,0.73c0.56,1.04,1.14,2.11,1.81,3.23
			c0.9,1.49,2.03,2.38,2.57,2.81l0.1,0.08l6.78,6.11l5.15-7.6c0.05-0.07,0.09-0.13,0.13-0.18c0.35-0.47,0.92-1.25,1.4-2.36
			c1.5-3.51,2.98-7.01,4.47-10.52l2.41-5.68c1.39-3.28,1.59-6.83,0.57-10.54c-0.91-3.31-1.78-6.86-2.74-11.18
			c-0.26-1.19-0.47-2.25-0.58-3.2c1.23-0.09,2.33-0.14,3.37-0.14c3.61-0.01,7.22-0.02,10.84-0.02c5.95,0,12.04,0.01,18.61,0.04
			c0.47,0,0.97,0.02,1.48,0.06c-1.42,9.31-3.38,16.23-6.27,22.24c-2.68,5.58-5.5,8.98-9.13,11.03c-2.45,1.38-4.33,3.49-5.44,6.09
			c-0.16,0.38-0.33,0.75-0.5,1.12c-0.27,0.6-0.54,1.19-0.79,1.8c-1.18,2.84-2.57,6.21-3.96,9.63c-0.38,0.94-0.72,1.86-1.05,2.76
			c-0.14,0.4-0.29,0.8-0.45,1.22l-2.69,7.21l7.11,2.97c1.8,0.75,3.37,1.32,5.89,1.32c0.27,0,0.58-0.01,0.93-0.02
			c6.43-0.2,12.84-2.24,19.03-6.05c5.84-3.59,10.87-8.53,15.39-15.08c4.04-5.86,7.3-12.51,10.24-20.9
			c2.2-6.28,3.85-12.61,4.89-18.82c0.86-5.1,1.58-9.73,1.78-14.6c0.4-9.69,0.09-18.24-0.94-26.16
			c-1.84-14.06-5.38-26.14-10.82-36.92c-3.92-7.76-8.55-14.07-14.15-19.29c-4.87-4.53-10.5-7.77-16.75-9.61
			C667.52,302.75,664.45,302.32,661.24,302.32L661.24,302.32z"/>
	</g>
	<g>
		<path class="st0" d="M384.04,158.83c-2.93,0-5.81-0.22-8.28-0.42c-8.52-0.7-16.18-2.03-23.4-4.05c-7.78-2.18-15.29-5.3-22.33-9.27
			c-0.07-0.04-0.14-0.08-0.22-0.11c-0.89-0.45-2.99-1.51-3.59-4.28l-0.49-2.26l1.71-1.55c0.29-0.3,0.78-0.81,1.53-1.2
			c0.99-0.53,1.84-0.93,2.67-1.28c1.75-0.73,3.51-1.45,5.27-2.17c2.78-1.14,5.57-2.28,8.34-3.45c1.63-0.69,3.33-1.03,5.04-1.03
			c1.16,0,2.32,0.15,3.54,0.46c4.04,1.02,8.35,2,13.18,2.99c0.97,0.2,2.02,0.3,3.12,0.3c0.26,0,0.52-0.01,0.78-0.02
			c0.62-0.03,0.83-0.15,0.85-0.16c0,0,0.14-0.22,0.21-0.88c0.15-1.58,0.22-3.29,0.23-5.07c0.02-9.08,0.02-18.4,0-27.68
			c0-1.97-0.07-4.07-0.2-6.24c-0.13-2.28-0.8-2.28-1.65-2.28c-0.28,0-0.6,0.03-0.94,0.08c-6.58,1.07-15.16,2.76-23.07,6.38
			c-2.83,1.29-5.3,2.73-7.57,4.39c-2.64,1.93-4.44,3.8-5.65,5.87c-1.45,2.48-3.62,4.3-6.45,5.42c-2.6,1.03-5.18,2.1-7.77,3.16
			c-1.55,0.64-3.1,1.28-4.65,1.91l-0.22,0.09c-0.62,0.27-1.67,0.72-3.03,0.72c-0.84,0-1.68-0.17-2.49-0.52l-1.73-0.74l-0.53-1.81
			l-0.02-0.04c-0.18-0.47-0.52-1.35-0.5-2.46c0.02-1.37,0.06-2.97,0.29-4.6c0.98-7.09,3.99-13.55,8.96-19.18
			c4.93-5.59,11.21-10.25,19.19-14.24c9.31-4.65,19.71-7.78,31.78-9.56c7.28-1.08,13.31-1.58,18.98-1.58c1.13,0,2.27,0.02,3.4,0.06
			c3.04,0.11,6.17,0.34,9.29,0.66c6.87,0.72,12.56,1.68,17.89,3.04c11.79,2.99,21.47,7.21,29.62,12.9
			c5.49,3.83,9.77,8.08,13.09,12.97c2.96,4.36,4.86,9.37,5.81,15.29c0.25,1.54,0.49,3.91-0.18,6.61l-0.71,2.83l-2.92,0.19
			c-0.06,0.01-0.13,0.02-0.2,0.03c-0.29,0.04-0.69,0.1-1.16,0.1c-0.49,0-0.97-0.06-1.42-0.18c-1.07-0.29-2.04-0.69-2.9-1.04
			l-0.23-0.09c-3.2-1.3-6.4-2.62-9.59-3.94c-0.91-0.38-1.81-0.78-2.71-1.19c-2.07-0.94-3.64-2.31-4.71-4.09
			c-2.69-4.49-6.84-7.79-13.9-11.04c-4.38-2.02-9.04-3.52-13.84-4.48c-1.04-0.21-2.09-0.43-3.13-0.65c-1.85-0.39-3.6-0.76-5.38-1.07
			c-0.39-0.07-0.8-0.1-1.22-0.1c-0.38,0-0.75,0.03-1.12,0.08c-0.65,0.1-0.77,0.11-0.92,0.95c-0.23,1.29-0.34,2.53-0.35,3.7
			c-0.04,11.3-0.06,22.7-0.03,33.89c0,0.87,0.12,1.87,0.36,3.07c0.06,0.28,0.12,0.37,0.12,0.37c0.03,0.02,0.2,0.11,0.55,0.15
			c0.5,0.06,0.91,0.09,1.27,0.09c0.26,0,0.48-0.02,0.67-0.05c3.3-0.54,6.57-1.15,9.74-1.8c1.55-0.32,3.1-0.75,4.74-1.2l1.03-0.28
			c1.21-0.33,2.42-0.5,3.61-0.5c1.51,0,2.99,0.27,4.42,0.8c1.31,0.48,2.6,1.02,3.74,1.48l1.73,0.71c2.55,1.05,5.09,2.09,7.63,3.17
			c0.25,0.11,0.51,0.21,0.77,0.32c1.36,0.55,3.06,1.24,4.65,2.56l2.76,2.29l-1.97,2.99c-1.4,2.12-3.39,3.12-4.58,3.73l-0.96,0.49
			c-2.54,1.29-5.17,2.62-7.9,3.78c-6.66,2.82-13.72,4.93-21.59,6.43c-6.79,1.3-14.14,2.05-22.47,2.32
			C385.2,158.82,384.62,158.83,384.04,158.83z"/>
		<path d="M384.94,66.46c1.08,0,2.17,0.02,3.25,0.06c3.01,0.11,6.03,0.33,9.03,0.65c5.83,0.61,11.63,1.49,17.32,2.94
			c10.1,2.56,19.71,6.3,28.31,12.3c4.7,3.28,8.82,7.15,12.07,11.94c2.83,4.16,4.39,8.77,5.17,13.68c0.26,1.6,0.33,3.25-0.11,5.01
			c-0.38,0.02-0.76,0.11-1.1,0.11c-0.13,0-0.25-0.01-0.37-0.04c-0.91-0.25-1.79-0.62-2.67-0.98c-3.19-1.3-6.38-2.61-9.57-3.93
			c-0.88-0.36-1.74-0.75-2.6-1.15c-1.21-0.55-2.22-1.35-2.91-2.49c-3.67-6.14-9.39-9.74-15.66-12.62
			c-4.72-2.17-9.63-3.75-14.73-4.77c-2.87-0.57-5.73-1.24-8.61-1.73c-0.62-0.11-1.26-0.16-1.9-0.16c-0.57,0-1.15,0.04-1.7,0.12
			c-2.44,0.36-3.84,1.77-4.27,4.21c-0.25,1.44-0.4,2.91-0.41,4.37c-0.04,11.3-0.06,22.61-0.03,33.91c0,1.28,0.18,2.58,0.43,3.84
			c0.44,2.21,1.91,3.43,4.1,3.71c0.58,0.07,1.18,0.13,1.77,0.13c0.45,0,0.89-0.03,1.32-0.1c3.31-0.54,6.62-1.15,9.91-1.83
			c2.02-0.42,4.01-1,6.01-1.54c0.86-0.23,1.71-0.36,2.55-0.36c1.02,0,2.03,0.18,3.04,0.55c1.21,0.45,2.41,0.94,3.6,1.43
			c3.11,1.28,6.22,2.55,9.32,3.86c1.49,0.64,3.07,1.14,4.43,2.28c-0.77,1.17-1.92,1.79-3.04,2.36c-2.85,1.44-5.68,2.91-8.62,4.15
			c-6.69,2.84-13.63,4.82-20.77,6.18c-7.23,1.38-14.52,2.02-21.85,2.25c-0.54,0.02-1.07,0.02-1.61,0.02c-2.65,0-5.31-0.19-7.95-0.41
			c-7.66-0.63-15.24-1.84-22.65-3.91c-7.5-2.1-14.66-5.07-21.45-8.9c-0.71-0.4-1.63-0.66-1.87-1.76c0.23-0.2,0.44-0.48,0.72-0.63
			c0.76-0.4,1.54-0.79,2.33-1.12c4.54-1.88,9.1-3.72,13.62-5.63c1.17-0.49,2.31-0.72,3.49-0.72c0.84,0,1.68,0.12,2.56,0.34
			c4.43,1.12,8.89,2.12,13.36,3.03c1.28,0.26,2.61,0.38,3.93,0.38c0.32,0,0.64-0.01,0.96-0.02c2.99-0.13,4.59-1.72,4.86-4.67
			c0.17-1.8,0.24-3.62,0.24-5.43c0.02-9.23,0.02-18.47,0-27.7c-0.01-2.15-0.08-4.31-0.2-6.46c-0.23-3.9-2.2-6.05-5.65-6.05
			c-0.5,0-1.02,0.04-1.58,0.13c-8.27,1.34-16.42,3.18-24.1,6.69c-2.91,1.33-5.69,2.91-8.27,4.8c-2.66,1.95-5.05,4.19-6.74,7.07
			c-1.05,1.79-2.55,2.96-4.47,3.72c-4.17,1.65-8.3,3.4-12.45,5.08c-0.54,0.22-1.09,0.52-1.73,0.52c-0.28,0-0.58-0.06-0.91-0.2
			c-0.11-0.37-0.37-0.84-0.36-1.32c0.02-1.37,0.06-2.76,0.25-4.12c0.9-6.51,3.67-12.18,8-17.08c5.04-5.71,11.21-9.92,17.98-13.3
			c9.66-4.82,19.93-7.61,30.57-9.18C372.66,67.09,378.78,66.46,384.94,66.46 M384.94,58.46c-5.87,0-12.09,0.52-19.57,1.62
			c-12.5,1.85-23.28,5.1-32.98,9.94c-8.45,4.22-15.13,9.18-20.41,15.17c-5.5,6.23-8.84,13.4-9.92,21.28
			c-0.26,1.86-0.3,3.6-0.32,5.09c-0.03,1.82,0.49,3.24,0.74,3.89l1,3.41l3.46,1.49c1.31,0.56,2.67,0.85,4.07,0.85
			c2.18,0,3.82-0.71,4.61-1.05l0.14-0.06c1.56-0.63,3.11-1.28,4.67-1.92c2.53-1.04,5.15-2.12,7.71-3.14
			c3.68-1.46,6.51-3.85,8.43-7.12c0.93-1.58,2.38-3.07,4.56-4.66c2.04-1.5,4.29-2.8,6.87-3.98c6.73-3.08,14.08-4.7,20.1-5.74
			c0.06,1.44,0.09,2.84,0.1,4.17c0.02,9.3,0.02,18.61,0,27.66c0,0.67-0.01,1.34-0.04,1.98c-0.12-0.02-0.23-0.04-0.34-0.06
			c-4.77-0.98-9.02-1.94-13-2.95c-1.53-0.39-3.05-0.58-4.53-0.58c-2.25,0-4.47,0.45-6.59,1.35c-2.74,1.15-5.56,2.31-8.28,3.43
			c-1.77,0.73-3.54,1.45-5.3,2.18c-0.95,0.39-1.91,0.85-3.02,1.44c-1.26,0.67-2.08,1.49-2.45,1.87l-3.32,3l0.99,4.53
			c0.67,3.07,2.58,5.42,5.69,6.99l0.1,0.05c7.31,4.12,15.1,7.35,23.18,9.61c7.47,2.09,15.37,3.46,24.15,4.18
			c2.55,0.21,5.53,0.43,8.61,0.43c0.62,0,1.24-0.01,1.86-0.03c8.54-0.27,16.1-1.05,23.1-2.39c8.15-1.55,15.47-3.74,22.4-6.67
			c2.86-1.21,5.55-2.58,8.16-3.9l0.94-0.48c1.34-0.68,4.13-2.09,6.11-5.09l3.95-5.98l-5.51-4.58c-2.07-1.72-4.17-2.57-5.7-3.19
			c-0.24-0.1-0.47-0.19-0.71-0.29c-2.57-1.09-5.17-2.16-7.69-3.2l-1.72-0.7c-1.17-0.48-2.5-1.03-3.88-1.54
			c-1.87-0.69-3.83-1.04-5.81-1.04c-1.54,0-3.11,0.21-4.66,0.64l-1.05,0.29c-1.57,0.43-3.06,0.84-4.48,1.14
			c-2.58,0.54-5.24,1.04-7.91,1.49c-0.02-11.04-0.01-22.23,0.04-33.28c0-0.16,0-0.33,0.01-0.5c1.35,0.25,2.72,0.54,4.15,0.84
			c1.05,0.22,2.11,0.45,3.16,0.66c4.49,0.89,8.85,2.3,12.95,4.19c6.27,2.88,9.89,5.71,12.13,9.46c1.47,2.46,3.71,4.42,6.47,5.67
			c0.93,0.42,1.86,0.84,2.85,1.25c3.2,1.32,6.4,2.64,9.61,3.95l0.23,0.09c0.92,0.37,2.06,0.84,3.36,1.19
			c0.79,0.21,1.62,0.32,2.46,0.32c0.75,0,1.35-0.08,1.71-0.13l0.03,0l5.7-0.37l1.42-5.66c0.65-2.6,0.73-5.21,0.25-8.21
			c-1.04-6.52-3.15-12.05-6.45-16.91c-3.6-5.3-8.22-9.88-14.11-14c-8.55-5.97-18.66-10.39-30.92-13.5
			c-5.53-1.4-11.39-2.4-18.46-3.14c-3.21-0.34-6.43-0.57-9.56-0.68C387.33,58.48,386.14,58.46,384.94,58.46L384.94,58.46z"/>
	</g>
	<g>
		<path class="st0" d="M113.42,361.04c-4.03,0-7.84-1.84-10.46-5.04c-1.42-1.74-2.26-3.92-2.49-6.47c-0.23-2.6,0.24-5.28,1.44-8.18
			c1.62-3.91,3.24-7.81,4.88-11.71c0.89-2.12,1.78-4.23,2.67-6.34c1.22-2.89,2.44-5.77,3.64-8.66c1.97-4.73,3.93-9.46,5.88-14.19
			l4.29-10.37c1.32-3.19,2.64-6.39,3.96-9.58c1.31-3.14,2.62-6.28,3.93-9.42l3.39-8.09c1.25-2.99,2.5-5.97,3.75-8.96l12.38-29.73
			c1.45-3.49,2.96-7.1,4.5-10.63c0.65-1.48,1.37-2.68,2.22-3.66c2.42-2.79,5.98-4.4,9.77-4.4c2.98,0,5.87,1.01,8.15,2.84
			c2.97,2.39,4.72,6.35,4.69,10.59c0.02,1.44-0.38,3.17-1.28,5.36l-1.18,2.89c-1.67,4.06-3.33,8.13-5.01,12.19
			c-2.47,5.98-4.94,11.95-7.43,17.92c-1.06,2.53-2.12,5.06-3.18,7.59c-1.27,3.03-2.55,6.06-3.81,9.09
			c-1.68,4.06-3.36,8.11-5.04,12.17c-1.81,4.38-3.62,8.77-5.44,13.14c-1.7,4.09-3.41,8.17-5.12,12.26
			c-1.65,3.94-3.3,7.88-4.94,11.83c-1.8,4.32-3.59,8.65-5.38,12.97c-1.8,4.35-3.6,8.71-5.41,13.05c-0.55,1.32-1.3,3.06-2.19,4.78
			C122.39,358.51,118.21,361.04,113.42,361.04z"/>
		<path d="M167.18,209.59c2,0,4.01,0.64,5.63,1.96c1.94,1.57,3.22,4.39,3.2,7.45c0.02,1.12-0.42,2.51-0.98,3.87
			c-2.06,5.02-4.11,10.05-6.19,15.06c-2.47,5.97-4.94,11.94-7.43,17.91c-2.32,5.57-4.68,11.12-6.99,16.69
			c-3.5,8.43-6.97,16.88-10.48,25.32c-3.34,8.04-6.73,16.05-10.07,24.09c-3.61,8.67-7.18,17.36-10.79,26.03
			c-0.63,1.51-1.29,3.01-2.04,4.46c-1.6,3.06-4.57,4.62-7.63,4.62c-2.67,0-5.41-1.18-7.36-3.57c-1.01-1.23-1.46-2.71-1.6-4.3
			c-0.2-2.21,0.32-4.28,1.15-6.3c1.62-3.9,3.24-7.8,4.87-11.69c2.1-5.01,4.23-10,6.32-15.01c2.52-6.04,5.02-12.1,7.52-18.15
			c2.21-5.33,4.4-10.67,6.62-16.01c1.75-4.22,3.52-8.43,5.28-12.64c1.93-4.61,3.86-9.22,5.78-13.83
			c4.11-9.86,8.21-19.73,12.32-29.59c1.49-3.58,2.98-7.16,4.53-10.71c0.41-0.94,0.92-1.88,1.58-2.64
			C162.16,210.61,164.66,209.59,167.18,209.59 M167.18,201.59L167.18,201.59c-4.95,0-9.62,2.11-12.79,5.78
			c-1.12,1.29-2.05,2.82-2.86,4.68c-1.56,3.58-3.08,7.22-4.55,10.74l-0.04,0.09c-2.29,5.48-4.57,10.97-6.85,16.45
			c-1.82,4.38-3.65,8.76-5.47,13.14c-1.23,2.96-2.47,5.93-3.71,8.89l-2.07,4.94l-1.39,3.33c-1.3,3.11-2.6,6.22-3.89,9.33
			c-1.34,3.23-2.67,6.45-4,9.68c-0.87,2.11-1.74,4.22-2.61,6.33l-1.74,4.2c-1.92,4.64-3.84,9.29-5.77,13.92
			c-1.21,2.89-2.43,5.78-3.64,8.66c-0.89,2.11-1.78,4.22-2.67,6.33c-1.64,3.91-3.27,7.81-4.89,11.73
			c-1.45,3.51-2.02,6.81-1.73,10.07c0.3,3.37,1.44,6.28,3.37,8.65c3.38,4.14,8.32,6.51,13.56,6.51c6.22,0,11.86-3.42,14.73-8.92
			c0.97-1.85,1.76-3.69,2.34-5.09c1.81-4.35,3.61-8.7,5.41-13.06c1.79-4.32,3.58-8.65,5.38-12.97c1.65-3.96,3.3-7.92,4.96-11.87
			c1.71-4.07,3.41-8.14,5.11-12.22c1.81-4.36,3.62-8.73,5.42-13.1c1.68-4.08,3.37-8.15,5.06-12.22c1.26-3.03,2.53-6.06,3.81-9.09
			c1.06-2.53,2.13-5.06,3.18-7.59c2.49-5.97,4.97-11.95,7.44-17.93c1.68-4.06,3.34-8.13,5.01-12.2l1.18-2.89
			c1.09-2.66,1.59-4.87,1.58-6.93c0.01-5.42-2.29-10.52-6.18-13.65C174.85,202.92,171.07,201.59,167.18,201.59L167.18,201.59z"/>
	</g>
	<g>
		<path class="st0" d="M654.32,361c-3.58-0.08-7.16-2.25-9.34-5.65c-1.12-1.74-1.96-3.63-2.63-5.24
			c-2.33-5.59-4.64-11.18-6.96-16.78c-1.31-3.17-2.62-6.34-3.93-9.51c-4.19-10.11-8.38-20.22-12.6-30.33
			c-2.18-5.23-4.36-10.45-6.55-15.67c-2.67-6.39-5.35-12.78-8.01-19.18c-3.44-8.26-6.84-16.53-10.25-24.81l-0.91-2.22
			c-1.13-2.74-2.27-5.59-3.4-8.46c-1.01-2.57-1.18-5.18-0.51-7.78c1.36-5.29,5.59-9,11.04-9.69c0.53-0.07,1.08-0.1,1.61-0.1
			c4.81,0,9.13,2.65,11.27,6.91c1.11,2.22,2.07,4.5,2.99,6.69l0.37,0.88c2.58,6.12,5.13,12.26,7.68,18.4
			c1.16,2.81,2.32,5.62,3.47,8.43c1.11,2.69,2.21,5.39,3.33,8.08c4.12,9.95,8.25,19.9,12.4,29.85c3.26,7.82,6.52,15.63,9.78,23.44
			l6.92,16.57c2.21,5.28,4.41,10.57,6.6,15.86c0.53,1.29,0.99,2.66,1.39,4.19c1,3.82,0.22,7.76-2.13,10.81
			c-2.59,3.36-6.78,5.29-11.52,5.29h-0.05L654.32,361z"/>
		<path d="M601.89,209.6c3.21,0,6.2,1.74,7.69,4.71c1.2,2.39,2.21,4.87,3.25,7.33c2.58,6.12,5.13,12.25,7.67,18.38
			c2.28,5.49,4.52,11,6.8,16.5c4.13,9.96,8.26,19.91,12.4,29.86c4.91,11.78,9.83,23.55,14.74,35.32c2.86,6.84,5.72,13.68,8.55,20.53
			c0.49,1.19,0.89,2.43,1.22,3.68c1.49,5.69-2.72,11.08-9.79,11.09c-1.9-0.04-4.41-1.23-6.07-3.81c-0.92-1.44-1.64-3.03-2.3-4.62
			c-3.65-8.75-7.25-17.52-10.89-26.28c-4.19-10.11-8.39-20.23-12.6-30.33c-4.84-11.62-9.72-23.22-14.56-34.84
			c-3.74-8.99-7.45-18-11.15-27.01c-1.15-2.79-2.27-5.59-3.37-8.4c-0.68-1.73-0.84-3.49-0.36-5.32c0.95-3.69,3.79-6.22,7.66-6.71
			C601.15,209.62,601.52,209.6,601.89,209.6 M601.89,201.6L601.89,201.6c-0.7,0-1.41,0.04-2.11,0.13
			c-7.12,0.89-12.64,5.74-14.41,12.66c-0.88,3.42-0.65,6.86,0.66,10.23c1.14,2.9,2.29,5.77,3.42,8.53l1.04,2.54
			c3.31,8.03,6.72,16.34,10.12,24.51c2.65,6.38,5.32,12.75,7.99,19.12c2.19,5.24,4.39,10.48,6.57,15.72
			c4.17,10.01,8.34,20.05,12.59,30.32c1.32,3.18,2.63,6.35,3.94,9.53c2.27,5.5,4.62,11.18,6.95,16.77c0.74,1.77,1.67,3.86,2.96,5.86
			c2.89,4.5,7.73,7.37,12.61,7.48l0.1,0l0.1,0c5.98-0.01,11.33-2.51,14.68-6.85c3.12-4.04,4.15-9.25,2.83-14.27
			c-0.45-1.71-0.96-3.25-1.56-4.7c-2.19-5.3-4.43-10.66-6.6-15.85l-1.97-4.71l-4.85-11.61c-3.3-7.9-6.6-15.8-9.89-23.71
			c-4.14-9.94-8.27-19.89-12.39-29.84c-1.11-2.68-2.21-5.37-3.32-8.05c-1.16-2.82-2.32-5.64-3.48-8.45
			c-2.95-7.11-5.39-12.97-7.69-18.42l-0.37-0.88c-0.95-2.26-1.93-4.59-3.1-6.93C613.91,205.1,608.22,201.6,601.89,201.6
			L601.89,201.6z"/>
	</g>
	<g>
		<path class="st0" d="M347.31,671.03c-1.08,0-2.17-0.14-3.23-0.42c-1.55-0.4-3.18-0.96-5.14-1.76c-7.28-2.96-14.38-5.9-20.35-8.37
			c-3.5-1.45-7.01-2.91-10.51-4.37c-4.46-1.86-8.91-3.71-13.37-5.55c-4.2-1.73-8.4-3.45-12.6-5.17c-4.65-1.9-9.31-3.81-13.96-5.73
			c-6.44-2.66-12.87-5.34-19.3-8.01c-5.03-2.09-10.07-4.19-15.1-6.28c-4.32-1.79-8.65-3.57-12.97-5.35l-7.1-2.92
			c-0.68-0.28-1.36-0.57-2.03-0.88c-6.33-2.88-9.05-9.58-6.62-16.29c1.84-5.08,6.24-8.23,11.77-8.43l0.48-0.02l0.47,0.1
			c0.28,0.06,0.56,0.11,0.85,0.16c0.76,0.14,1.62,0.3,2.51,0.57c1.22,0.37,2.49,0.83,4.01,1.46c4.23,1.74,8.46,3.49,12.69,5.24
			c4.46,1.84,8.91,3.68,13.37,5.52c5.85,2.41,11.7,4.8,17.55,7.2c6.35,2.61,12.71,5.21,19.06,7.82c7.9,3.25,15.79,6.51,23.68,9.78
			l11.36,4.7c8.64,3.57,17.28,7.15,25.92,10.74c1.47,0.61,3.02,1.34,4.74,2.22c5.72,2.94,8.09,9.63,5.64,15.92
			C357.2,667.84,352.56,671.03,347.31,671.03z"/>
		<path d="M216.93,595.49c1.01,0.21,2.03,0.35,3.01,0.64c1.24,0.37,2.45,0.83,3.64,1.33c8.69,3.58,17.37,7.18,26.06,10.76
			c12.2,5.02,24.41,10.01,36.61,15.03c10.2,4.2,20.4,8.42,30.6,12.64c10.12,4.18,20.24,8.36,30.35,12.57
			c1.51,0.63,2.99,1.34,4.45,2.08c3.65,1.87,5.54,6.3,3.74,10.92c-1.33,3.41-4.55,5.57-8.08,5.57c-0.73,0-1.48-0.09-2.22-0.29
			c-1.58-0.41-3.13-0.98-4.64-1.59c-6.79-2.76-13.56-5.56-20.33-8.36c-7.97-3.3-15.91-6.64-23.88-9.93
			c-8.85-3.65-17.72-7.25-26.56-10.9c-11.47-4.74-22.93-9.53-34.39-14.29c-6.69-2.77-13.39-5.51-20.09-8.27
			c-0.64-0.26-1.27-0.54-1.9-0.82c-4.49-2.04-6.18-6.69-4.52-11.29C210.09,597.68,213.03,595.63,216.93,595.49 M217.6,587.46
			l-0.97,0.04c-7.22,0.26-12.97,4.4-15.38,11.07c-3.12,8.62,0.55,17.57,8.73,21.29c0.68,0.31,1.41,0.63,2.16,0.94
			c2.36,0.97,4.71,1.94,7.07,2.91c4.34,1.78,8.67,3.56,13,5.36c5.03,2.08,10.05,4.17,15.07,6.26c6.44,2.68,12.88,5.36,19.33,8.02
			c4.65,1.92,9.31,3.83,13.97,5.74c4.2,1.72,8.4,3.44,12.6,5.17c4.44,1.83,8.87,3.68,13.3,5.52c3.52,1.47,7.05,2.94,10.57,4.4
			c5.99,2.48,13.1,5.42,20.38,8.38c2.13,0.87,3.93,1.48,5.64,1.93c1.39,0.36,2.81,0.54,4.24,0.54c6.92,0,13.01-4.19,15.53-10.67
			c3.2-8.24,0.03-17.04-7.54-20.93c-1.81-0.93-3.45-1.7-5.03-2.36c-8.6-3.58-17.21-7.14-25.81-10.69l-4.55-1.88l-7.14-2.95
			c-7.82-3.24-15.64-6.47-23.47-9.69c-6.33-2.6-12.66-5.2-18.99-7.8c-5.87-2.41-11.75-4.82-17.62-7.23
			c-4.49-1.85-8.97-3.7-13.46-5.56c-4.2-1.74-8.4-3.47-12.6-5.2c-1.64-0.68-3.04-1.18-4.38-1.59c-1.1-0.33-2.12-0.52-2.93-0.67
			c-0.26-0.05-0.51-0.09-0.76-0.15L217.6,587.46L217.6,587.46z"/>
	</g>
	<g>
		<path class="st0" d="M551.76,181.68c-1.78,0-3.54-0.33-5.24-0.99l-0.87-0.34c-0.86-0.33-1.73-0.66-2.58-1.02
			c-10.2-4.21-20.4-8.42-30.59-12.63c0,0-22.44-9.29-27.24-11.27c-8.52-3.52-17.04-7.04-25.57-10.54c-2.59-1.06-5.18-2.12-7.77-3.18
			c-3.32-1.36-6.63-2.71-9.94-4.08c-7.14-2.95-15.44-6.38-23.66-9.83c-1.33-0.56-2.69-1.28-4.04-2.15
			c-3.36-2.17-5.18-5.48-5.27-9.57c-0.06-2.62,0.23-6.49,3.4-9.77c2.47-2.56,5.64-3.86,9.43-3.86h0.33c1.81,0,3.76,0.45,6.14,1.41
			c4.24,1.72,8.48,3.45,12.71,5.19c6.22,2.56,12.43,5.14,18.65,7.71l9.88,4.11c4.9,2.04,9.8,4.08,14.71,6.1
			c2.67,1.1,5.33,2.19,8.01,3.28c2.52,1.03,5.03,2.05,7.55,3.09c4.12,1.7,8.23,3.4,12.34,5.11c4.72,1.96,9.44,3.92,14.17,5.86
			c3.55,1.46,7.11,2.92,10.66,4.38c5.22,2.14,10.44,4.27,15.65,6.44l0.17,0.07c2.16,0.9,4.4,1.83,6.52,3.21
			c4.34,2.84,6.24,7.55,5.21,12.92c-0.98,5.1-4.16,8.6-8.94,9.85C554.32,181.51,553.03,181.68,551.76,181.68z"/>
		<path d="M421.83,106.44c0.07,0,0.13,0,0.2,0c0.04,0,0.09,0,0.13,0c1.48,0,3.08,0.48,4.64,1.12c4.24,1.71,8.47,3.44,12.69,5.18
			c6.22,2.56,12.43,5.13,18.64,7.71c8.2,3.4,16.39,6.82,24.6,10.21c5.18,2.14,10.37,4.23,15.55,6.37
			c8.84,3.65,17.67,7.33,26.52,10.98c8.76,3.61,17.55,7.17,26.31,10.81c2.06,0.86,4.17,1.72,6.03,2.94
			c3.14,2.06,4.17,5.21,3.47,8.82c-0.65,3.38-2.55,5.82-6.03,6.73c-0.94,0.25-1.88,0.37-2.82,0.37c-1.28,0-2.54-0.23-3.79-0.72
			c-1.13-0.44-2.26-0.86-3.37-1.32c-10.2-4.21-20.39-8.42-30.59-12.63c-9.08-3.75-18.16-7.52-27.24-11.27
			c-8.52-3.52-17.05-7.04-25.58-10.55c-5.9-2.43-11.81-4.83-17.7-7.27c-7.89-3.26-15.77-6.52-23.64-9.82
			c-1.19-0.5-2.33-1.13-3.41-1.82c-2.26-1.46-3.38-3.57-3.44-6.29c-0.06-2.6,0.4-4.96,2.28-6.91
			C417.03,107.26,419.14,106.44,421.83,106.44 M421.83,98.44L421.83,98.44c-4.92,0-9.06,1.71-12.31,5.08
			c-4.69,4.86-4.56,10.71-4.52,12.64c0.12,5.4,2.64,9.96,7.1,12.84c1.54,1,3.11,1.83,4.66,2.48c8.24,3.45,16.55,6.89,23.68,9.83
			c3.29,1.36,6.59,2.71,9.89,4.06c2.61,1.07,5.22,2.14,7.83,3.21c8.52,3.51,17.05,7.02,25.56,10.54c4.81,1.99,9.61,3.98,14.42,5.97
			c4.27,1.77,8.54,3.54,12.82,5.31c10.2,4.22,20.4,8.43,30.6,12.63c0.92,0.38,1.81,0.72,2.68,1.06l0.85,0.33
			c2.15,0.83,4.4,1.26,6.68,1.26c1.61,0,3.23-0.21,4.84-0.63c6.27-1.64,10.59-6.36,11.86-12.96c1.33-6.93-1.26-13.3-6.94-17.02
			c-2.43-1.59-4.95-2.64-7.18-3.56l-0.17-0.07c-5.22-2.17-10.53-4.34-15.66-6.44c-3.56-1.46-7.11-2.91-10.67-4.38
			c-4.73-1.95-9.46-3.91-14.18-5.87c-4.11-1.7-8.22-3.41-12.33-5.11c-2.51-1.04-5.03-2.06-7.55-3.09c-2.67-1.09-5.34-2.18-8-3.28
			c-4.91-2.03-9.81-4.07-14.72-6.11c-3.29-1.37-6.58-2.74-9.87-4.1c-6.22-2.58-12.43-5.15-18.66-7.72c-4.5-1.85-8.67-3.55-12.74-5.2
			c-2.87-1.16-5.29-1.7-7.64-1.7c-0.06,0-0.11,0-0.17,0L421.83,98.44L421.83,98.44z"/>
	</g>
	<g>
		<path class="st0" d="M601.78,567.68c-4.43-0.01-8.18-1.89-10.57-5.29c-2.41-3.43-3.04-7.97-1.65-11.86
			c0.63-1.77,1.35-3.62,2.13-5.5c1.65-3.95,3.3-7.89,4.96-11.84c1.81-4.32,3.62-8.64,5.43-12.96c1.79-4.28,3.56-8.57,5.33-12.86
			c1.72-4.15,3.44-8.31,5.17-12.46c1.75-4.21,3.52-8.41,5.28-12.62c1.87-4.46,3.74-8.92,5.6-13.38c1.86-4.46,3.7-8.93,5.54-13.4
			c1.54-3.74,3.08-7.47,4.63-11.2c2.98-7.17,5.97-14.33,8.97-21.49c0.56-1.34,1.22-2.71,1.95-4.07c2.18-4.07,6.14-6.41,10.86-6.41
			c1.71,0,3.4,0.31,5.05,0.93c5.44,2.04,9.78,8.29,7.63,15.22c-0.58,1.87-1.24,3.7-1.95,5.43c-2.13,5.2-4.3,10.39-6.47,15.58
			l-0.68,1.63c-0.99,2.37-1.98,4.73-2.98,7.1c-1.31,3.11-2.62,6.23-3.91,9.35c-1.71,4.11-3.41,8.22-5.1,12.33
			c-1.82,4.41-3.64,8.82-5.48,13.23c-1.7,4.08-3.41,8.16-5.11,12.24c-1.55,3.71-3.11,7.42-4.65,11.13c-1.17,2.82-2.34,5.64-3.5,8.47
			c-1.07,2.59-2.14,5.19-3.21,7.78c-1.35,3.25-2.71,6.5-4.07,9.74l-2.51,6l-1.72,4.13c-0.78,1.89-1.57,3.77-2.36,5.66
			c-0.35,0.83-0.73,1.61-1.09,2.34c-2.28,4.59-6.25,7.02-11.48,7.03H601.78z"/>
		<path d="M655.4,416.35c1.23,0,2.47,0.23,3.64,0.67c3.57,1.34,6.67,5.59,5.21,10.29c-0.54,1.72-1.14,3.43-1.83,5.1
			c-2.35,5.74-4.75,11.46-7.14,17.19c-2.29,5.49-4.61,10.96-6.89,16.45c-3.54,8.52-7.04,17.04-10.58,25.56
			c-3.24,7.8-6.52,15.58-9.77,23.38c-2.25,5.41-4.46,10.84-6.71,16.25c-2.18,5.25-4.39,10.49-6.58,15.74
			c-1.36,3.26-2.71,6.53-4.08,9.78c-0.3,0.71-0.64,1.41-0.99,2.11c-1.62,3.27-4.3,4.8-7.9,4.81c-7.34-0.02-10.2-6.96-8.47-11.81
			c0.64-1.79,1.33-3.55,2.06-5.3c3.45-8.27,6.94-16.53,10.39-24.8c3.51-8.43,6.98-16.88,10.5-25.32c3.61-8.67,7.27-17.32,10.88-26
			c3.41-8.19,6.78-16.41,10.18-24.61c2.97-7.16,5.96-14.32,8.97-21.47c0.53-1.27,1.14-2.52,1.79-3.73
			C649.67,417.66,652.49,416.35,655.4,416.35 M655.4,408.35L655.4,408.35c-6.15,0-11.52,3.18-14.38,8.52
			c-0.79,1.47-1.5,2.95-2.11,4.41c-2.94,6.99-5.96,14.23-8.98,21.5c-1.55,3.74-3.1,7.48-4.64,11.22c-1.84,4.46-3.68,8.92-5.54,13.38
			c-1.86,4.48-3.74,8.95-5.61,13.42c-1.76,4.19-3.51,8.38-5.26,12.57c-1.73,4.15-3.45,8.3-5.16,12.45
			c-1.77,4.29-3.55,8.58-5.33,12.86c-1.8,4.32-3.61,8.64-5.43,12.96c-1.66,3.94-3.31,7.89-4.96,11.84
			c-0.81,1.94-1.55,3.86-2.21,5.69c-1.82,5.09-1,11.03,2.15,15.51c3.11,4.43,8.15,6.98,13.83,6.99c6.78-0.01,12.13-3.29,15.09-9.24
			c0.37-0.75,0.8-1.63,1.2-2.58c0.79-1.88,1.57-3.75,2.35-5.63c0.58-1.39,1.15-2.78,1.73-4.16c0.84-2.01,1.68-4.03,2.53-6.04
			c1.36-3.24,2.71-6.48,4.06-9.72c1.08-2.59,2.15-5.19,3.22-7.79c1.16-2.82,2.32-5.64,3.49-8.45c1.54-3.7,3.09-7.39,4.63-11.09
			c1.71-4.09,3.43-8.19,5.13-12.29c1.82-4.38,3.63-8.77,5.44-13.15c1.71-4.14,3.42-8.28,5.14-12.41c1.3-3.14,2.62-6.27,3.94-9.4
			c0.99-2.35,1.97-4.69,2.95-7.04l0.7-1.67c2.13-5.09,4.33-10.36,6.46-15.57c0.76-1.84,1.45-3.78,2.07-5.77
			c2.85-9.19-2.87-17.46-10.05-20.15C659.76,408.75,657.59,408.35,655.4,408.35L655.4,408.35z"/>
	</g>
	<g>
		<path class="st0" d="M217.2,181.69c-6.7-0.09-9.93-3.61-11.47-6.54c-2.38-4.55-2.24-9.16,0.42-13.34
			c1.25-1.97,2.94-3.43,5.03-4.35l1.11-0.49c2.29-1.01,4.66-2.06,7.03-3.05c8.91-3.71,17.84-7.4,26.76-11.08
			c2.43-1,4.87-2,7.31-2.99c2.59-1.05,5.18-2.11,7.76-3.18c5.29-2.19,10.58-4.38,15.87-6.57c6.89-2.86,13.79-5.72,20.69-8.56
			c4.67-1.93,9.35-3.84,14.02-5.75c3.94-1.61,7.88-3.22,11.82-4.84c2.33-0.96,4.66-1.94,6.99-2.91c2.52-1.06,5.05-2.11,7.58-3.15
			l0.54-0.22c1.61-0.67,3.28-1.36,5.14-1.8c1.2-0.29,2.39-0.44,3.53-0.44c3.82,0,7.2,1.62,9.78,4.69c2.26,2.69,3.3,6.25,2.86,9.77
			c-0.44,3.48-2.3,6.63-5.12,8.65c-1.1,0.79-2.36,1.46-3.97,2.14c-6.15,2.57-12.31,5.12-18.48,7.66l-71.22,29.34
			c-7.48,3.08-14.96,6.16-22.43,9.24c-5.25,2.17-10.5,4.35-15.75,6.53c-1.83,0.76-3.72,1.18-5.63,1.24l-0.09,0L217.2,181.69z"/>
		<path d="M347.33,106.43c2.57,0,4.84,1.04,6.72,3.27c3.21,3.82,2.53,9.68-1.53,12.59c-0.97,0.7-2.08,1.24-3.18,1.7
			c-6.6,2.76-13.21,5.49-19.83,8.21c-10.12,4.17-20.24,8.34-30.36,12.51c-10.04,4.14-20.08,8.27-30.12,12.41
			c-10.6,4.37-21.2,8.73-31.8,13.1c-5.26,2.17-10.51,4.35-15.76,6.54c-1.37,0.57-2.79,0.89-4.22,0.93
			c-3.48-0.05-6.32-1.22-7.98-4.39c-1.64-3.13-1.7-6.27,0.25-9.34c0.81-1.28,1.9-2.23,3.27-2.84c2.68-1.19,5.35-2.38,8.06-3.51
			c8.91-3.71,17.83-7.4,26.75-11.08c5.02-2.07,10.06-4.1,15.07-6.17c12.19-5.04,24.36-10.1,36.55-15.13
			c8.61-3.55,17.23-7.04,25.84-10.58c4.86-2,9.7-4.06,14.56-6.06c1.67-0.69,3.35-1.42,5.1-1.84
			C345.63,106.54,346.5,106.43,347.33,106.43 M347.33,98.43c-1.46,0-2.96,0.18-4.47,0.55c-2.16,0.52-4.06,1.3-5.73,1.99l-0.54,0.22
			c-2.53,1.04-5.05,2.09-7.57,3.15c-2.33,0.98-4.66,1.95-7,2.91c-3.94,1.62-7.88,3.23-11.83,4.84c-4.68,1.91-9.35,3.82-14.02,5.74
			c-6.89,2.84-13.78,5.7-20.67,8.55c-5.3,2.2-10.59,4.39-15.89,6.58c-2.57,1.06-5.14,2.11-7.72,3.16c-2.45,1-4.9,2-7.35,3.01
			c-7.34,3.03-17.02,7.03-26.78,11.09c-2.42,1.01-4.82,2.07-7.13,3.1l-1.09,0.48c-2.82,1.25-5.1,3.22-6.78,5.87
			c-3.42,5.38-3.63,11.54-0.58,17.34c1.67,3.19,5.83,8.55,14.96,8.68l0.18,0l0.18-0.01c2.39-0.08,4.76-0.6,7.05-1.55
			c5.24-2.18,10.49-4.36,15.73-6.53c7.24-2.99,14.49-5.97,21.73-8.95l10.06-4.15l12.61-5.2l17.51-7.22l10.96-4.51
			c6.47-2.66,12.94-5.33,19.41-7.99l1.6-0.66c5.99-2.47,12.18-5.02,18.26-7.57c1.89-0.79,3.4-1.61,4.75-2.58
			c3.72-2.66,6.18-6.82,6.76-11.4c0.58-4.62-0.79-9.3-3.77-12.84C356.81,100.55,352.37,98.43,347.33,98.43L347.33,98.43z"/>
	</g>
	<g>
		<path class="st0" d="M165.68,567.67c-4.18-0.08-8.04-2.8-10.1-7.11c-1.2-2.52-2.29-5.11-3.4-7.76c-1.18-2.82-2.34-5.64-3.5-8.47
			c-0.97-2.36-1.94-4.72-2.92-7.07c-1.02-2.45-2.05-4.89-3.08-7.34c-0.88-2.08-1.75-4.17-2.62-6.25l-0.93-2.22
			c-3.87-9.28-7.75-18.57-11.6-27.86c-1.67-4.04-3.34-8.08-5-12.12c-1.88-4.56-3.76-9.13-5.65-13.69
			c-2.56-6.16-5.13-12.32-7.71-18.48c-2.31-5.53-4.62-11.06-6.92-16.6l-0.08-0.18c-0.51-1.23-1.09-2.63-1.42-4.18
			c-0.9-4.21-0.04-8.2,2.4-11.22c2.42-2.99,6.22-4.77,10.17-4.77c0.74,0,1.49,0.06,2.21,0.19c4.08,0.72,7.23,3.02,9.09,6.66
			c0.82,1.6,1.52,3.23,2.16,4.76c4.06,9.71,8.11,19.41,12.15,29.13c1.64,3.96,3.28,7.92,4.92,11.88c1.92,4.64,3.83,9.28,5.76,13.92
			c1.86,4.47,3.73,8.94,5.61,13.4c1.63,3.88,3.26,7.76,4.88,11.64c1.75,4.19,3.48,8.38,5.21,12.57l4.52,10.94
			c2.99,7.22,5.98,14.44,8.98,21.66c0.81,1.95,1.19,3.88,1.15,5.89c-0.15,7.66-5.71,12.64-14.16,12.7l-0.05,0L165.68,567.67z"/>
		<path d="M113.32,416.34c0.51,0,1.01,0.04,1.51,0.13c2.81,0.5,4.93,2.01,6.23,4.55c0.75,1.45,1.39,2.96,2.02,4.48
			c4.06,9.7,8.11,19.41,12.14,29.12c3.57,8.6,7.1,17.21,10.68,25.8c3.48,8.36,7,16.69,10.49,25.04c2.62,6.28,5.21,12.58,7.81,18.88
			c3.63,8.76,7.25,17.52,10.89,26.28c0.57,1.37,0.87,2.77,0.84,4.27c-0.11,5.21-3.63,8.74-10.19,8.78
			c-2.25-0.04-4.99-1.54-6.56-4.83c-1.18-2.49-2.26-5.03-3.32-7.58c-2.16-5.17-4.27-10.36-6.42-15.53
			c-1.89-4.54-3.81-9.06-5.7-13.59c-4.18-10.02-8.36-20.05-12.52-30.08c-3.57-8.6-7.08-17.22-10.66-25.81
			c-4.86-11.7-9.76-23.39-14.63-35.08c-0.5-1.19-1.01-2.4-1.28-3.66C103.16,420.43,108.37,416.34,113.32,416.34 M113.32,408.34
			L113.32,408.34c-5.14,0-10.11,2.34-13.28,6.26c-3.22,3.98-4.36,9.15-3.2,14.57c0.41,1.92,1.09,3.57,1.65,4.89l0.07,0.17
			c2.3,5.52,4.6,11.03,6.9,16.54c2.58,6.18,5.16,12.36,7.73,18.54c1.89,4.55,3.77,9.11,5.65,13.67c1.67,4.05,3.33,8.09,5.01,12.13
			c3.88,9.36,7.78,18.72,11.69,28.07l0.84,2.02c0.87,2.09,1.75,4.18,2.63,6.27c1.02,2.43,2.05,4.87,3.06,7.31
			c0.97,2.34,1.93,4.67,2.89,7.01c1.17,2.85,2.34,5.69,3.53,8.53c1.13,2.7,2.24,5.33,3.48,7.93c2.71,5.69,7.93,9.29,13.64,9.4l0.1,0
			l0.1,0c10.65-0.07,17.94-6.75,18.14-16.62c0.05-2.54-0.44-5.06-1.45-7.5c-2.99-7.19-5.97-14.39-8.95-21.58l-1.94-4.68
			c-0.87-2.11-1.75-4.22-2.62-6.34c-1.73-4.19-3.46-8.37-5.2-12.56c-1.63-3.92-3.28-7.83-4.92-11.74c-1.86-4.43-3.72-8.86-5.57-13.3
			c-1.92-4.62-3.83-9.24-5.74-13.86c-1.64-3.98-3.29-7.96-4.94-11.93c-3.66-8.81-7.52-18.06-12.15-29.14
			c-0.67-1.6-1.4-3.31-2.29-5.05c-2.43-4.72-6.67-7.84-11.96-8.77C115.27,408.42,114.3,408.34,113.32,408.34L113.32,408.34z"/>
	</g>
	<g>
		<path class="st0" d="M108.38,467.04c-0.24,0-0.5-0.01-0.8-0.02c-5.81-0.18-11.39-1.97-17.06-5.46c-5.35-3.3-10-7.86-14.2-13.94
			c-3.84-5.56-6.94-11.9-9.76-19.95c-2.13-6.06-3.72-12.18-4.72-18.16c-0.83-4.97-1.54-9.46-1.73-14.1
			c-0.39-9.46-0.09-17.79,0.91-25.48c1.78-13.61,5.19-25.26,10.42-35.63c3.7-7.33,8.05-13.27,13.3-18.16
			c4.41-4.11,9.51-7.04,15.15-8.71c2.51-0.74,5.12-1.1,7.99-1.1c0.6,0,1.19,0.02,1.79,0.05c0.96,0.05,1.72,0.35,2.22,0.55
			c0.1,0.04,0.21,0.09,0.33,0.12l3.55,1.16l-0.92,3.62c-0.06,0.25-0.11,0.48-0.16,0.71c-0.14,0.64-0.3,1.37-0.62,2.15
			c-1.53,3.78-3.08,7.55-4.63,11.33l-0.96,2.34c-1,2.43-2.79,3.81-4.05,4.64c-1.67,1.1-2.96,2.07-4.04,3.06
			c-2.42,2.2-4.42,5.07-6.49,9.31c-4.23,8.7-6.02,18.27-7.1,25.64c-0.03,0.21-0.06,0.57-0.01,1.12c0.07,0.82,0.25,0.95,0.9,1.12
			c0.83,0.22,1.67,0.35,2.48,0.39c1.6,0.08,3.2,0.1,5.11,0.1l0.9,0c10.09-0.01,20.18-0.04,30.27-0.08c0.62,0,1.32-0.07,2.15-0.22
			c0.45-0.08,0.59-0.1,0.74-0.93c0.09-0.49,0.08-0.66,0.08-0.69c-0.05-0.48-0.1-0.97-0.14-1.46c-0.15-1.6-0.29-3.11-0.59-4.52
			c-0.79-3.71-1.75-7.68-2.92-12.13c-0.41-1.54-0.83-3.9,0.25-6.56c0.08-0.2,0.15-0.41,0.23-0.62c0.13-0.38,0.26-0.75,0.42-1.12
			c1.7-4.06,3.4-8.12,5.12-12.18c0.5-1.19,1.05-2.37,1.61-3.51c0.38-0.76,0.85-1.27,1.16-1.6c0.05-0.05,0.1-0.11,0.15-0.17l2.2-2.65
			l2.95,1.78c2.01,1.21,2.86,2.92,3.42,4.05l0.14,0.28c2.86,5.65,4.94,10.49,6.55,15.24c3.67,10.82,5.76,21,6.39,31.1
			c0.67,10.81,0.23,20.56-1.34,29.81c-2.15,12.63-5.64,23.28-10.67,32.55l-0.4,0.74c-0.53,0.99-1.08,2.02-1.71,3.04
			c-0.53,0.88-1.2,1.4-1.64,1.75c-0.08,0.06-0.16,0.13-0.25,0.2l-3.41,3.07l-2.58-3.8c-0.08-0.12-0.16-0.22-0.23-0.32
			c-0.27-0.37-0.64-0.87-0.93-1.55c-1.52-3.55-3.02-7.11-4.53-10.66l-2.35-5.53c-1.05-2.47-1.18-5.06-0.4-7.92
			c0.92-3.37,1.81-6.98,2.79-11.37c0.53-2.39,0.86-4.38,0.73-6.29c-0.1-1.41-0.19-1.42-1.38-1.55c-2.34-0.25-4.26-0.37-6.04-0.37
			c-3.64-0.01-7.27-0.02-10.91-0.02c-6.19,0-12.38,0.02-18.57,0.04c-1.49,0.01-3.03,0.17-4.67,0.35c-0.34,0.04-0.44,0.05-0.64,0.47
			c-0.45,0.99-0.45,1.5-0.41,1.8c1.01,7.24,2.71,16.67,6.92,25.41c3.06,6.36,6.38,10.3,10.76,12.78c1.7,0.96,2.96,2.37,3.73,4.18
			c0.17,0.4,0.35,0.79,0.53,1.19c0.25,0.56,0.51,1.12,0.74,1.69c1.33,3.19,2.65,6.39,3.95,9.6c0.34,0.85,0.66,1.71,0.99,2.62
			l0.46,1.26l1.35,3.61l-3.55,1.48C111.22,466.66,110.18,467.04,108.38,467.04z"/>
		<path d="M107.9,310.32c0.53,0,1.06,0.01,1.59,0.04c0.47,0.02,0.92,0.28,1.51,0.48c-0.23,0.89-0.33,1.65-0.61,2.35
			c-1.84,4.56-3.71,9.1-5.58,13.64c-0.51,1.24-1.42,2.08-2.55,2.82c-1.58,1.04-3.12,2.16-4.52,3.43c-3.24,2.94-5.5,6.62-7.4,10.52
			c-4.12,8.47-6.1,17.56-7.46,26.81c-0.1,0.68-0.09,1.38-0.03,2.06c0.22,2.42,1.51,4.01,3.86,4.63c1.08,0.29,2.2,0.47,3.31,0.52
			c1.77,0.09,3.55,0.1,5.33,0.1c0.29,0,0.59,0,0.88,0c10.09-0.01,20.19-0.04,30.28-0.08c0.94,0,1.89-0.12,2.82-0.28
			c2.33-0.41,3.59-1.91,3.99-4.17c0.1-0.59,0.18-1.21,0.12-1.8c-0.22-2.14-0.36-4.3-0.8-6.4c-0.88-4.13-1.89-8.23-2.97-12.32
			c-0.37-1.4-0.45-2.7,0.09-4.04c0.23-0.56,0.39-1.14,0.63-1.7c1.7-4.06,3.4-8.11,5.11-12.16c0.47-1.11,0.97-2.21,1.51-3.29
			c0.18-0.35,0.51-0.63,0.81-1c1.13,0.68,1.56,1.73,2.05,2.71c2.41,4.77,4.61,9.64,6.33,14.72c3.31,9.77,5.54,19.78,6.18,30.06
			c0.6,9.65,0.34,19.3-1.29,28.89c-1.87,10.96-4.92,21.5-10.24,31.32c-0.66,1.21-1.29,2.44-2.01,3.61
			c-0.24,0.39-0.69,0.65-1.15,1.06c-0.34-0.5-0.64-0.82-0.8-1.2c-2.3-5.39-4.58-10.79-6.88-16.19c-0.74-1.74-0.72-3.46-0.22-5.3
			c1.05-3.82,1.97-7.68,2.83-11.55c0.54-2.44,0.99-4.91,0.82-7.44c-0.22-3.24-1.72-4.91-4.94-5.25c-2.14-0.23-4.3-0.39-6.45-0.4
			c-3.62-0.01-7.24-0.02-10.86-0.02c-6.21,0-12.43,0.02-18.64,0.04c-1.72,0.01-3.44,0.2-5.16,0.38c-1.77,0.19-3.03,1.17-3.77,2.78
			c-0.58,1.27-0.93,2.59-0.73,4.01c1.28,9.18,3.23,18.18,7.27,26.59c2.85,5.92,6.5,11.19,12.4,14.53c0.94,0.53,1.6,1.29,2.02,2.27
			c0.41,0.95,0.86,1.88,1.26,2.84c1.32,3.18,2.64,6.37,3.94,9.57c0.48,1.19,0.9,2.4,1.42,3.77c-1.37,0.57-1.82,0.71-2.81,0.71
			c-0.2,0-0.42-0.01-0.67-0.01c-5.5-0.17-10.48-2.03-15.09-4.87c-5.29-3.26-9.49-7.72-13-12.81c-4.04-5.86-6.93-12.31-9.28-19.01
			c-2-5.71-3.55-11.53-4.55-17.5c-0.76-4.51-1.49-9.03-1.68-13.6c-0.34-8.28-0.19-16.54,0.88-24.8
			c1.57-11.98,4.56-23.52,10.03-34.35c3.21-6.36,7.22-12.16,12.46-17.04c3.91-3.64,8.42-6.28,13.56-7.8
			C103.29,310.59,105.58,310.32,107.9,310.32 M107.9,302.32c-3.21,0-6.28,0.43-9.13,1.27c-6.25,1.85-11.88,5.08-16.75,9.61
			c-5.6,5.22-10.23,11.53-14.15,19.29c-5.44,10.78-8.98,22.85-10.82,36.92c-1.03,7.92-1.34,16.47-0.94,26.16
			c0.2,4.87,0.93,9.49,1.78,14.6c1.04,6.21,2.69,12.54,4.89,18.83c2.94,8.39,6.2,15.04,10.24,20.9c4.52,6.55,9.55,11.49,15.39,15.08
			c6.19,3.81,12.6,5.85,19.03,6.05c0.35,0.01,0.65,0.02,0.93,0.02c2.52,0,4.1-0.57,5.89-1.32l7.11-2.97l-2.69-7.21
			c-0.16-0.42-0.31-0.83-0.45-1.22c-0.33-0.9-0.67-1.82-1.05-2.76c-1.39-3.42-2.78-6.79-3.96-9.63c-0.25-0.6-0.52-1.2-0.79-1.8
			c-0.17-0.37-0.34-0.74-0.5-1.12c-1.11-2.6-2.99-4.71-5.44-6.09c-3.63-2.05-6.44-5.46-9.12-11.03c-2.89-6.01-4.85-12.93-6.27-22.24
			c0.51-0.04,1.01-0.06,1.48-0.06c6.57-0.03,12.66-0.04,18.61-0.04c3.61,0,7.22,0.01,10.84,0.02c1.04,0,2.15,0.05,3.37,0.14
			c-0.11,0.96-0.32,2.01-0.58,3.2c-0.96,4.32-1.83,7.87-2.74,11.18c-1.02,3.71-0.82,7.25,0.57,10.54l2.41,5.69
			c1.49,3.5,2.97,7.01,4.47,10.51c0.48,1.12,1.06,1.9,1.4,2.36c0.04,0.06,0.09,0.11,0.13,0.18l5.15,7.6l6.78-6.11l0.1-0.08
			c0.54-0.43,1.67-1.32,2.57-2.81c0.68-1.11,1.25-2.19,1.81-3.23l0.39-0.73c5.24-9.67,8.87-20.72,11.09-33.79
			c1.63-9.55,2.08-19.6,1.39-30.73c-0.65-10.46-2.81-20.97-6.59-32.14c-1.67-4.94-3.82-9.94-6.76-15.76l-0.12-0.25
			c-0.62-1.26-1.92-3.89-4.94-5.71l-5.89-3.55l-4.35,5.24l-0.05,0.06c-0.38,0.41-1.18,1.27-1.81,2.54c-0.6,1.2-1.17,2.46-1.71,3.73
			c-1.72,4.06-3.42,8.13-5.12,12.2c-0.22,0.52-0.38,0.98-0.5,1.35c-0.05,0.14-0.1,0.29-0.16,0.43c-1.15,2.82-1.28,5.8-0.41,9.08
			c1.16,4.4,2.1,8.3,2.88,11.94c0.19,0.89,0.31,1.91,0.42,2.99c-8.48,0.03-17.5,0.06-29.01,0.07l-0.87,0
			c-1.59,0-2.95-0.01-4.26-0.06c1.11-7.07,2.81-15.08,6.45-22.56c1.83-3.76,3.55-6.26,5.58-8.09c0.93-0.84,2.06-1.69,3.55-2.68
			c2.66-1.76,4.48-3.87,5.54-6.46l0.95-2.32c1.53-3.72,3.11-7.56,4.65-11.37c0.44-1.09,0.66-2.07,0.81-2.79
			c0.04-0.19,0.08-0.38,0.13-0.58l1.84-7.25l-7.07-2.31l-0.14-0.06c-0.65-0.26-1.87-0.74-3.48-0.82
			C109.22,302.34,108.55,302.32,107.9,302.32L107.9,302.32z"/>
	</g>
</g>
</svg>
