<?xml version="1.0" encoding="UTF-8" standalone="no"?><!DOCTYPE svg PUBLIC "-//W3C//DTD SVG 1.1//EN" "http://www.w3.org/Graphics/SVG/1.1/DTD/svg11.dtd"><svg width="100%" height="100%" viewBox="0 0 548 196" version="1.1" xmlns="http://www.w3.org/2000/svg" xmlns:xlink="http://www.w3.org/1999/xlink" xml:space="preserve" xmlns:serif="http://www.serif.com/" style="fill-rule:evenodd;clip-rule:evenodd;stroke-linejoin:round;stroke-miterlimit:2;"><g id="Tekstid._Tallinna_sinine"><path d="M219.878,64.675l-29.334,0l-0,82.81l-19.65,-0l-0,-82.81l-29.334,0l-0,-16.842l78.318,0l-0,16.842Z" style="fill:#0072ce;fill-rule:nonzero;"/><path d="M277.095,99.062l-0,48.423l-16.422,-0l-0,-7.439c-4.491,6.175 -12.351,9.824 -23.158,9.824c-14.738,0 -25.685,-6.877 -25.685,-20.491c0,-15.159 11.93,-21.896 31.018,-25.264l16.843,-3.088l-0,-1.684c-0,-6.877 -5.053,-10.947 -13.474,-10.947c-3.917,-0.171 -7.806,0.752 -11.228,2.666c-3.998,2.602 -7.714,5.613 -11.088,8.983l-11.509,-10.527c7.982,-10.388 20.446,-16.385 33.544,-16.141c20.071,0 31.159,10.106 31.159,25.685Zm-17.404,19.229l-0,-4.211l-12.07,2.526c-12.212,2.667 -17.966,5.334 -17.966,11.509c0,4.492 4.07,7.159 10.947,7.159c10.527,0 19.089,-5.334 19.089,-16.983Z" style="fill:#0072ce;fill-rule:nonzero;"/><rect x="294.017" y="47.833" width="18.247" height="99.651" style="fill:#0072ce;fill-rule:nonzero;"/><rect x="330.015" y="47.833" width="18.246" height="99.651" style="fill:#0072ce;fill-rule:nonzero;"/><path d="M384.26,64.956l-18.246,-0l-0,-17.123l18.246,0l-0,17.123Zm-0,82.529l-18.246,-0l-0,-71.722l18.246,0l-0,71.722Z" style="fill:#0072ce;fill-rule:nonzero;"/><path d="M466.293,98.36l0,49.125l-18.246,-0l0,-43.65c0,-9.545 -4.771,-14.738 -13.333,-14.738c-0.098,-0.002 -0.195,-0.003 -0.292,-0.003c-7.788,0 -14.197,6.409 -14.197,14.197c-0,0.322 0.011,0.644 0.033,0.965l-0,43.229l-18.246,-0l-0,-71.722l16.982,0l-0,8.141c4.925,-6.967 13.093,-10.945 21.615,-10.527c16.281,0 25.684,9.965 25.684,24.983Z" style="fill:#0072ce;fill-rule:nonzero;"/><path d="M547.498,98.36l-0,49.125l-18.246,-0l-0,-43.65c-0,-9.545 -4.772,-14.738 -13.334,-14.738c-0.097,-0.002 -0.195,-0.003 -0.292,-0.003c-7.789,-0 -14.198,6.409 -14.198,14.197c0,0.322 0.011,0.644 0.033,0.965l0,43.229l-18.246,-0l-0,-71.722l16.983,0l0,8.141c4.925,-6.967 13.092,-10.945 21.614,-10.527c16.282,0 25.686,9.965 25.686,24.983Z" style="fill:#0072ce;fill-rule:nonzero;"/></g><g id="Logod._Tallinna_sinine"><g id="Tallinna_logo-5"><path d="M70.462,83.357c-11.192,-3.052 -16.788,-6.867 -29.634,-9.155c-13.1,-2.416 -25.31,-1.653 -40.827,-0l0,15.512c17.679,-2.67 43.116,-6.358 62.576,-2.797c15.898,2.924 17.297,8.773 31.797,11.952l-0,-12.079c-8.067,-0.322 -16.08,-1.472 -23.912,-3.433Z" style="fill:#0072ce;fill-rule:nonzero;"/><path d="M94.373,106.498c-11.065,-7.629 -21.367,-8.01 -31.923,-7.883c-21.24,0.381 -37.266,3.052 -62.449,7.248l0,12.408c-0.01,1.323 0.052,2.645 0.186,3.961c18.362,-3.288 34.05,-5.565 40.768,-6.579c19.205,-3.051 39.047,-6.103 53.419,-3.687l-0.001,-5.468Z" style="fill:#0072ce;fill-rule:nonzero;"/><path d="M4.496,135.483c0.903,1.582 1.92,3.096 3.042,4.531c10.485,13.271 38.665,23.757 39.649,24.085c0.983,-0.328 29.164,-10.814 39.65,-24.085c2.143,-2.725 3.885,-5.742 5.174,-8.961c0.888,-2.308 1.543,-4.699 1.957,-7.137c0.106,-0.675 0.184,-1.31 0.242,-1.9c-2.754,0.364 -87.394,13.124 -89.714,13.467Z" style="fill:#0072ce;fill-rule:nonzero;"/><path d="M39.683,57.163c-11.955,-1.271 -20.731,-4.196 -39.682,-6.993l0,10.426c11.422,-0.46 22.844,0.914 33.832,4.069c3.688,1.017 10.938,3.179 13.736,3.942c14.753,4.069 34.722,4.069 46.804,5.467l0,-12.206c-17.17,-3.052 -41.717,-3.306 -54.69,-4.705Z" style="fill:#0072ce;fill-rule:nonzero;"/><path d="M47.188,31.224l-0.001,-0c-15.895,-0.165 -31.749,1.672 -47.186,5.467l0,4.832l94.372,8.138l0,-12.97c-15.436,-3.795 -31.289,-5.631 -47.185,-5.467Z" style="fill:#0072ce;fill-rule:nonzero;"/></g></g></svg>